M48
; DRILL file {KiCad (5.1.6)-1} date 11/13/20 20:14:49
; FORMAT={-:-/ absolute / inch / decimal}
; #@! TF.CreationDate,2020-11-13T20:14:49-06:00
; #@! TF.GenerationSoftware,Kicad,Pcbnew,(5.1.6)-1
; #@! TF.FileFunction,Plated,1,2,PTH
FMAT,2
INCH
T1C0.0138
T2C0.0197
T3C0.0315
T4C0.0360
T5C0.0394
T6C0.0709
T7C0.1102
T8C0.1378
%
G90
G05
T1
X2.1905Y-4.188
X2.3195Y-3.093
X2.3645Y-3.042
X2.4755Y-3.411
X2.5925Y-3.09
T2
X5.1342Y-4.7125
X5.1644Y-4.6394
X5.1644Y-4.7856
X5.2375Y-4.6092
X5.2375Y-4.8158
X5.3106Y-4.6394
X5.3106Y-4.7856
X5.3408Y-4.7125
X7.9042Y-4.71
X7.9344Y-4.6369
X7.9344Y-4.7831
X8.0075Y-4.6067
X8.0075Y-4.8133
X8.0806Y-4.6369
X8.0806Y-4.7831
X8.1108Y-4.71
X7.8942Y-2.96
X7.9244Y-2.8869
X7.9244Y-3.0331
X7.9975Y-2.8567
X7.9975Y-3.0633
X8.0706Y-2.8869
X8.0706Y-3.0331
X8.1008Y-2.96
X5.1517Y-2.9525
X5.1819Y-2.8794
X5.1819Y-3.0256
X5.255Y-2.8492
X5.255Y-3.0558
X5.3281Y-2.8794
X5.3281Y-3.0256
X5.3583Y-2.9525
T3
X1.84Y-2.83
X1.84Y-2.93
X1.84Y-3.03
X1.84Y-3.13
X1.84Y-3.23
X1.84Y-3.33
X1.84Y-3.43
X1.84Y-3.53
X1.84Y-3.63
X1.84Y-3.73
X1.84Y-3.83
X1.84Y-3.93
X1.84Y-4.03
X1.84Y-4.13
X1.84Y-4.23
X1.84Y-4.33
X1.84Y-4.43
X1.84Y-4.53
X1.84Y-4.63
X1.84Y-4.73
X1.84Y-4.83
X1.84Y-4.93
X1.94Y-2.83
X1.94Y-2.93
X1.94Y-3.03
X1.94Y-3.13
X1.94Y-3.23
X1.94Y-3.33
X1.94Y-3.43
X1.94Y-3.53
X1.94Y-3.63
X1.94Y-3.73
X1.94Y-3.83
X1.94Y-3.93
X1.94Y-4.03
X1.94Y-4.13
X1.94Y-4.23
X1.94Y-4.33
X1.94Y-4.43
X1.94Y-4.53
X1.94Y-4.63
X1.94Y-4.73
X1.94Y-4.83
X1.94Y-4.93
T4
X2.4351Y-2.6535
X2.5351Y-2.6535
X2.1165Y-2.652
X2.2165Y-2.652
T5
X8.425Y-5.7975
X8.525Y-5.7975
T6
X2.7121Y-3.005
X2.7121Y-3.1703
X2.7121Y-3.3357
X2.7121Y-3.501
X2.7121Y-3.6664
X2.7121Y-3.8317
X2.7121Y-3.9971
X2.7121Y-4.1624
X2.7121Y-4.3278
X2.7121Y-4.4932
X2.7121Y-4.6585
X2.7121Y-4.8239
X2.9286Y-3.005
X2.9286Y-3.1703
X2.9286Y-3.3357
X2.9286Y-3.501
X2.9286Y-3.6664
X2.9286Y-3.8317
X2.9286Y-3.9971
X2.9286Y-4.1624
X2.9286Y-4.3278
X2.9286Y-4.4932
X2.9286Y-4.6585
X2.9286Y-4.8239
T7
X1.74Y-2.53
X1.74Y-5.23
T8
X5.2375Y-4.7125
X8.0075Y-4.71
X7.9975Y-2.96
X5.255Y-2.9525
T0
M30
