%TF.GenerationSoftware,KiCad,Pcbnew,(5.1.9)-1*%
%TF.CreationDate,2021-04-02T12:34:59-05:00*%
%TF.ProjectId,FM Towns Pico Adapter,464d2054-6f77-46e7-9320-5069636f2041,rev?*%
%TF.SameCoordinates,Original*%
%TF.FileFunction,Legend,Top*%
%TF.FilePolarity,Positive*%
%FSLAX46Y46*%
G04 Gerber Fmt 4.6, Leading zero omitted, Abs format (unit mm)*
G04 Created by KiCad (PCBNEW (5.1.9)-1) date 2021-04-02 12:34:59*
%MOMM*%
%LPD*%
G01*
G04 APERTURE LIST*
%ADD10C,0.150000*%
%ADD11C,0.120000*%
%ADD12C,0.010000*%
%ADD13C,0.100000*%
%ADD14C,0.121920*%
G04 APERTURE END LIST*
D10*
X102491428Y-47521904D02*
X102491428Y-46760000D01*
X102872380Y-47140952D02*
X102110476Y-47140952D01*
X102872380Y-45760000D02*
X102872380Y-46331428D01*
X102872380Y-46045714D02*
X101872380Y-46045714D01*
X102015238Y-46140952D01*
X102110476Y-46236190D01*
X102158095Y-46331428D01*
X101967619Y-45379047D02*
X101920000Y-45331428D01*
X101872380Y-45236190D01*
X101872380Y-44998095D01*
X101920000Y-44902857D01*
X101967619Y-44855238D01*
X102062857Y-44807619D01*
X102158095Y-44807619D01*
X102300952Y-44855238D01*
X102872380Y-45426666D01*
X102872380Y-44807619D01*
X101872380Y-44521904D02*
X102872380Y-44188571D01*
X101872380Y-43855238D01*
X98970000Y-46381904D02*
X98922380Y-46477142D01*
X98922380Y-46620000D01*
X98970000Y-46762857D01*
X99065238Y-46858095D01*
X99160476Y-46905714D01*
X99350952Y-46953333D01*
X99493809Y-46953333D01*
X99684285Y-46905714D01*
X99779523Y-46858095D01*
X99874761Y-46762857D01*
X99922380Y-46620000D01*
X99922380Y-46524761D01*
X99874761Y-46381904D01*
X99827142Y-46334285D01*
X99493809Y-46334285D01*
X99493809Y-46524761D01*
X99922380Y-45905714D02*
X98922380Y-45905714D01*
X99922380Y-45334285D01*
X98922380Y-45334285D01*
X99922380Y-44858095D02*
X98922380Y-44858095D01*
X98922380Y-44620000D01*
X98970000Y-44477142D01*
X99065238Y-44381904D01*
X99160476Y-44334285D01*
X99350952Y-44286666D01*
X99493809Y-44286666D01*
X99684285Y-44334285D01*
X99779523Y-44381904D01*
X99874761Y-44477142D01*
X99922380Y-44620000D01*
X99922380Y-44858095D01*
X106718095Y-37550000D02*
X106622857Y-37502380D01*
X106480000Y-37502380D01*
X106337142Y-37550000D01*
X106241904Y-37645238D01*
X106194285Y-37740476D01*
X106146666Y-37930952D01*
X106146666Y-38073809D01*
X106194285Y-38264285D01*
X106241904Y-38359523D01*
X106337142Y-38454761D01*
X106480000Y-38502380D01*
X106575238Y-38502380D01*
X106718095Y-38454761D01*
X106765714Y-38407142D01*
X106765714Y-38073809D01*
X106575238Y-38073809D01*
X107194285Y-38502380D02*
X107194285Y-37502380D01*
X107765714Y-38502380D01*
X107765714Y-37502380D01*
X108241904Y-38502380D02*
X108241904Y-37502380D01*
X108480000Y-37502380D01*
X108622857Y-37550000D01*
X108718095Y-37645238D01*
X108765714Y-37740476D01*
X108813333Y-37930952D01*
X108813333Y-38073809D01*
X108765714Y-38264285D01*
X108718095Y-38359523D01*
X108622857Y-38454761D01*
X108480000Y-38502380D01*
X108241904Y-38502380D01*
X105428095Y-35541428D02*
X106190000Y-35541428D01*
X105809047Y-35922380D02*
X105809047Y-35160476D01*
X107190000Y-35922380D02*
X106618571Y-35922380D01*
X106904285Y-35922380D02*
X106904285Y-34922380D01*
X106809047Y-35065238D01*
X106713809Y-35160476D01*
X106618571Y-35208095D01*
X107570952Y-35017619D02*
X107618571Y-34970000D01*
X107713809Y-34922380D01*
X107951904Y-34922380D01*
X108047142Y-34970000D01*
X108094761Y-35017619D01*
X108142380Y-35112857D01*
X108142380Y-35208095D01*
X108094761Y-35350952D01*
X107523333Y-35922380D01*
X108142380Y-35922380D01*
X108428095Y-34922380D02*
X108761428Y-35922380D01*
X109094761Y-34922380D01*
D11*
X77350000Y-105960000D02*
X76900000Y-105960000D01*
X80090000Y-105960000D02*
X77350000Y-105960000D01*
X80090000Y-92950000D02*
X80090000Y-105960000D01*
X77060000Y-92950000D02*
X80090000Y-92950000D01*
D10*
X75010952Y-150276666D02*
X75487142Y-150276666D01*
X74915714Y-150562380D02*
X75249047Y-149562380D01*
X75582380Y-150562380D01*
X75915714Y-150562380D02*
X75915714Y-149895714D01*
X75915714Y-150086190D02*
X75963333Y-149990952D01*
X76010952Y-149943333D01*
X76106190Y-149895714D01*
X76201428Y-149895714D01*
X76963333Y-150562380D02*
X76963333Y-149562380D01*
X76963333Y-150514761D02*
X76868095Y-150562380D01*
X76677619Y-150562380D01*
X76582380Y-150514761D01*
X76534761Y-150467142D01*
X76487142Y-150371904D01*
X76487142Y-150086190D01*
X76534761Y-149990952D01*
X76582380Y-149943333D01*
X76677619Y-149895714D01*
X76868095Y-149895714D01*
X76963333Y-149943333D01*
X77868095Y-149895714D02*
X77868095Y-150562380D01*
X77439523Y-149895714D02*
X77439523Y-150419523D01*
X77487142Y-150514761D01*
X77582380Y-150562380D01*
X77725238Y-150562380D01*
X77820476Y-150514761D01*
X77868095Y-150467142D01*
X78344285Y-150562380D02*
X78344285Y-149895714D01*
X78344285Y-149562380D02*
X78296666Y-149610000D01*
X78344285Y-149657619D01*
X78391904Y-149610000D01*
X78344285Y-149562380D01*
X78344285Y-149657619D01*
X78820476Y-149895714D02*
X78820476Y-150562380D01*
X78820476Y-149990952D02*
X78868095Y-149943333D01*
X78963333Y-149895714D01*
X79106190Y-149895714D01*
X79201428Y-149943333D01*
X79249047Y-150038571D01*
X79249047Y-150562380D01*
X79868095Y-150562380D02*
X79772857Y-150514761D01*
X79725238Y-150467142D01*
X79677619Y-150371904D01*
X79677619Y-150086190D01*
X79725238Y-149990952D01*
X79772857Y-149943333D01*
X79868095Y-149895714D01*
X80010952Y-149895714D01*
X80106190Y-149943333D01*
X80153809Y-149990952D01*
X80201428Y-150086190D01*
X80201428Y-150371904D01*
X80153809Y-150467142D01*
X80106190Y-150514761D01*
X80010952Y-150562380D01*
X79868095Y-150562380D01*
X80391904Y-150657619D02*
X81153809Y-150657619D01*
X81391904Y-150562380D02*
X81391904Y-149562380D01*
X81772857Y-149562380D01*
X81868095Y-149610000D01*
X81915714Y-149657619D01*
X81963333Y-149752857D01*
X81963333Y-149895714D01*
X81915714Y-149990952D01*
X81868095Y-150038571D01*
X81772857Y-150086190D01*
X81391904Y-150086190D01*
X82391904Y-150562380D02*
X82391904Y-149895714D01*
X82391904Y-150086190D02*
X82439523Y-149990952D01*
X82487142Y-149943333D01*
X82582380Y-149895714D01*
X82677619Y-149895714D01*
X83153809Y-150562380D02*
X83058571Y-150514761D01*
X83010952Y-150467142D01*
X82963333Y-150371904D01*
X82963333Y-150086190D01*
X83010952Y-149990952D01*
X83058571Y-149943333D01*
X83153809Y-149895714D01*
X83296666Y-149895714D01*
X83391904Y-149943333D01*
X83439523Y-149990952D01*
X83487142Y-150086190D01*
X83487142Y-150371904D01*
X83439523Y-150467142D01*
X83391904Y-150514761D01*
X83296666Y-150562380D01*
X83153809Y-150562380D01*
X83677619Y-150657619D02*
X84439523Y-150657619D01*
X84677619Y-150562380D02*
X84677619Y-149562380D01*
X85010952Y-150276666D01*
X85344285Y-149562380D01*
X85344285Y-150562380D01*
X85820476Y-150562380D02*
X85820476Y-149895714D01*
X85820476Y-149562380D02*
X85772857Y-149610000D01*
X85820476Y-149657619D01*
X85868095Y-149610000D01*
X85820476Y-149562380D01*
X85820476Y-149657619D01*
X86725238Y-150514761D02*
X86630000Y-150562380D01*
X86439523Y-150562380D01*
X86344285Y-150514761D01*
X86296666Y-150467142D01*
X86249047Y-150371904D01*
X86249047Y-150086190D01*
X86296666Y-149990952D01*
X86344285Y-149943333D01*
X86439523Y-149895714D01*
X86630000Y-149895714D01*
X86725238Y-149943333D01*
X87153809Y-150562380D02*
X87153809Y-149895714D01*
X87153809Y-150086190D02*
X87201428Y-149990952D01*
X87249047Y-149943333D01*
X87344285Y-149895714D01*
X87439523Y-149895714D01*
X87915714Y-150562380D02*
X87820476Y-150514761D01*
X87772857Y-150467142D01*
X87725238Y-150371904D01*
X87725238Y-150086190D01*
X87772857Y-149990952D01*
X87820476Y-149943333D01*
X87915714Y-149895714D01*
X88058571Y-149895714D01*
X88153809Y-149943333D01*
X88201428Y-149990952D01*
X88249047Y-150086190D01*
X88249047Y-150371904D01*
X88201428Y-150467142D01*
X88153809Y-150514761D01*
X88058571Y-150562380D01*
X87915714Y-150562380D01*
D11*
X206248000Y-72136000D02*
X130111500Y-72072500D01*
X206248000Y-122936000D02*
X130111500Y-122936000D01*
X130111500Y-72136000D02*
X130111500Y-122872500D01*
D10*
X58224285Y-58727142D02*
X58224285Y-55727142D01*
X58224285Y-56870000D02*
X58510000Y-56727142D01*
X59081428Y-56727142D01*
X59367142Y-56870000D01*
X59510000Y-57012857D01*
X59652857Y-57298571D01*
X59652857Y-58155714D01*
X59510000Y-58441428D01*
X59367142Y-58584285D01*
X59081428Y-58727142D01*
X58510000Y-58727142D01*
X58224285Y-58584285D01*
X60652857Y-56727142D02*
X61367142Y-58727142D01*
X62081428Y-56727142D02*
X61367142Y-58727142D01*
X61081428Y-59441428D01*
X60938571Y-59584285D01*
X60652857Y-59727142D01*
X61194285Y-46197142D02*
X61194285Y-48625714D01*
X61337142Y-48911428D01*
X61480000Y-49054285D01*
X61765714Y-49197142D01*
X62337142Y-49197142D01*
X62622857Y-49054285D01*
X62765714Y-48911428D01*
X62908571Y-48625714D01*
X62908571Y-46197142D01*
X64337142Y-47197142D02*
X64337142Y-49197142D01*
X64337142Y-47482857D02*
X64480000Y-47340000D01*
X64765714Y-47197142D01*
X65194285Y-47197142D01*
X65480000Y-47340000D01*
X65622857Y-47625714D01*
X65622857Y-49197142D01*
X67051428Y-49197142D02*
X67051428Y-47197142D01*
X67051428Y-46197142D02*
X66908571Y-46340000D01*
X67051428Y-46482857D01*
X67194285Y-46340000D01*
X67051428Y-46197142D01*
X67051428Y-46482857D01*
X68194285Y-47197142D02*
X68908571Y-49197142D01*
X69622857Y-47197142D01*
X71908571Y-49054285D02*
X71622857Y-49197142D01*
X71051428Y-49197142D01*
X70765714Y-49054285D01*
X70622857Y-48768571D01*
X70622857Y-47625714D01*
X70765714Y-47340000D01*
X71051428Y-47197142D01*
X71622857Y-47197142D01*
X71908571Y-47340000D01*
X72051428Y-47625714D01*
X72051428Y-47911428D01*
X70622857Y-48197142D01*
X73337142Y-49197142D02*
X73337142Y-47197142D01*
X73337142Y-47768571D02*
X73480000Y-47482857D01*
X73622857Y-47340000D01*
X73908571Y-47197142D01*
X74194285Y-47197142D01*
X75051428Y-49054285D02*
X75337142Y-49197142D01*
X75908571Y-49197142D01*
X76194285Y-49054285D01*
X76337142Y-48768571D01*
X76337142Y-48625714D01*
X76194285Y-48340000D01*
X75908571Y-48197142D01*
X75480000Y-48197142D01*
X75194285Y-48054285D01*
X75051428Y-47768571D01*
X75051428Y-47625714D01*
X75194285Y-47340000D01*
X75480000Y-47197142D01*
X75908571Y-47197142D01*
X76194285Y-47340000D01*
X78908571Y-49197142D02*
X78908571Y-47625714D01*
X78765714Y-47340000D01*
X78480000Y-47197142D01*
X77908571Y-47197142D01*
X77622857Y-47340000D01*
X78908571Y-49054285D02*
X78622857Y-49197142D01*
X77908571Y-49197142D01*
X77622857Y-49054285D01*
X77480000Y-48768571D01*
X77480000Y-48482857D01*
X77622857Y-48197142D01*
X77908571Y-48054285D01*
X78622857Y-48054285D01*
X78908571Y-47911428D01*
X80765714Y-49197142D02*
X80480000Y-49054285D01*
X80337142Y-48768571D01*
X80337142Y-46197142D01*
X84194285Y-49197142D02*
X84194285Y-46197142D01*
X85337142Y-46197142D01*
X85622857Y-46340000D01*
X85765714Y-46482857D01*
X85908571Y-46768571D01*
X85908571Y-47197142D01*
X85765714Y-47482857D01*
X85622857Y-47625714D01*
X85337142Y-47768571D01*
X84194285Y-47768571D01*
X87051428Y-49054285D02*
X87480000Y-49197142D01*
X88194285Y-49197142D01*
X88480000Y-49054285D01*
X88622857Y-48911428D01*
X88765714Y-48625714D01*
X88765714Y-48340000D01*
X88622857Y-48054285D01*
X88480000Y-47911428D01*
X88194285Y-47768571D01*
X87622857Y-47625714D01*
X87337142Y-47482857D01*
X87194285Y-47340000D01*
X87051428Y-47054285D01*
X87051428Y-46768571D01*
X87194285Y-46482857D01*
X87337142Y-46340000D01*
X87622857Y-46197142D01*
X88337142Y-46197142D01*
X88765714Y-46340000D01*
X90051428Y-46197142D02*
X90051428Y-48625714D01*
X90194285Y-48911428D01*
X90337142Y-49054285D01*
X90622857Y-49197142D01*
X91194285Y-49197142D01*
X91480000Y-49054285D01*
X91622857Y-48911428D01*
X91765714Y-48625714D01*
X91765714Y-46197142D01*
X65837142Y-58354285D02*
X65551428Y-58497142D01*
X64980000Y-58497142D01*
X64694285Y-58354285D01*
X64551428Y-58211428D01*
X64408571Y-57925714D01*
X64408571Y-57068571D01*
X64551428Y-56782857D01*
X64694285Y-56640000D01*
X64980000Y-56497142D01*
X65551428Y-56497142D01*
X65837142Y-56640000D01*
X66837142Y-56497142D02*
X67551428Y-58497142D01*
X68265714Y-56497142D02*
X67551428Y-58497142D01*
X67265714Y-59211428D01*
X67122857Y-59354285D01*
X66837142Y-59497142D01*
X69837142Y-58497142D02*
X69551428Y-58354285D01*
X69408571Y-58211428D01*
X69265714Y-57925714D01*
X69265714Y-57068571D01*
X69408571Y-56782857D01*
X69551428Y-56640000D01*
X69837142Y-56497142D01*
X70265714Y-56497142D01*
X70551428Y-56640000D01*
X70694285Y-56782857D01*
X70837142Y-57068571D01*
X70837142Y-57925714D01*
X70694285Y-58211428D01*
X70551428Y-58354285D01*
X70265714Y-58497142D01*
X69837142Y-58497142D01*
X72122857Y-58211428D02*
X72265714Y-58354285D01*
X72122857Y-58497142D01*
X71980000Y-58354285D01*
X72122857Y-58211428D01*
X72122857Y-58497142D01*
X73122857Y-56497142D02*
X74265714Y-56497142D01*
X73551428Y-55497142D02*
X73551428Y-58068571D01*
X73694285Y-58354285D01*
X73980000Y-58497142D01*
X74265714Y-58497142D01*
X75265714Y-58497142D02*
X75265714Y-55497142D01*
X76551428Y-58497142D02*
X76551428Y-56925714D01*
X76408571Y-56640000D01*
X76122857Y-56497142D01*
X75694285Y-56497142D01*
X75408571Y-56640000D01*
X75265714Y-56782857D01*
X79122857Y-58354285D02*
X78837142Y-58497142D01*
X78265714Y-58497142D01*
X77980000Y-58354285D01*
X77837142Y-58068571D01*
X77837142Y-56925714D01*
X77980000Y-56640000D01*
X78265714Y-56497142D01*
X78837142Y-56497142D01*
X79122857Y-56640000D01*
X79265714Y-56925714D01*
X79265714Y-57211428D01*
X77837142Y-57497142D01*
X80551428Y-58211428D02*
X80694285Y-58354285D01*
X80551428Y-58497142D01*
X80408571Y-58354285D01*
X80551428Y-58211428D01*
X80551428Y-58497142D01*
X81694285Y-56497142D02*
X82408571Y-58497142D01*
X83122857Y-56497142D01*
X84265714Y-58497142D02*
X84265714Y-56497142D01*
X84265714Y-55497142D02*
X84122857Y-55640000D01*
X84265714Y-55782857D01*
X84408571Y-55640000D01*
X84265714Y-55497142D01*
X84265714Y-55782857D01*
X86122857Y-58497142D02*
X85837142Y-58354285D01*
X85694285Y-58068571D01*
X85694285Y-55497142D01*
X88408571Y-58354285D02*
X88122857Y-58497142D01*
X87551428Y-58497142D01*
X87265714Y-58354285D01*
X87122857Y-58068571D01*
X87122857Y-56925714D01*
X87265714Y-56640000D01*
X87551428Y-56497142D01*
X88122857Y-56497142D01*
X88408571Y-56640000D01*
X88551428Y-56925714D01*
X88551428Y-57211428D01*
X87122857Y-57497142D01*
X144053000Y-99242500D02*
X145481571Y-99242500D01*
X143767285Y-100099642D02*
X144767285Y-97099642D01*
X145767285Y-100099642D01*
X148481571Y-99813928D02*
X148338714Y-99956785D01*
X147910142Y-100099642D01*
X147624428Y-100099642D01*
X147195857Y-99956785D01*
X146910142Y-99671071D01*
X146767285Y-99385357D01*
X146624428Y-98813928D01*
X146624428Y-98385357D01*
X146767285Y-97813928D01*
X146910142Y-97528214D01*
X147195857Y-97242500D01*
X147624428Y-97099642D01*
X147910142Y-97099642D01*
X148338714Y-97242500D01*
X148481571Y-97385357D01*
X151910142Y-96956785D02*
X149338714Y-100813928D01*
X152910142Y-100099642D02*
X152910142Y-97099642D01*
X153624428Y-97099642D01*
X154053000Y-97242500D01*
X154338714Y-97528214D01*
X154481571Y-97813928D01*
X154624428Y-98385357D01*
X154624428Y-98813928D01*
X154481571Y-99385357D01*
X154338714Y-99671071D01*
X154053000Y-99956785D01*
X153624428Y-100099642D01*
X152910142Y-100099642D01*
X157624428Y-99813928D02*
X157481571Y-99956785D01*
X157053000Y-100099642D01*
X156767285Y-100099642D01*
X156338714Y-99956785D01*
X156053000Y-99671071D01*
X155910142Y-99385357D01*
X155767285Y-98813928D01*
X155767285Y-98385357D01*
X155910142Y-97813928D01*
X156053000Y-97528214D01*
X156338714Y-97242500D01*
X156767285Y-97099642D01*
X157053000Y-97099642D01*
X157481571Y-97242500D01*
X157624428Y-97385357D01*
X162910142Y-99813928D02*
X162767285Y-99956785D01*
X162338714Y-100099642D01*
X162053000Y-100099642D01*
X161624428Y-99956785D01*
X161338714Y-99671071D01*
X161195857Y-99385357D01*
X161053000Y-98813928D01*
X161053000Y-98385357D01*
X161195857Y-97813928D01*
X161338714Y-97528214D01*
X161624428Y-97242500D01*
X162053000Y-97099642D01*
X162338714Y-97099642D01*
X162767285Y-97242500D01*
X162910142Y-97385357D01*
X164767285Y-97099642D02*
X165338714Y-97099642D01*
X165624428Y-97242500D01*
X165910142Y-97528214D01*
X166053000Y-98099642D01*
X166053000Y-99099642D01*
X165910142Y-99671071D01*
X165624428Y-99956785D01*
X165338714Y-100099642D01*
X164767285Y-100099642D01*
X164481571Y-99956785D01*
X164195857Y-99671071D01*
X164053000Y-99099642D01*
X164053000Y-98099642D01*
X164195857Y-97528214D01*
X164481571Y-97242500D01*
X164767285Y-97099642D01*
X167338714Y-100099642D02*
X167338714Y-97099642D01*
X169053000Y-100099642D01*
X169053000Y-97099642D01*
X170053000Y-97099642D02*
X171053000Y-100099642D01*
X172053000Y-97099642D01*
X173053000Y-98528214D02*
X174053000Y-98528214D01*
X174481571Y-100099642D02*
X173053000Y-100099642D01*
X173053000Y-97099642D01*
X174481571Y-97099642D01*
X177481571Y-100099642D02*
X176481571Y-98671071D01*
X175767285Y-100099642D02*
X175767285Y-97099642D01*
X176910142Y-97099642D01*
X177195857Y-97242500D01*
X177338714Y-97385357D01*
X177481571Y-97671071D01*
X177481571Y-98099642D01*
X177338714Y-98385357D01*
X177195857Y-98528214D01*
X176910142Y-98671071D01*
X175767285Y-98671071D01*
X178338714Y-97099642D02*
X180053000Y-97099642D01*
X179195857Y-100099642D02*
X179195857Y-97099642D01*
X181053000Y-98528214D02*
X182053000Y-98528214D01*
X182481571Y-100099642D02*
X181053000Y-100099642D01*
X181053000Y-97099642D01*
X182481571Y-97099642D01*
X185481571Y-100099642D02*
X184481571Y-98671071D01*
X183767285Y-100099642D02*
X183767285Y-97099642D01*
X184910142Y-97099642D01*
X185195857Y-97242500D01*
X185338714Y-97385357D01*
X185481571Y-97671071D01*
X185481571Y-98099642D01*
X185338714Y-98385357D01*
X185195857Y-98528214D01*
X184910142Y-98671071D01*
X183767285Y-98671071D01*
X190624428Y-100099642D02*
X188910142Y-100099642D01*
X189767285Y-100099642D02*
X189767285Y-97099642D01*
X189481571Y-97528214D01*
X189195857Y-97813928D01*
X188910142Y-97956785D01*
X191767285Y-97385357D02*
X191910142Y-97242500D01*
X192195857Y-97099642D01*
X192910142Y-97099642D01*
X193195857Y-97242500D01*
X193338714Y-97385357D01*
X193481571Y-97671071D01*
X193481571Y-97956785D01*
X193338714Y-98385357D01*
X191624428Y-100099642D01*
X193481571Y-100099642D01*
X194338714Y-97099642D02*
X195338714Y-100099642D01*
X196338714Y-97099642D01*
D11*
X206248000Y-122936000D02*
X206248000Y-72136000D01*
%TO.C,NOCTUA_FAN*%
X98620000Y-39500000D02*
X98620000Y-33750000D01*
X98670000Y-32400000D02*
X98670000Y-29200000D01*
X98670000Y-29200000D02*
X104620000Y-29200000D01*
X104620000Y-29200000D02*
X104620000Y-39500000D01*
X104620000Y-39500000D02*
X98620000Y-39500000D01*
X104520000Y-38150000D02*
X103510000Y-38150000D01*
X103510000Y-38150000D02*
X103510000Y-33070000D01*
X103510000Y-33070000D02*
X104520000Y-33070000D01*
D10*
%TO.C,U1*%
X97240000Y-141130000D02*
X66760000Y-141130000D01*
X97240000Y-141130000D02*
X97240000Y-146210000D01*
X97240000Y-146210000D02*
X99780000Y-146210000D01*
X99780000Y-146210000D02*
X99780000Y-153830000D01*
X99780000Y-153830000D02*
X97240000Y-153830000D01*
X97240000Y-153830000D02*
X97240000Y-158910000D01*
X97240000Y-158910000D02*
X66760000Y-158910000D01*
X66760000Y-158910000D02*
X66760000Y-141130000D01*
D11*
%TO.C,STOCK_FAN*%
X103400000Y-50760000D02*
X103400000Y-48100000D01*
X100800000Y-50760000D02*
X103400000Y-50760000D01*
X100800000Y-48100000D02*
X103400000Y-48100000D01*
X100800000Y-50760000D02*
X100800000Y-48100000D01*
X99530000Y-50760000D02*
X98200000Y-50760000D01*
X98200000Y-50760000D02*
X98200000Y-49430000D01*
D12*
%TO.C,G\u002A\u002A\u002A*%
G36*
X65897366Y-41107433D02*
G01*
X65941235Y-41348094D01*
X66015607Y-41577507D01*
X66118314Y-41793346D01*
X66247187Y-41993284D01*
X66400057Y-42174993D01*
X66574758Y-42336147D01*
X66769120Y-42474419D01*
X66980975Y-42587481D01*
X67208155Y-42673006D01*
X67399972Y-42720130D01*
X67511765Y-42735131D01*
X67644535Y-42743248D01*
X67786101Y-42744495D01*
X67924285Y-42738886D01*
X68046906Y-42726434D01*
X68089815Y-42719361D01*
X68320277Y-42659161D01*
X68539296Y-42569573D01*
X68744341Y-42453190D01*
X68932880Y-42312601D01*
X69102381Y-42150398D01*
X69250312Y-41969171D01*
X69374141Y-41771511D01*
X69471336Y-41560010D01*
X69539365Y-41337258D01*
X69563332Y-41211551D01*
X69573838Y-41142853D01*
X69583271Y-41083164D01*
X69589848Y-41043731D01*
X69590582Y-41039700D01*
X69597711Y-41001600D01*
X70916592Y-41001600D01*
X70907217Y-41115900D01*
X70892757Y-41251866D01*
X70871508Y-41399461D01*
X70845833Y-41544174D01*
X70818095Y-41671490D01*
X70814336Y-41686493D01*
X70718587Y-41994617D01*
X70593126Y-42288741D01*
X70439727Y-42567009D01*
X70260166Y-42827565D01*
X70056219Y-43068553D01*
X69829661Y-43288116D01*
X69582268Y-43484400D01*
X69315816Y-43655547D01*
X69032079Y-43799702D01*
X68732834Y-43915009D01*
X68660817Y-43937610D01*
X68384337Y-44007589D01*
X68105203Y-44051227D01*
X67816080Y-44069355D01*
X67539666Y-44064462D01*
X67235684Y-44032150D01*
X66932606Y-43967707D01*
X66634487Y-43872720D01*
X66345385Y-43748779D01*
X66069356Y-43597470D01*
X65810459Y-43420383D01*
X65727800Y-43355190D01*
X65629322Y-43268856D01*
X65520983Y-43164087D01*
X65410590Y-43049204D01*
X65305951Y-42932530D01*
X65214875Y-42822387D01*
X65163448Y-42753734D01*
X64983912Y-42471596D01*
X64835697Y-42177552D01*
X64719235Y-41872775D01*
X64634954Y-41558436D01*
X64583285Y-41235709D01*
X64575181Y-41149767D01*
X64563209Y-41001600D01*
X65885341Y-41001600D01*
X65897366Y-41107433D01*
G37*
X65897366Y-41107433D02*
X65941235Y-41348094D01*
X66015607Y-41577507D01*
X66118314Y-41793346D01*
X66247187Y-41993284D01*
X66400057Y-42174993D01*
X66574758Y-42336147D01*
X66769120Y-42474419D01*
X66980975Y-42587481D01*
X67208155Y-42673006D01*
X67399972Y-42720130D01*
X67511765Y-42735131D01*
X67644535Y-42743248D01*
X67786101Y-42744495D01*
X67924285Y-42738886D01*
X68046906Y-42726434D01*
X68089815Y-42719361D01*
X68320277Y-42659161D01*
X68539296Y-42569573D01*
X68744341Y-42453190D01*
X68932880Y-42312601D01*
X69102381Y-42150398D01*
X69250312Y-41969171D01*
X69374141Y-41771511D01*
X69471336Y-41560010D01*
X69539365Y-41337258D01*
X69563332Y-41211551D01*
X69573838Y-41142853D01*
X69583271Y-41083164D01*
X69589848Y-41043731D01*
X69590582Y-41039700D01*
X69597711Y-41001600D01*
X70916592Y-41001600D01*
X70907217Y-41115900D01*
X70892757Y-41251866D01*
X70871508Y-41399461D01*
X70845833Y-41544174D01*
X70818095Y-41671490D01*
X70814336Y-41686493D01*
X70718587Y-41994617D01*
X70593126Y-42288741D01*
X70439727Y-42567009D01*
X70260166Y-42827565D01*
X70056219Y-43068553D01*
X69829661Y-43288116D01*
X69582268Y-43484400D01*
X69315816Y-43655547D01*
X69032079Y-43799702D01*
X68732834Y-43915009D01*
X68660817Y-43937610D01*
X68384337Y-44007589D01*
X68105203Y-44051227D01*
X67816080Y-44069355D01*
X67539666Y-44064462D01*
X67235684Y-44032150D01*
X66932606Y-43967707D01*
X66634487Y-43872720D01*
X66345385Y-43748779D01*
X66069356Y-43597470D01*
X65810459Y-43420383D01*
X65727800Y-43355190D01*
X65629322Y-43268856D01*
X65520983Y-43164087D01*
X65410590Y-43049204D01*
X65305951Y-42932530D01*
X65214875Y-42822387D01*
X65163448Y-42753734D01*
X64983912Y-42471596D01*
X64835697Y-42177552D01*
X64719235Y-41872775D01*
X64634954Y-41558436D01*
X64583285Y-41235709D01*
X64575181Y-41149767D01*
X64563209Y-41001600D01*
X65885341Y-41001600D01*
X65897366Y-41107433D01*
G36*
X56822557Y-40971781D02*
G01*
X57526982Y-40976200D01*
X57854386Y-41687400D01*
X57921477Y-41832951D01*
X57984532Y-41969385D01*
X58042081Y-42093551D01*
X58092656Y-42202295D01*
X58134789Y-42292467D01*
X58167011Y-42360915D01*
X58187854Y-42404486D01*
X58195595Y-42419716D01*
X58205421Y-42409705D01*
X58227347Y-42369439D01*
X58260839Y-42300085D01*
X58305367Y-42202811D01*
X58360399Y-42078784D01*
X58425402Y-41929173D01*
X58499845Y-41755144D01*
X58521426Y-41704283D01*
X58833452Y-40967733D01*
X60232933Y-40967733D01*
X60232933Y-41526533D01*
X59877022Y-41526533D01*
X59881411Y-42385900D01*
X59885799Y-43245267D01*
X60059366Y-43250092D01*
X60232933Y-43254918D01*
X60232933Y-43863675D01*
X58683533Y-43854867D01*
X58674285Y-43253733D01*
X58912133Y-43253733D01*
X58910987Y-42775367D01*
X58910093Y-42623098D01*
X58908229Y-42501768D01*
X58905421Y-42412010D01*
X58901692Y-42354461D01*
X58897067Y-42329756D01*
X58893917Y-42330867D01*
X58884619Y-42353107D01*
X58864202Y-42403601D01*
X58833960Y-42479092D01*
X58795191Y-42576324D01*
X58749189Y-42692042D01*
X58697252Y-42822991D01*
X58640675Y-42965914D01*
X58583817Y-43109800D01*
X58289641Y-43854867D01*
X58063254Y-43859388D01*
X57836866Y-43863909D01*
X57464995Y-43058080D01*
X57393477Y-42903494D01*
X57325968Y-42758330D01*
X57263836Y-42625475D01*
X57208448Y-42507816D01*
X57161171Y-42408241D01*
X57123371Y-42329638D01*
X57096416Y-42274893D01*
X57081673Y-42246895D01*
X57079508Y-42243836D01*
X57076237Y-42257907D01*
X57073543Y-42301781D01*
X57071500Y-42371400D01*
X57070183Y-42462704D01*
X57069666Y-42571635D01*
X57070025Y-42694132D01*
X57070379Y-42740344D01*
X57074866Y-43245267D01*
X57248433Y-43250092D01*
X57422000Y-43254918D01*
X57422000Y-43863333D01*
X56118133Y-43863333D01*
X56118133Y-43253733D01*
X56439866Y-43253733D01*
X56439866Y-41526533D01*
X56118133Y-41526533D01*
X56118133Y-40967362D01*
X56822557Y-40971781D01*
G37*
X56822557Y-40971781D02*
X57526982Y-40976200D01*
X57854386Y-41687400D01*
X57921477Y-41832951D01*
X57984532Y-41969385D01*
X58042081Y-42093551D01*
X58092656Y-42202295D01*
X58134789Y-42292467D01*
X58167011Y-42360915D01*
X58187854Y-42404486D01*
X58195595Y-42419716D01*
X58205421Y-42409705D01*
X58227347Y-42369439D01*
X58260839Y-42300085D01*
X58305367Y-42202811D01*
X58360399Y-42078784D01*
X58425402Y-41929173D01*
X58499845Y-41755144D01*
X58521426Y-41704283D01*
X58833452Y-40967733D01*
X60232933Y-40967733D01*
X60232933Y-41526533D01*
X59877022Y-41526533D01*
X59881411Y-42385900D01*
X59885799Y-43245267D01*
X60059366Y-43250092D01*
X60232933Y-43254918D01*
X60232933Y-43863675D01*
X58683533Y-43854867D01*
X58674285Y-43253733D01*
X58912133Y-43253733D01*
X58910987Y-42775367D01*
X58910093Y-42623098D01*
X58908229Y-42501768D01*
X58905421Y-42412010D01*
X58901692Y-42354461D01*
X58897067Y-42329756D01*
X58893917Y-42330867D01*
X58884619Y-42353107D01*
X58864202Y-42403601D01*
X58833960Y-42479092D01*
X58795191Y-42576324D01*
X58749189Y-42692042D01*
X58697252Y-42822991D01*
X58640675Y-42965914D01*
X58583817Y-43109800D01*
X58289641Y-43854867D01*
X58063254Y-43859388D01*
X57836866Y-43863909D01*
X57464995Y-43058080D01*
X57393477Y-42903494D01*
X57325968Y-42758330D01*
X57263836Y-42625475D01*
X57208448Y-42507816D01*
X57161171Y-42408241D01*
X57123371Y-42329638D01*
X57096416Y-42274893D01*
X57081673Y-42246895D01*
X57079508Y-42243836D01*
X57076237Y-42257907D01*
X57073543Y-42301781D01*
X57071500Y-42371400D01*
X57070183Y-42462704D01*
X57069666Y-42571635D01*
X57070025Y-42694132D01*
X57070379Y-42740344D01*
X57074866Y-43245267D01*
X57248433Y-43250092D01*
X57422000Y-43254918D01*
X57422000Y-43863333D01*
X56118133Y-43863333D01*
X56118133Y-43253733D01*
X56439866Y-43253733D01*
X56439866Y-41526533D01*
X56118133Y-41526533D01*
X56118133Y-40967362D01*
X56822557Y-40971781D01*
G36*
X62705199Y-43863333D02*
G01*
X61248933Y-43863333D01*
X61248933Y-41001600D01*
X62705199Y-41001600D01*
X62705199Y-43863333D01*
G37*
X62705199Y-43863333D02*
X61248933Y-43863333D01*
X61248933Y-41001600D01*
X62705199Y-41001600D01*
X62705199Y-43863333D01*
G36*
X55745600Y-42136133D02*
G01*
X54932800Y-42136133D01*
X54932800Y-41577333D01*
X53713599Y-41577333D01*
X53713599Y-42237733D01*
X54695733Y-42237733D01*
X54695733Y-42830400D01*
X53696666Y-42830400D01*
X53696666Y-43270667D01*
X54052266Y-43270667D01*
X54052266Y-43846400D01*
X52358933Y-43846400D01*
X52358933Y-43270667D01*
X52680666Y-43270667D01*
X52680666Y-41577333D01*
X52358933Y-41577333D01*
X52358933Y-40967733D01*
X55745600Y-40967733D01*
X55745600Y-42136133D01*
G37*
X55745600Y-42136133D02*
X54932800Y-42136133D01*
X54932800Y-41577333D01*
X53713599Y-41577333D01*
X53713599Y-42237733D01*
X54695733Y-42237733D01*
X54695733Y-42830400D01*
X53696666Y-42830400D01*
X53696666Y-43270667D01*
X54052266Y-43270667D01*
X54052266Y-43846400D01*
X52358933Y-43846400D01*
X52358933Y-43270667D01*
X52680666Y-43270667D01*
X52680666Y-41577333D01*
X52358933Y-41577333D01*
X52358933Y-40967733D01*
X55745600Y-40967733D01*
X55745600Y-42136133D01*
G36*
X72999839Y-41400621D02*
G01*
X73025572Y-41510040D01*
X73049481Y-41606196D01*
X73070420Y-41684912D01*
X73087240Y-41742009D01*
X73098795Y-41773307D01*
X73103289Y-41777388D01*
X73110557Y-41755081D01*
X73124301Y-41704794D01*
X73143244Y-41631512D01*
X73166110Y-41540222D01*
X73191621Y-41435910D01*
X73205464Y-41378367D01*
X73295585Y-41001600D01*
X74572114Y-41001600D01*
X74547491Y-41107433D01*
X74539672Y-41140420D01*
X74524557Y-41203586D01*
X74502806Y-41294191D01*
X74475080Y-41409494D01*
X74442038Y-41546755D01*
X74404340Y-41703234D01*
X74362647Y-41876191D01*
X74317617Y-42062885D01*
X74269912Y-42260576D01*
X74220192Y-42466524D01*
X74205925Y-42525600D01*
X73888982Y-43837933D01*
X73089224Y-43842332D01*
X72928279Y-43843071D01*
X72778158Y-43843477D01*
X72642161Y-43843562D01*
X72523585Y-43843337D01*
X72425729Y-43842813D01*
X72351892Y-43842002D01*
X72305373Y-43840915D01*
X72289466Y-43839585D01*
X72285631Y-43822753D01*
X72274565Y-43775733D01*
X72256923Y-43701275D01*
X72233362Y-43602124D01*
X72204538Y-43481030D01*
X72171109Y-43340741D01*
X72133729Y-43184004D01*
X72093056Y-43013566D01*
X72049746Y-42832177D01*
X72004456Y-42642584D01*
X71957841Y-42447535D01*
X71910559Y-42249777D01*
X71863265Y-42052060D01*
X71816616Y-41857129D01*
X71771269Y-41667735D01*
X71727879Y-41486623D01*
X71687104Y-41316543D01*
X71649600Y-41160242D01*
X71620645Y-41039700D01*
X71611488Y-41001600D01*
X72908443Y-41001600D01*
X72999839Y-41400621D01*
G37*
X72999839Y-41400621D02*
X73025572Y-41510040D01*
X73049481Y-41606196D01*
X73070420Y-41684912D01*
X73087240Y-41742009D01*
X73098795Y-41773307D01*
X73103289Y-41777388D01*
X73110557Y-41755081D01*
X73124301Y-41704794D01*
X73143244Y-41631512D01*
X73166110Y-41540222D01*
X73191621Y-41435910D01*
X73205464Y-41378367D01*
X73295585Y-41001600D01*
X74572114Y-41001600D01*
X74547491Y-41107433D01*
X74539672Y-41140420D01*
X74524557Y-41203586D01*
X74502806Y-41294191D01*
X74475080Y-41409494D01*
X74442038Y-41546755D01*
X74404340Y-41703234D01*
X74362647Y-41876191D01*
X74317617Y-42062885D01*
X74269912Y-42260576D01*
X74220192Y-42466524D01*
X74205925Y-42525600D01*
X73888982Y-43837933D01*
X73089224Y-43842332D01*
X72928279Y-43843071D01*
X72778158Y-43843477D01*
X72642161Y-43843562D01*
X72523585Y-43843337D01*
X72425729Y-43842813D01*
X72351892Y-43842002D01*
X72305373Y-43840915D01*
X72289466Y-43839585D01*
X72285631Y-43822753D01*
X72274565Y-43775733D01*
X72256923Y-43701275D01*
X72233362Y-43602124D01*
X72204538Y-43481030D01*
X72171109Y-43340741D01*
X72133729Y-43184004D01*
X72093056Y-43013566D01*
X72049746Y-42832177D01*
X72004456Y-42642584D01*
X71957841Y-42447535D01*
X71910559Y-42249777D01*
X71863265Y-42052060D01*
X71816616Y-41857129D01*
X71771269Y-41667735D01*
X71727879Y-41486623D01*
X71687104Y-41316543D01*
X71649600Y-41160242D01*
X71620645Y-41039700D01*
X71611488Y-41001600D01*
X72908443Y-41001600D01*
X72999839Y-41400621D01*
G36*
X77849356Y-41048167D02*
G01*
X77843625Y-41071474D01*
X77830531Y-41125172D01*
X77810689Y-41206737D01*
X77784709Y-41313644D01*
X77753206Y-41443370D01*
X77716791Y-41593391D01*
X77676077Y-41761183D01*
X77631678Y-41944222D01*
X77584205Y-42139984D01*
X77534272Y-42345946D01*
X77505091Y-42466333D01*
X77172648Y-43837933D01*
X76398525Y-43842338D01*
X76208859Y-43843234D01*
X76050606Y-43843541D01*
X75921319Y-43843205D01*
X75818548Y-43842174D01*
X75739844Y-43840395D01*
X75682759Y-43837814D01*
X75644844Y-43834379D01*
X75623650Y-43830035D01*
X75616880Y-43825404D01*
X75611642Y-43805873D01*
X75599014Y-43756599D01*
X75579722Y-43680498D01*
X75554495Y-43580485D01*
X75524060Y-43459476D01*
X75489145Y-43320384D01*
X75450478Y-43166126D01*
X75408786Y-42999616D01*
X75364798Y-42823770D01*
X75319240Y-42641503D01*
X75272841Y-42455730D01*
X75226329Y-42269366D01*
X75180430Y-42085325D01*
X75135872Y-41906524D01*
X75093384Y-41735878D01*
X75053693Y-41576301D01*
X75017527Y-41430708D01*
X74985613Y-41302016D01*
X74958680Y-41193138D01*
X74937454Y-41106990D01*
X74922663Y-41046487D01*
X74915036Y-41014545D01*
X74914133Y-41010225D01*
X74930444Y-41008270D01*
X74976892Y-41006470D01*
X75049745Y-41004877D01*
X75145274Y-41003542D01*
X75259748Y-41002517D01*
X75389436Y-41001853D01*
X75530609Y-41001601D01*
X75539525Y-41001600D01*
X75701985Y-41001691D01*
X75833811Y-41002066D01*
X75938237Y-41002875D01*
X76018497Y-41004270D01*
X76077823Y-41006402D01*
X76119448Y-41009423D01*
X76146606Y-41013483D01*
X76162530Y-41018734D01*
X76170453Y-41025326D01*
X76173088Y-41031233D01*
X76179329Y-41055802D01*
X76192263Y-41108122D01*
X76210624Y-41183026D01*
X76233149Y-41275349D01*
X76258570Y-41379922D01*
X76270637Y-41429676D01*
X76296728Y-41534426D01*
X76320828Y-41625715D01*
X76341685Y-41699232D01*
X76358045Y-41750668D01*
X76368657Y-41775711D01*
X76371522Y-41776810D01*
X76378626Y-41754675D01*
X76392210Y-41704548D01*
X76411009Y-41631408D01*
X76433754Y-41540230D01*
X76459177Y-41435991D01*
X76473013Y-41378367D01*
X76562997Y-41001600D01*
X77861178Y-41001600D01*
X77849356Y-41048167D01*
G37*
X77849356Y-41048167D02*
X77843625Y-41071474D01*
X77830531Y-41125172D01*
X77810689Y-41206737D01*
X77784709Y-41313644D01*
X77753206Y-41443370D01*
X77716791Y-41593391D01*
X77676077Y-41761183D01*
X77631678Y-41944222D01*
X77584205Y-42139984D01*
X77534272Y-42345946D01*
X77505091Y-42466333D01*
X77172648Y-43837933D01*
X76398525Y-43842338D01*
X76208859Y-43843234D01*
X76050606Y-43843541D01*
X75921319Y-43843205D01*
X75818548Y-43842174D01*
X75739844Y-43840395D01*
X75682759Y-43837814D01*
X75644844Y-43834379D01*
X75623650Y-43830035D01*
X75616880Y-43825404D01*
X75611642Y-43805873D01*
X75599014Y-43756599D01*
X75579722Y-43680498D01*
X75554495Y-43580485D01*
X75524060Y-43459476D01*
X75489145Y-43320384D01*
X75450478Y-43166126D01*
X75408786Y-42999616D01*
X75364798Y-42823770D01*
X75319240Y-42641503D01*
X75272841Y-42455730D01*
X75226329Y-42269366D01*
X75180430Y-42085325D01*
X75135872Y-41906524D01*
X75093384Y-41735878D01*
X75053693Y-41576301D01*
X75017527Y-41430708D01*
X74985613Y-41302016D01*
X74958680Y-41193138D01*
X74937454Y-41106990D01*
X74922663Y-41046487D01*
X74915036Y-41014545D01*
X74914133Y-41010225D01*
X74930444Y-41008270D01*
X74976892Y-41006470D01*
X75049745Y-41004877D01*
X75145274Y-41003542D01*
X75259748Y-41002517D01*
X75389436Y-41001853D01*
X75530609Y-41001601D01*
X75539525Y-41001600D01*
X75701985Y-41001691D01*
X75833811Y-41002066D01*
X75938237Y-41002875D01*
X76018497Y-41004270D01*
X76077823Y-41006402D01*
X76119448Y-41009423D01*
X76146606Y-41013483D01*
X76162530Y-41018734D01*
X76170453Y-41025326D01*
X76173088Y-41031233D01*
X76179329Y-41055802D01*
X76192263Y-41108122D01*
X76210624Y-41183026D01*
X76233149Y-41275349D01*
X76258570Y-41379922D01*
X76270637Y-41429676D01*
X76296728Y-41534426D01*
X76320828Y-41625715D01*
X76341685Y-41699232D01*
X76358045Y-41750668D01*
X76368657Y-41775711D01*
X76371522Y-41776810D01*
X76378626Y-41754675D01*
X76392210Y-41704548D01*
X76411009Y-41631408D01*
X76433754Y-41540230D01*
X76459177Y-41435991D01*
X76473013Y-41378367D01*
X76562997Y-41001600D01*
X77861178Y-41001600D01*
X77849356Y-41048167D01*
G36*
X80536000Y-43846400D02*
G01*
X79215199Y-43846400D01*
X79215199Y-41001600D01*
X80536000Y-41001600D01*
X80536000Y-43846400D01*
G37*
X80536000Y-43846400D02*
X79215199Y-43846400D01*
X79215199Y-41001600D01*
X80536000Y-41001600D01*
X80536000Y-43846400D01*
G36*
X83382820Y-41648067D02*
G01*
X83455848Y-41828323D01*
X83518061Y-41979330D01*
X83570665Y-42103501D01*
X83614865Y-42203250D01*
X83651866Y-42280989D01*
X83682874Y-42339131D01*
X83709093Y-42380090D01*
X83731730Y-42406278D01*
X83751989Y-42420108D01*
X83770372Y-42424000D01*
X83778617Y-42423201D01*
X83785396Y-42418793D01*
X83790855Y-42407760D01*
X83795135Y-42387087D01*
X83798380Y-42353758D01*
X83800734Y-42304758D01*
X83802338Y-42237070D01*
X83803337Y-42147678D01*
X83803874Y-42033568D01*
X83804091Y-41891724D01*
X83804133Y-41719129D01*
X83804133Y-41001600D01*
X85074133Y-41001600D01*
X85074133Y-43846400D01*
X84189366Y-43844094D01*
X84018155Y-43843517D01*
X83856251Y-43842719D01*
X83706996Y-43841735D01*
X83573728Y-43840598D01*
X83459788Y-43839342D01*
X83368513Y-43838001D01*
X83303245Y-43836608D01*
X83267321Y-43835198D01*
X83262266Y-43834701D01*
X83169079Y-43811578D01*
X83073015Y-43775404D01*
X82991024Y-43732738D01*
X82979932Y-43725467D01*
X82898921Y-43658531D01*
X82828575Y-43573458D01*
X82763340Y-43463235D01*
X82748047Y-43432712D01*
X82733756Y-43400557D01*
X82708049Y-43339624D01*
X82672012Y-43252608D01*
X82626731Y-43142206D01*
X82573294Y-43011114D01*
X82512786Y-42862027D01*
X82446295Y-42697643D01*
X82374906Y-42520656D01*
X82299706Y-42333764D01*
X82221781Y-42139661D01*
X82142218Y-41941045D01*
X82062104Y-41740611D01*
X81982525Y-41541054D01*
X81904566Y-41345072D01*
X81829316Y-41155361D01*
X81776871Y-41022767D01*
X81781239Y-41017279D01*
X81800780Y-41012765D01*
X81838035Y-41009144D01*
X81895542Y-41006336D01*
X81975843Y-41004261D01*
X82081478Y-41002837D01*
X82214988Y-41001985D01*
X82378914Y-41001625D01*
X82445442Y-41001600D01*
X83122374Y-41001600D01*
X83382820Y-41648067D01*
G37*
X83382820Y-41648067D02*
X83455848Y-41828323D01*
X83518061Y-41979330D01*
X83570665Y-42103501D01*
X83614865Y-42203250D01*
X83651866Y-42280989D01*
X83682874Y-42339131D01*
X83709093Y-42380090D01*
X83731730Y-42406278D01*
X83751989Y-42420108D01*
X83770372Y-42424000D01*
X83778617Y-42423201D01*
X83785396Y-42418793D01*
X83790855Y-42407760D01*
X83795135Y-42387087D01*
X83798380Y-42353758D01*
X83800734Y-42304758D01*
X83802338Y-42237070D01*
X83803337Y-42147678D01*
X83803874Y-42033568D01*
X83804091Y-41891724D01*
X83804133Y-41719129D01*
X83804133Y-41001600D01*
X85074133Y-41001600D01*
X85074133Y-43846400D01*
X84189366Y-43844094D01*
X84018155Y-43843517D01*
X83856251Y-43842719D01*
X83706996Y-43841735D01*
X83573728Y-43840598D01*
X83459788Y-43839342D01*
X83368513Y-43838001D01*
X83303245Y-43836608D01*
X83267321Y-43835198D01*
X83262266Y-43834701D01*
X83169079Y-43811578D01*
X83073015Y-43775404D01*
X82991024Y-43732738D01*
X82979932Y-43725467D01*
X82898921Y-43658531D01*
X82828575Y-43573458D01*
X82763340Y-43463235D01*
X82748047Y-43432712D01*
X82733756Y-43400557D01*
X82708049Y-43339624D01*
X82672012Y-43252608D01*
X82626731Y-43142206D01*
X82573294Y-43011114D01*
X82512786Y-42862027D01*
X82446295Y-42697643D01*
X82374906Y-42520656D01*
X82299706Y-42333764D01*
X82221781Y-42139661D01*
X82142218Y-41941045D01*
X82062104Y-41740611D01*
X81982525Y-41541054D01*
X81904566Y-41345072D01*
X81829316Y-41155361D01*
X81776871Y-41022767D01*
X81781239Y-41017279D01*
X81800780Y-41012765D01*
X81838035Y-41009144D01*
X81895542Y-41006336D01*
X81975843Y-41004261D01*
X82081478Y-41002837D01*
X82214988Y-41001985D01*
X82378914Y-41001625D01*
X82445442Y-41001600D01*
X83122374Y-41001600D01*
X83382820Y-41648067D01*
G36*
X90519209Y-41005665D02*
G01*
X91310664Y-41010067D01*
X91334021Y-41077539D01*
X91376611Y-41230699D01*
X91407089Y-41403557D01*
X91424763Y-41585768D01*
X91428941Y-41766983D01*
X91418929Y-41936854D01*
X91399752Y-42059933D01*
X91327592Y-42324859D01*
X91227873Y-42575646D01*
X91102492Y-42810104D01*
X90953345Y-43026042D01*
X90782330Y-43221268D01*
X90591341Y-43393591D01*
X90382277Y-43540821D01*
X90157034Y-43660765D01*
X89942466Y-43743443D01*
X89894321Y-43758823D01*
X89850018Y-43772590D01*
X89807505Y-43784833D01*
X89764728Y-43795642D01*
X89719638Y-43805106D01*
X89670182Y-43813315D01*
X89614308Y-43820357D01*
X89549964Y-43826322D01*
X89475098Y-43831299D01*
X89387659Y-43835379D01*
X89285595Y-43838649D01*
X89166853Y-43841199D01*
X89029382Y-43843119D01*
X88871131Y-43844497D01*
X88690046Y-43845424D01*
X88484077Y-43845989D01*
X88251171Y-43846280D01*
X87989276Y-43846388D01*
X87696342Y-43846401D01*
X87577282Y-43846400D01*
X85683733Y-43846400D01*
X85683733Y-42542533D01*
X87483575Y-42542533D01*
X87776825Y-42542554D01*
X88038248Y-42542551D01*
X88269884Y-42542420D01*
X88473773Y-42542063D01*
X88651955Y-42541376D01*
X88806469Y-42540260D01*
X88939355Y-42538613D01*
X89052653Y-42536333D01*
X89148403Y-42533319D01*
X89228644Y-42529471D01*
X89295417Y-42524687D01*
X89350761Y-42518865D01*
X89396716Y-42511905D01*
X89435322Y-42503705D01*
X89468619Y-42494164D01*
X89498645Y-42483181D01*
X89527442Y-42470654D01*
X89557049Y-42456483D01*
X89589506Y-42440566D01*
X89595333Y-42437738D01*
X89680585Y-42386248D01*
X89771240Y-42314499D01*
X89858490Y-42230988D01*
X89933526Y-42144214D01*
X89987541Y-42062675D01*
X89991019Y-42055984D01*
X90052486Y-41899809D01*
X90080856Y-41741967D01*
X90076604Y-41585237D01*
X90040206Y-41432395D01*
X89972138Y-41286220D01*
X89872877Y-41149490D01*
X89827371Y-41100880D01*
X89727753Y-41001263D01*
X90519209Y-41005665D01*
G37*
X90519209Y-41005665D02*
X91310664Y-41010067D01*
X91334021Y-41077539D01*
X91376611Y-41230699D01*
X91407089Y-41403557D01*
X91424763Y-41585768D01*
X91428941Y-41766983D01*
X91418929Y-41936854D01*
X91399752Y-42059933D01*
X91327592Y-42324859D01*
X91227873Y-42575646D01*
X91102492Y-42810104D01*
X90953345Y-43026042D01*
X90782330Y-43221268D01*
X90591341Y-43393591D01*
X90382277Y-43540821D01*
X90157034Y-43660765D01*
X89942466Y-43743443D01*
X89894321Y-43758823D01*
X89850018Y-43772590D01*
X89807505Y-43784833D01*
X89764728Y-43795642D01*
X89719638Y-43805106D01*
X89670182Y-43813315D01*
X89614308Y-43820357D01*
X89549964Y-43826322D01*
X89475098Y-43831299D01*
X89387659Y-43835379D01*
X89285595Y-43838649D01*
X89166853Y-43841199D01*
X89029382Y-43843119D01*
X88871131Y-43844497D01*
X88690046Y-43845424D01*
X88484077Y-43845989D01*
X88251171Y-43846280D01*
X87989276Y-43846388D01*
X87696342Y-43846401D01*
X87577282Y-43846400D01*
X85683733Y-43846400D01*
X85683733Y-42542533D01*
X87483575Y-42542533D01*
X87776825Y-42542554D01*
X88038248Y-42542551D01*
X88269884Y-42542420D01*
X88473773Y-42542063D01*
X88651955Y-42541376D01*
X88806469Y-42540260D01*
X88939355Y-42538613D01*
X89052653Y-42536333D01*
X89148403Y-42533319D01*
X89228644Y-42529471D01*
X89295417Y-42524687D01*
X89350761Y-42518865D01*
X89396716Y-42511905D01*
X89435322Y-42503705D01*
X89468619Y-42494164D01*
X89498645Y-42483181D01*
X89527442Y-42470654D01*
X89557049Y-42456483D01*
X89589506Y-42440566D01*
X89595333Y-42437738D01*
X89680585Y-42386248D01*
X89771240Y-42314499D01*
X89858490Y-42230988D01*
X89933526Y-42144214D01*
X89987541Y-42062675D01*
X89991019Y-42055984D01*
X90052486Y-41899809D01*
X90080856Y-41741967D01*
X90076604Y-41585237D01*
X90040206Y-41432395D01*
X89972138Y-41286220D01*
X89872877Y-41149490D01*
X89827371Y-41100880D01*
X89727753Y-41001263D01*
X90519209Y-41005665D01*
G36*
X64754133Y-39172800D02*
G01*
X62705199Y-39172800D01*
X62705199Y-40832267D01*
X61248933Y-40832267D01*
X61248933Y-39172800D01*
X59216933Y-39172800D01*
X59216933Y-37936666D01*
X64754133Y-37936666D01*
X64754133Y-39172800D01*
G37*
X64754133Y-39172800D02*
X62705199Y-39172800D01*
X62705199Y-40832267D01*
X61248933Y-40832267D01*
X61248933Y-39172800D01*
X59216933Y-39172800D01*
X59216933Y-37936666D01*
X64754133Y-37936666D01*
X64754133Y-39172800D01*
G36*
X67946066Y-37735755D02*
G01*
X68260069Y-37769026D01*
X68566788Y-37834321D01*
X68864067Y-37930187D01*
X69149747Y-38055173D01*
X69421671Y-38207824D01*
X69677682Y-38386690D01*
X69915623Y-38590316D01*
X70133336Y-38817252D01*
X70328664Y-39066044D01*
X70499450Y-39335239D01*
X70596019Y-39519933D01*
X70705838Y-39773216D01*
X70791229Y-40028457D01*
X70854307Y-40293629D01*
X70897188Y-40576700D01*
X70909530Y-40701033D01*
X70920756Y-40832267D01*
X69598601Y-40832267D01*
X69590210Y-40777233D01*
X69583231Y-40726677D01*
X69575333Y-40662778D01*
X69572184Y-40635250D01*
X69547259Y-40493906D01*
X69504009Y-40339793D01*
X69446281Y-40185740D01*
X69419323Y-40125578D01*
X69297542Y-39905403D01*
X69151051Y-39706189D01*
X68982177Y-39529768D01*
X68793250Y-39377969D01*
X68586598Y-39252624D01*
X68364552Y-39155562D01*
X68129439Y-39088614D01*
X68089815Y-39080639D01*
X67977085Y-39065388D01*
X67843803Y-39056974D01*
X67702149Y-39055411D01*
X67564304Y-39060713D01*
X67442446Y-39072892D01*
X67399972Y-39079870D01*
X67160282Y-39141974D01*
X66934896Y-39233403D01*
X66725867Y-39351921D01*
X66535250Y-39495289D01*
X66365098Y-39661270D01*
X66217466Y-39847625D01*
X66094408Y-40052118D01*
X65997978Y-40272510D01*
X65930229Y-40506563D01*
X65896379Y-40717966D01*
X65884721Y-40832267D01*
X64562867Y-40832267D01*
X64574145Y-40671832D01*
X64613150Y-40354022D01*
X64684032Y-40044165D01*
X64785298Y-39744445D01*
X64915453Y-39457043D01*
X65073005Y-39184141D01*
X65256458Y-38927922D01*
X65464319Y-38690567D01*
X65695095Y-38474260D01*
X65947291Y-38281183D01*
X66219413Y-38113517D01*
X66382368Y-38030390D01*
X66678837Y-37908661D01*
X66987484Y-37818318D01*
X67307306Y-37759549D01*
X67637300Y-37732542D01*
X67946066Y-37735755D01*
G37*
X67946066Y-37735755D02*
X68260069Y-37769026D01*
X68566788Y-37834321D01*
X68864067Y-37930187D01*
X69149747Y-38055173D01*
X69421671Y-38207824D01*
X69677682Y-38386690D01*
X69915623Y-38590316D01*
X70133336Y-38817252D01*
X70328664Y-39066044D01*
X70499450Y-39335239D01*
X70596019Y-39519933D01*
X70705838Y-39773216D01*
X70791229Y-40028457D01*
X70854307Y-40293629D01*
X70897188Y-40576700D01*
X70909530Y-40701033D01*
X70920756Y-40832267D01*
X69598601Y-40832267D01*
X69590210Y-40777233D01*
X69583231Y-40726677D01*
X69575333Y-40662778D01*
X69572184Y-40635250D01*
X69547259Y-40493906D01*
X69504009Y-40339793D01*
X69446281Y-40185740D01*
X69419323Y-40125578D01*
X69297542Y-39905403D01*
X69151051Y-39706189D01*
X68982177Y-39529768D01*
X68793250Y-39377969D01*
X68586598Y-39252624D01*
X68364552Y-39155562D01*
X68129439Y-39088614D01*
X68089815Y-39080639D01*
X67977085Y-39065388D01*
X67843803Y-39056974D01*
X67702149Y-39055411D01*
X67564304Y-39060713D01*
X67442446Y-39072892D01*
X67399972Y-39079870D01*
X67160282Y-39141974D01*
X66934896Y-39233403D01*
X66725867Y-39351921D01*
X66535250Y-39495289D01*
X66365098Y-39661270D01*
X66217466Y-39847625D01*
X66094408Y-40052118D01*
X65997978Y-40272510D01*
X65930229Y-40506563D01*
X65896379Y-40717966D01*
X65884721Y-40832267D01*
X64562867Y-40832267D01*
X64574145Y-40671832D01*
X64613150Y-40354022D01*
X64684032Y-40044165D01*
X64785298Y-39744445D01*
X64915453Y-39457043D01*
X65073005Y-39184141D01*
X65256458Y-38927922D01*
X65464319Y-38690567D01*
X65695095Y-38474260D01*
X65947291Y-38281183D01*
X66219413Y-38113517D01*
X66382368Y-38030390D01*
X66678837Y-37908661D01*
X66987484Y-37818318D01*
X67307306Y-37759549D01*
X67637300Y-37732542D01*
X67946066Y-37735755D01*
G36*
X71688455Y-37953796D02*
G01*
X71823334Y-37954357D01*
X71943438Y-37955239D01*
X72045142Y-37956397D01*
X72124821Y-37957788D01*
X72178850Y-37959369D01*
X72203605Y-37961096D01*
X72204800Y-37961576D01*
X72208509Y-37978574D01*
X72219189Y-38025646D01*
X72236164Y-38099875D01*
X72258760Y-38198344D01*
X72286304Y-38318135D01*
X72318121Y-38456330D01*
X72353537Y-38610011D01*
X72391877Y-38776260D01*
X72432468Y-38952160D01*
X72474635Y-39134793D01*
X72517704Y-39321242D01*
X72561001Y-39508588D01*
X72603851Y-39693913D01*
X72645581Y-39874301D01*
X72685517Y-40046833D01*
X72722983Y-40208592D01*
X72757306Y-40356659D01*
X72787812Y-40488117D01*
X72813827Y-40600048D01*
X72834675Y-40689535D01*
X72849684Y-40753660D01*
X72858179Y-40789505D01*
X72859320Y-40794167D01*
X72868871Y-40832267D01*
X72219335Y-40832265D01*
X71569800Y-40832263D01*
X71232205Y-39422565D01*
X71181159Y-39209424D01*
X71132292Y-39005392D01*
X71086188Y-38812918D01*
X71043436Y-38634451D01*
X71004622Y-38472444D01*
X70970334Y-38329345D01*
X70941158Y-38207604D01*
X70917682Y-38109673D01*
X70900492Y-38038001D01*
X70890177Y-37995037D01*
X70887330Y-37983233D01*
X70887171Y-37975747D01*
X70892781Y-37969635D01*
X70907225Y-37964760D01*
X70933571Y-37960983D01*
X70974887Y-37958165D01*
X71034241Y-37956167D01*
X71114699Y-37954850D01*
X71219329Y-37954076D01*
X71351199Y-37953706D01*
X71513375Y-37953601D01*
X71542425Y-37953600D01*
X71688455Y-37953796D01*
G37*
X71688455Y-37953796D02*
X71823334Y-37954357D01*
X71943438Y-37955239D01*
X72045142Y-37956397D01*
X72124821Y-37957788D01*
X72178850Y-37959369D01*
X72203605Y-37961096D01*
X72204800Y-37961576D01*
X72208509Y-37978574D01*
X72219189Y-38025646D01*
X72236164Y-38099875D01*
X72258760Y-38198344D01*
X72286304Y-38318135D01*
X72318121Y-38456330D01*
X72353537Y-38610011D01*
X72391877Y-38776260D01*
X72432468Y-38952160D01*
X72474635Y-39134793D01*
X72517704Y-39321242D01*
X72561001Y-39508588D01*
X72603851Y-39693913D01*
X72645581Y-39874301D01*
X72685517Y-40046833D01*
X72722983Y-40208592D01*
X72757306Y-40356659D01*
X72787812Y-40488117D01*
X72813827Y-40600048D01*
X72834675Y-40689535D01*
X72849684Y-40753660D01*
X72858179Y-40789505D01*
X72859320Y-40794167D01*
X72868871Y-40832267D01*
X72219335Y-40832265D01*
X71569800Y-40832263D01*
X71232205Y-39422565D01*
X71181159Y-39209424D01*
X71132292Y-39005392D01*
X71086188Y-38812918D01*
X71043436Y-38634451D01*
X71004622Y-38472444D01*
X70970334Y-38329345D01*
X70941158Y-38207604D01*
X70917682Y-38109673D01*
X70900492Y-38038001D01*
X70890177Y-37995037D01*
X70887330Y-37983233D01*
X70887171Y-37975747D01*
X70892781Y-37969635D01*
X70907225Y-37964760D01*
X70933571Y-37960983D01*
X70974887Y-37958165D01*
X71034241Y-37956167D01*
X71114699Y-37954850D01*
X71219329Y-37954076D01*
X71351199Y-37953706D01*
X71513375Y-37953601D01*
X71542425Y-37953600D01*
X71688455Y-37953796D01*
G36*
X75438194Y-38018093D02*
G01*
X75446967Y-38052276D01*
X75462583Y-38114884D01*
X75484332Y-38202982D01*
X75511502Y-38313634D01*
X75543380Y-38443905D01*
X75579257Y-38590860D01*
X75618419Y-38751563D01*
X75660156Y-38923080D01*
X75703756Y-39102475D01*
X75748507Y-39286813D01*
X75793699Y-39473158D01*
X75838619Y-39658576D01*
X75882556Y-39840131D01*
X75924798Y-40014887D01*
X75964635Y-40179911D01*
X76001354Y-40332265D01*
X76034243Y-40469016D01*
X76062593Y-40587227D01*
X76085690Y-40683964D01*
X76102823Y-40756291D01*
X76113282Y-40801273D01*
X76116399Y-40815938D01*
X76099767Y-40820376D01*
X76051065Y-40824183D01*
X75972083Y-40827314D01*
X75864614Y-40829721D01*
X75730448Y-40831358D01*
X75571377Y-40832177D01*
X75491834Y-40832267D01*
X74867268Y-40832267D01*
X74812148Y-40607900D01*
X74790983Y-40523650D01*
X74771653Y-40450176D01*
X74756023Y-40394325D01*
X74745957Y-40362940D01*
X74744586Y-40359828D01*
X74736325Y-40366160D01*
X74722447Y-40401902D01*
X74704147Y-40463290D01*
X74682622Y-40546560D01*
X74674599Y-40579961D01*
X74617052Y-40823800D01*
X73978192Y-40828237D01*
X73834870Y-40829081D01*
X73702763Y-40829568D01*
X73585564Y-40829705D01*
X73486962Y-40829503D01*
X73410648Y-40828968D01*
X73360314Y-40828110D01*
X73339648Y-40826938D01*
X73339333Y-40826753D01*
X73343202Y-40809643D01*
X73354340Y-40762539D01*
X73372040Y-40688363D01*
X73395597Y-40590036D01*
X73424306Y-40470480D01*
X73457462Y-40332616D01*
X73494358Y-40179366D01*
X73534289Y-40013650D01*
X73576550Y-39838390D01*
X73620434Y-39656508D01*
X73665238Y-39470924D01*
X73710255Y-39284560D01*
X73754779Y-39100337D01*
X73798106Y-38921177D01*
X73839529Y-38750001D01*
X73878343Y-38589730D01*
X73913843Y-38443285D01*
X73945322Y-38313589D01*
X73972077Y-38203562D01*
X73993400Y-38116125D01*
X74008587Y-38054200D01*
X74016933Y-38020709D01*
X74017873Y-38017100D01*
X74034905Y-37953600D01*
X75420827Y-37953600D01*
X75438194Y-38018093D01*
G37*
X75438194Y-38018093D02*
X75446967Y-38052276D01*
X75462583Y-38114884D01*
X75484332Y-38202982D01*
X75511502Y-38313634D01*
X75543380Y-38443905D01*
X75579257Y-38590860D01*
X75618419Y-38751563D01*
X75660156Y-38923080D01*
X75703756Y-39102475D01*
X75748507Y-39286813D01*
X75793699Y-39473158D01*
X75838619Y-39658576D01*
X75882556Y-39840131D01*
X75924798Y-40014887D01*
X75964635Y-40179911D01*
X76001354Y-40332265D01*
X76034243Y-40469016D01*
X76062593Y-40587227D01*
X76085690Y-40683964D01*
X76102823Y-40756291D01*
X76113282Y-40801273D01*
X76116399Y-40815938D01*
X76099767Y-40820376D01*
X76051065Y-40824183D01*
X75972083Y-40827314D01*
X75864614Y-40829721D01*
X75730448Y-40831358D01*
X75571377Y-40832177D01*
X75491834Y-40832267D01*
X74867268Y-40832267D01*
X74812148Y-40607900D01*
X74790983Y-40523650D01*
X74771653Y-40450176D01*
X74756023Y-40394325D01*
X74745957Y-40362940D01*
X74744586Y-40359828D01*
X74736325Y-40366160D01*
X74722447Y-40401902D01*
X74704147Y-40463290D01*
X74682622Y-40546560D01*
X74674599Y-40579961D01*
X74617052Y-40823800D01*
X73978192Y-40828237D01*
X73834870Y-40829081D01*
X73702763Y-40829568D01*
X73585564Y-40829705D01*
X73486962Y-40829503D01*
X73410648Y-40828968D01*
X73360314Y-40828110D01*
X73339648Y-40826938D01*
X73339333Y-40826753D01*
X73343202Y-40809643D01*
X73354340Y-40762539D01*
X73372040Y-40688363D01*
X73395597Y-40590036D01*
X73424306Y-40470480D01*
X73457462Y-40332616D01*
X73494358Y-40179366D01*
X73534289Y-40013650D01*
X73576550Y-39838390D01*
X73620434Y-39656508D01*
X73665238Y-39470924D01*
X73710255Y-39284560D01*
X73754779Y-39100337D01*
X73798106Y-38921177D01*
X73839529Y-38750001D01*
X73878343Y-38589730D01*
X73913843Y-38443285D01*
X73945322Y-38313589D01*
X73972077Y-38203562D01*
X73993400Y-38116125D01*
X74008587Y-38054200D01*
X74016933Y-38020709D01*
X74017873Y-38017100D01*
X74034905Y-37953600D01*
X75420827Y-37953600D01*
X75438194Y-38018093D01*
G36*
X78084783Y-37953920D02*
G01*
X78218111Y-37954831D01*
X78336621Y-37956263D01*
X78436642Y-37958143D01*
X78514503Y-37960399D01*
X78566531Y-37962960D01*
X78589056Y-37965754D01*
X78589697Y-37966300D01*
X78585971Y-37984299D01*
X78574857Y-38032821D01*
X78556927Y-38109472D01*
X78532750Y-38211855D01*
X78502899Y-38337575D01*
X78467942Y-38484238D01*
X78428452Y-38649448D01*
X78384999Y-38830810D01*
X78338153Y-39025928D01*
X78288486Y-39232408D01*
X78246797Y-39405434D01*
X77902866Y-40831867D01*
X77253191Y-40832067D01*
X77087634Y-40832041D01*
X76952848Y-40831756D01*
X76845737Y-40831071D01*
X76763207Y-40829844D01*
X76702160Y-40827932D01*
X76659503Y-40825194D01*
X76632139Y-40821489D01*
X76616973Y-40816673D01*
X76610910Y-40810606D01*
X76610854Y-40803146D01*
X76610978Y-40802633D01*
X76615962Y-40782012D01*
X76628227Y-40730902D01*
X76647186Y-40651752D01*
X76672254Y-40547014D01*
X76702845Y-40419139D01*
X76738372Y-40270577D01*
X76778250Y-40103778D01*
X76821892Y-39921194D01*
X76868713Y-39725275D01*
X76918125Y-39518472D01*
X76955196Y-39363300D01*
X77291952Y-37953600D01*
X77940309Y-37953600D01*
X78084783Y-37953920D01*
G37*
X78084783Y-37953920D02*
X78218111Y-37954831D01*
X78336621Y-37956263D01*
X78436642Y-37958143D01*
X78514503Y-37960399D01*
X78566531Y-37962960D01*
X78589056Y-37965754D01*
X78589697Y-37966300D01*
X78585971Y-37984299D01*
X78574857Y-38032821D01*
X78556927Y-38109472D01*
X78532750Y-38211855D01*
X78502899Y-38337575D01*
X78467942Y-38484238D01*
X78428452Y-38649448D01*
X78384999Y-38830810D01*
X78338153Y-39025928D01*
X78288486Y-39232408D01*
X78246797Y-39405434D01*
X77902866Y-40831867D01*
X77253191Y-40832067D01*
X77087634Y-40832041D01*
X76952848Y-40831756D01*
X76845737Y-40831071D01*
X76763207Y-40829844D01*
X76702160Y-40827932D01*
X76659503Y-40825194D01*
X76632139Y-40821489D01*
X76616973Y-40816673D01*
X76610910Y-40810606D01*
X76610854Y-40803146D01*
X76610978Y-40802633D01*
X76615962Y-40782012D01*
X76628227Y-40730902D01*
X76647186Y-40651752D01*
X76672254Y-40547014D01*
X76702845Y-40419139D01*
X76738372Y-40270577D01*
X76778250Y-40103778D01*
X76821892Y-39921194D01*
X76868713Y-39725275D01*
X76918125Y-39518472D01*
X76955196Y-39363300D01*
X77291952Y-37953600D01*
X77940309Y-37953600D01*
X78084783Y-37953920D01*
G36*
X80438633Y-37957302D02*
G01*
X80671431Y-37958221D01*
X80872839Y-37959091D01*
X81045332Y-37959991D01*
X81191387Y-37961000D01*
X81313480Y-37962200D01*
X81414086Y-37963670D01*
X81495682Y-37965491D01*
X81560743Y-37967741D01*
X81611746Y-37970501D01*
X81651166Y-37973850D01*
X81681479Y-37977870D01*
X81705163Y-37982640D01*
X81724691Y-37988239D01*
X81742542Y-37994749D01*
X81755200Y-37999823D01*
X81872984Y-38062513D01*
X81966375Y-38144132D01*
X82016473Y-38213080D01*
X82033381Y-38247507D01*
X82060196Y-38308695D01*
X82094888Y-38391710D01*
X82135430Y-38491619D01*
X82179792Y-38603487D01*
X82225947Y-38722382D01*
X82226594Y-38724066D01*
X82260301Y-38811438D01*
X82302049Y-38918946D01*
X82350599Y-39043453D01*
X82404714Y-39181820D01*
X82463154Y-39330912D01*
X82524682Y-39487590D01*
X82588059Y-39648717D01*
X82652048Y-39811155D01*
X82715410Y-39971767D01*
X82776907Y-40127415D01*
X82835301Y-40274962D01*
X82889354Y-40411271D01*
X82937827Y-40533204D01*
X82979483Y-40637623D01*
X83013082Y-40721391D01*
X83037388Y-40781370D01*
X83051161Y-40814423D01*
X83053641Y-40819760D01*
X83039010Y-40822455D01*
X82994035Y-40824745D01*
X82922238Y-40826584D01*
X82827142Y-40827928D01*
X82712266Y-40828734D01*
X82581134Y-40828956D01*
X82437265Y-40828551D01*
X82380462Y-40828226D01*
X81699621Y-40823800D01*
X81098821Y-39299800D01*
X80544466Y-39299800D01*
X80540060Y-40066033D01*
X80535654Y-40832267D01*
X79215199Y-40832267D01*
X79215199Y-37952537D01*
X80438633Y-37957302D01*
G37*
X80438633Y-37957302D02*
X80671431Y-37958221D01*
X80872839Y-37959091D01*
X81045332Y-37959991D01*
X81191387Y-37961000D01*
X81313480Y-37962200D01*
X81414086Y-37963670D01*
X81495682Y-37965491D01*
X81560743Y-37967741D01*
X81611746Y-37970501D01*
X81651166Y-37973850D01*
X81681479Y-37977870D01*
X81705163Y-37982640D01*
X81724691Y-37988239D01*
X81742542Y-37994749D01*
X81755200Y-37999823D01*
X81872984Y-38062513D01*
X81966375Y-38144132D01*
X82016473Y-38213080D01*
X82033381Y-38247507D01*
X82060196Y-38308695D01*
X82094888Y-38391710D01*
X82135430Y-38491619D01*
X82179792Y-38603487D01*
X82225947Y-38722382D01*
X82226594Y-38724066D01*
X82260301Y-38811438D01*
X82302049Y-38918946D01*
X82350599Y-39043453D01*
X82404714Y-39181820D01*
X82463154Y-39330912D01*
X82524682Y-39487590D01*
X82588059Y-39648717D01*
X82652048Y-39811155D01*
X82715410Y-39971767D01*
X82776907Y-40127415D01*
X82835301Y-40274962D01*
X82889354Y-40411271D01*
X82937827Y-40533204D01*
X82979483Y-40637623D01*
X83013082Y-40721391D01*
X83037388Y-40781370D01*
X83051161Y-40814423D01*
X83053641Y-40819760D01*
X83039010Y-40822455D01*
X82994035Y-40824745D01*
X82922238Y-40826584D01*
X82827142Y-40827928D01*
X82712266Y-40828734D01*
X82581134Y-40828956D01*
X82437265Y-40828551D01*
X82380462Y-40828226D01*
X81699621Y-40823800D01*
X81098821Y-39299800D01*
X80544466Y-39299800D01*
X80540060Y-40066033D01*
X80535654Y-40832267D01*
X79215199Y-40832267D01*
X79215199Y-37952537D01*
X80438633Y-37957302D01*
G36*
X85074133Y-40832267D02*
G01*
X83804133Y-40832267D01*
X83804133Y-37953600D01*
X85074133Y-37953600D01*
X85074133Y-40832267D01*
G37*
X85074133Y-40832267D02*
X83804133Y-40832267D01*
X83804133Y-37953600D01*
X85074133Y-37953600D01*
X85074133Y-40832267D01*
G36*
X88896065Y-37953598D02*
G01*
X88985019Y-37953600D01*
X91017733Y-37953600D01*
X91017733Y-39223600D01*
X89066166Y-39223663D01*
X88767716Y-39223685D01*
X88501261Y-39223752D01*
X88264928Y-39223893D01*
X88056846Y-39224141D01*
X87875142Y-39224525D01*
X87717945Y-39225077D01*
X87583382Y-39225827D01*
X87469581Y-39226807D01*
X87374671Y-39228048D01*
X87296779Y-39229579D01*
X87234034Y-39231432D01*
X87184562Y-39233638D01*
X87146493Y-39236228D01*
X87117954Y-39239232D01*
X87097073Y-39242682D01*
X87081978Y-39246608D01*
X87070797Y-39251041D01*
X87061658Y-39256012D01*
X87060489Y-39256720D01*
X87012474Y-39301902D01*
X86982667Y-39361790D01*
X86974781Y-39425111D01*
X86988755Y-39474425D01*
X87019929Y-39512178D01*
X87064646Y-39548131D01*
X87072440Y-39552952D01*
X87084078Y-39559354D01*
X87097273Y-39564938D01*
X87114346Y-39569778D01*
X87137620Y-39573949D01*
X87169419Y-39577523D01*
X87212065Y-39580577D01*
X87267881Y-39583182D01*
X87339189Y-39585414D01*
X87428313Y-39587345D01*
X87537575Y-39589051D01*
X87669298Y-39590605D01*
X87825804Y-39592081D01*
X88009418Y-39593553D01*
X88222461Y-39595095D01*
X88443866Y-39596621D01*
X89756200Y-39605575D01*
X89919079Y-39650116D01*
X90158485Y-39732835D01*
X90382946Y-39845506D01*
X90591091Y-39987051D01*
X90781551Y-40156394D01*
X90952955Y-40352460D01*
X91103931Y-40574172D01*
X91111074Y-40586174D01*
X91149197Y-40652652D01*
X91183291Y-40715624D01*
X91207381Y-40763954D01*
X91211522Y-40773352D01*
X91236138Y-40832267D01*
X89090702Y-40830626D01*
X88761972Y-40830310D01*
X88465466Y-40829876D01*
X88199538Y-40829308D01*
X87962546Y-40828588D01*
X87752846Y-40827698D01*
X87568794Y-40826621D01*
X87408747Y-40825340D01*
X87271061Y-40823836D01*
X87154093Y-40822092D01*
X87056198Y-40820090D01*
X86975733Y-40817814D01*
X86911054Y-40815245D01*
X86860519Y-40812366D01*
X86822482Y-40809159D01*
X86798547Y-40806131D01*
X86586803Y-40760646D01*
X86398871Y-40693191D01*
X86231579Y-40602258D01*
X86081749Y-40486336D01*
X86037498Y-40444239D01*
X85933421Y-40325809D01*
X85850206Y-40196886D01*
X85785629Y-40052339D01*
X85737467Y-39887035D01*
X85703495Y-39695842D01*
X85699394Y-39663866D01*
X85687076Y-39442918D01*
X85703419Y-39226331D01*
X85746759Y-39017205D01*
X85815427Y-38818636D01*
X85907756Y-38633724D01*
X86022080Y-38465567D01*
X86156732Y-38317263D01*
X86310044Y-38191911D01*
X86480350Y-38092608D01*
X86564266Y-38056402D01*
X86602777Y-38041430D01*
X86637913Y-38027986D01*
X86671607Y-38015986D01*
X86705789Y-38005350D01*
X86742394Y-37995995D01*
X86783353Y-37987839D01*
X86830598Y-37980800D01*
X86886063Y-37974796D01*
X86951678Y-37969744D01*
X87029377Y-37965564D01*
X87121092Y-37962172D01*
X87228754Y-37959487D01*
X87354297Y-37957426D01*
X87499653Y-37955908D01*
X87666754Y-37954850D01*
X87857532Y-37954171D01*
X88073920Y-37953789D01*
X88317850Y-37953620D01*
X88591254Y-37953584D01*
X88896065Y-37953598D01*
G37*
X88896065Y-37953598D02*
X88985019Y-37953600D01*
X91017733Y-37953600D01*
X91017733Y-39223600D01*
X89066166Y-39223663D01*
X88767716Y-39223685D01*
X88501261Y-39223752D01*
X88264928Y-39223893D01*
X88056846Y-39224141D01*
X87875142Y-39224525D01*
X87717945Y-39225077D01*
X87583382Y-39225827D01*
X87469581Y-39226807D01*
X87374671Y-39228048D01*
X87296779Y-39229579D01*
X87234034Y-39231432D01*
X87184562Y-39233638D01*
X87146493Y-39236228D01*
X87117954Y-39239232D01*
X87097073Y-39242682D01*
X87081978Y-39246608D01*
X87070797Y-39251041D01*
X87061658Y-39256012D01*
X87060489Y-39256720D01*
X87012474Y-39301902D01*
X86982667Y-39361790D01*
X86974781Y-39425111D01*
X86988755Y-39474425D01*
X87019929Y-39512178D01*
X87064646Y-39548131D01*
X87072440Y-39552952D01*
X87084078Y-39559354D01*
X87097273Y-39564938D01*
X87114346Y-39569778D01*
X87137620Y-39573949D01*
X87169419Y-39577523D01*
X87212065Y-39580577D01*
X87267881Y-39583182D01*
X87339189Y-39585414D01*
X87428313Y-39587345D01*
X87537575Y-39589051D01*
X87669298Y-39590605D01*
X87825804Y-39592081D01*
X88009418Y-39593553D01*
X88222461Y-39595095D01*
X88443866Y-39596621D01*
X89756200Y-39605575D01*
X89919079Y-39650116D01*
X90158485Y-39732835D01*
X90382946Y-39845506D01*
X90591091Y-39987051D01*
X90781551Y-40156394D01*
X90952955Y-40352460D01*
X91103931Y-40574172D01*
X91111074Y-40586174D01*
X91149197Y-40652652D01*
X91183291Y-40715624D01*
X91207381Y-40763954D01*
X91211522Y-40773352D01*
X91236138Y-40832267D01*
X89090702Y-40830626D01*
X88761972Y-40830310D01*
X88465466Y-40829876D01*
X88199538Y-40829308D01*
X87962546Y-40828588D01*
X87752846Y-40827698D01*
X87568794Y-40826621D01*
X87408747Y-40825340D01*
X87271061Y-40823836D01*
X87154093Y-40822092D01*
X87056198Y-40820090D01*
X86975733Y-40817814D01*
X86911054Y-40815245D01*
X86860519Y-40812366D01*
X86822482Y-40809159D01*
X86798547Y-40806131D01*
X86586803Y-40760646D01*
X86398871Y-40693191D01*
X86231579Y-40602258D01*
X86081749Y-40486336D01*
X86037498Y-40444239D01*
X85933421Y-40325809D01*
X85850206Y-40196886D01*
X85785629Y-40052339D01*
X85737467Y-39887035D01*
X85703495Y-39695842D01*
X85699394Y-39663866D01*
X85687076Y-39442918D01*
X85703419Y-39226331D01*
X85746759Y-39017205D01*
X85815427Y-38818636D01*
X85907756Y-38633724D01*
X86022080Y-38465567D01*
X86156732Y-38317263D01*
X86310044Y-38191911D01*
X86480350Y-38092608D01*
X86564266Y-38056402D01*
X86602777Y-38041430D01*
X86637913Y-38027986D01*
X86671607Y-38015986D01*
X86705789Y-38005350D01*
X86742394Y-37995995D01*
X86783353Y-37987839D01*
X86830598Y-37980800D01*
X86886063Y-37974796D01*
X86951678Y-37969744D01*
X87029377Y-37965564D01*
X87121092Y-37962172D01*
X87228754Y-37959487D01*
X87354297Y-37957426D01*
X87499653Y-37955908D01*
X87666754Y-37954850D01*
X87857532Y-37954171D01*
X88073920Y-37953789D01*
X88317850Y-37953620D01*
X88591254Y-37953584D01*
X88896065Y-37953598D01*
D13*
%TO.C,J2*%
X34076000Y-68752000D02*
X40376000Y-68752000D01*
X34076000Y-128352000D02*
X34076000Y-68752000D01*
X40376000Y-128352000D02*
X34076000Y-128352000D01*
X40376000Y-68752000D02*
X40376000Y-128352000D01*
X49276000Y-135342000D02*
X49276000Y-135342000D01*
X49276000Y-126382000D02*
X49276000Y-135342000D01*
X49276000Y-126382000D02*
X49276000Y-126382000D01*
X49276000Y-135342000D02*
X49276000Y-126382000D01*
X49276000Y-135342000D02*
X40376000Y-135342000D01*
X49276000Y-135342000D02*
X49276000Y-135342000D01*
X40376000Y-135342000D02*
X49276000Y-135342000D01*
X40376000Y-135342000D02*
X40376000Y-135342000D01*
X40376000Y-61762000D02*
X40376000Y-61762000D01*
X40376000Y-135342000D02*
X40376000Y-61762000D01*
X40376000Y-135342000D02*
X40376000Y-135342000D01*
X40376000Y-61762000D02*
X40376000Y-135342000D01*
X40376000Y-61762000D02*
X49276000Y-61762000D01*
X40376000Y-61762000D02*
X40376000Y-61762000D01*
X49276000Y-61762000D02*
X40376000Y-61762000D01*
X49276000Y-61762000D02*
X49276000Y-61762000D01*
X49276000Y-70632000D02*
X49276000Y-70632000D01*
X49276000Y-61762000D02*
X49276000Y-70632000D01*
X49276000Y-61762000D02*
X49276000Y-61762000D01*
X49276000Y-70632000D02*
X49276000Y-61762000D01*
%TO.C,NOCTUA_FAN*%
D10*
X98122380Y-38554761D02*
X97122380Y-38554761D01*
X98122380Y-37983333D01*
X97122380Y-37983333D01*
X97122380Y-37316666D02*
X97122380Y-37126190D01*
X97170000Y-37030952D01*
X97265238Y-36935714D01*
X97455714Y-36888095D01*
X97789047Y-36888095D01*
X97979523Y-36935714D01*
X98074761Y-37030952D01*
X98122380Y-37126190D01*
X98122380Y-37316666D01*
X98074761Y-37411904D01*
X97979523Y-37507142D01*
X97789047Y-37554761D01*
X97455714Y-37554761D01*
X97265238Y-37507142D01*
X97170000Y-37411904D01*
X97122380Y-37316666D01*
X98027142Y-35888095D02*
X98074761Y-35935714D01*
X98122380Y-36078571D01*
X98122380Y-36173809D01*
X98074761Y-36316666D01*
X97979523Y-36411904D01*
X97884285Y-36459523D01*
X97693809Y-36507142D01*
X97550952Y-36507142D01*
X97360476Y-36459523D01*
X97265238Y-36411904D01*
X97170000Y-36316666D01*
X97122380Y-36173809D01*
X97122380Y-36078571D01*
X97170000Y-35935714D01*
X97217619Y-35888095D01*
X97122380Y-35602380D02*
X97122380Y-35030952D01*
X98122380Y-35316666D02*
X97122380Y-35316666D01*
X97122380Y-34697619D02*
X97931904Y-34697619D01*
X98027142Y-34650000D01*
X98074761Y-34602380D01*
X98122380Y-34507142D01*
X98122380Y-34316666D01*
X98074761Y-34221428D01*
X98027142Y-34173809D01*
X97931904Y-34126190D01*
X97122380Y-34126190D01*
X97836666Y-33697619D02*
X97836666Y-33221428D01*
X98122380Y-33792857D02*
X97122380Y-33459523D01*
X98122380Y-33126190D01*
X98217619Y-33030952D02*
X98217619Y-32269047D01*
X97598571Y-31697619D02*
X97598571Y-32030952D01*
X98122380Y-32030952D02*
X97122380Y-32030952D01*
X97122380Y-31554761D01*
X97836666Y-31221428D02*
X97836666Y-30745238D01*
X98122380Y-31316666D02*
X97122380Y-30983333D01*
X98122380Y-30650000D01*
X98122380Y-30316666D02*
X97122380Y-30316666D01*
X98122380Y-29745238D01*
X97122380Y-29745238D01*
%TO.C,STOCK_FAN*%
X97604761Y-53382380D02*
X97652380Y-53239523D01*
X97652380Y-53001428D01*
X97604761Y-52906190D01*
X97557142Y-52858571D01*
X97461904Y-52810952D01*
X97366666Y-52810952D01*
X97271428Y-52858571D01*
X97223809Y-52906190D01*
X97176190Y-53001428D01*
X97128571Y-53191904D01*
X97080952Y-53287142D01*
X97033333Y-53334761D01*
X96938095Y-53382380D01*
X96842857Y-53382380D01*
X96747619Y-53334761D01*
X96700000Y-53287142D01*
X96652380Y-53191904D01*
X96652380Y-52953809D01*
X96700000Y-52810952D01*
X96652380Y-52525238D02*
X96652380Y-51953809D01*
X97652380Y-52239523D02*
X96652380Y-52239523D01*
X96652380Y-51429999D02*
X96652380Y-51239523D01*
X96700000Y-51144285D01*
X96795238Y-51049047D01*
X96985714Y-51001428D01*
X97319047Y-51001428D01*
X97509523Y-51049047D01*
X97604761Y-51144285D01*
X97652380Y-51239523D01*
X97652380Y-51429999D01*
X97604761Y-51525238D01*
X97509523Y-51620476D01*
X97319047Y-51668095D01*
X96985714Y-51668095D01*
X96795238Y-51620476D01*
X96700000Y-51525238D01*
X96652380Y-51429999D01*
X97557142Y-50001428D02*
X97604761Y-50049047D01*
X97652380Y-50191904D01*
X97652380Y-50287142D01*
X97604761Y-50429999D01*
X97509523Y-50525238D01*
X97414285Y-50572857D01*
X97223809Y-50620476D01*
X97080952Y-50620476D01*
X96890476Y-50572857D01*
X96795238Y-50525238D01*
X96700000Y-50429999D01*
X96652380Y-50287142D01*
X96652380Y-50191904D01*
X96700000Y-50049047D01*
X96747619Y-50001428D01*
X97652380Y-49572857D02*
X96652380Y-49572857D01*
X97652380Y-49001428D02*
X97080952Y-49429999D01*
X96652380Y-49001428D02*
X97223809Y-49572857D01*
X97747619Y-48810952D02*
X97747619Y-48049047D01*
X97128571Y-47477619D02*
X97128571Y-47810952D01*
X97652380Y-47810952D02*
X96652380Y-47810952D01*
X96652380Y-47334761D01*
X97366666Y-47001428D02*
X97366666Y-46525238D01*
X97652380Y-47096666D02*
X96652380Y-46763333D01*
X97652380Y-46429999D01*
X97652380Y-46096666D02*
X96652380Y-46096666D01*
X97652380Y-45525238D01*
X96652380Y-45525238D01*
%TO.C,J1*%
D14*
X80318402Y-100313603D02*
X80732060Y-100313603D01*
X80814791Y-100341180D01*
X80869945Y-100396334D01*
X80897522Y-100479066D01*
X80897522Y-100534220D01*
X80897522Y-99734483D02*
X80897522Y-100065409D01*
X80897522Y-99899946D02*
X80318402Y-99899946D01*
X80401134Y-99955100D01*
X80456288Y-100010254D01*
X80483865Y-100065409D01*
%TD*%
M02*
