%TF.GenerationSoftware,KiCad,Pcbnew,(5.1.9)-1*%
%TF.CreationDate,2021-04-02T12:34:59-05:00*%
%TF.ProjectId,FM Towns Pico Adapter,464d2054-6f77-46e7-9320-5069636f2041,rev?*%
%TF.SameCoordinates,Original*%
%TF.FileFunction,Copper,L1,Top*%
%TF.FilePolarity,Positive*%
%FSLAX46Y46*%
G04 Gerber Fmt 4.6, Leading zero omitted, Abs format (unit mm)*
G04 Created by KiCad (PCBNEW (5.1.9)-1) date 2021-04-02 12:34:59*
%MOMM*%
%LPD*%
G01*
G04 APERTURE LIST*
%TA.AperFunction,ComponentPad*%
%ADD10O,2.030000X1.730000*%
%TD*%
%TA.AperFunction,ComponentPad*%
%ADD11R,2.030000X1.730000*%
%TD*%
%TA.AperFunction,ComponentPad*%
%ADD12C,1.600000*%
%TD*%
%TA.AperFunction,ComponentPad*%
%ADD13R,1.600000X1.600000*%
%TD*%
%TA.AperFunction,ComponentPad*%
%ADD14C,0.800000*%
%TD*%
%TA.AperFunction,ComponentPad*%
%ADD15C,7.000000*%
%TD*%
%TA.AperFunction,ComponentPad*%
%ADD16O,1.700000X1.700000*%
%TD*%
%TA.AperFunction,ComponentPad*%
%ADD17R,1.700000X1.700000*%
%TD*%
%TA.AperFunction,ComponentPad*%
%ADD18C,2.900000*%
%TD*%
%TA.AperFunction,ComponentPad*%
%ADD19C,4.200000*%
%TD*%
%TA.AperFunction,ComponentPad*%
%ADD20C,1.300000*%
%TD*%
%TA.AperFunction,ComponentPad*%
%ADD21R,1.300000X1.300000*%
%TD*%
%TA.AperFunction,ViaPad*%
%ADD22C,1.200000*%
%TD*%
%TA.AperFunction,ViaPad*%
%ADD23C,1.300000*%
%TD*%
%TA.AperFunction,Conductor*%
%ADD24C,1.270000*%
%TD*%
%TA.AperFunction,Conductor*%
%ADD25C,1.200000*%
%TD*%
%TA.AperFunction,Conductor*%
%ADD26C,1.000000*%
%TD*%
%TA.AperFunction,Conductor*%
%ADD27C,0.254000*%
%TD*%
%TA.AperFunction,Conductor*%
%ADD28C,0.100000*%
%TD*%
G04 APERTURE END LIST*
D10*
%TO.P,NOCTUA_FAN,4*%
%TO.N,Net-(NOCTUA_FAN1-Pad4)*%
X101220000Y-30530000D03*
%TO.P,NOCTUA_FAN,3*%
%TO.N,Net-(NOCTUA_FAN1-Pad3)*%
X101220000Y-33070000D03*
%TO.P,NOCTUA_FAN,2*%
%TO.N,+12V*%
X101220000Y-35610000D03*
D11*
%TO.P,NOCTUA_FAN,1*%
%TO.N,GND*%
X101220000Y-38150000D03*
%TD*%
D12*
%TO.P,U1,24*%
%TO.N,/5V_STBY*%
X95970000Y-157640000D03*
%TO.P,U1,23*%
%TO.N,GND*%
X93430000Y-157640000D03*
%TO.P,U1,22*%
%TO.N,Net-(U1-Pad22)*%
X90890000Y-157640000D03*
%TO.P,U1,21*%
%TO.N,Net-(U1-Pad21)*%
X88350000Y-157640000D03*
%TO.P,U1,20*%
%TO.N,Net-(U1-Pad20)*%
X85810000Y-157640000D03*
%TO.P,U1,19*%
%TO.N,Net-(U1-Pad19)*%
X83270000Y-157640000D03*
%TO.P,U1,18*%
%TO.N,Net-(U1-Pad18)*%
X80730000Y-157640000D03*
%TO.P,U1,17*%
%TO.N,Net-(U1-Pad17)*%
X78190000Y-157640000D03*
%TO.P,U1,16*%
%TO.N,Net-(U1-Pad16)*%
X75650000Y-157640000D03*
%TO.P,U1,15*%
%TO.N,Net-(U1-Pad15)*%
X73110000Y-157640000D03*
%TO.P,U1,14*%
%TO.N,Net-(U1-Pad14)*%
X70570000Y-157640000D03*
%TO.P,U1,13*%
%TO.N,Net-(U1-Pad13)*%
X68030000Y-157640000D03*
%TO.P,U1,12*%
%TO.N,Net-(U1-Pad12)*%
X68030000Y-142400000D03*
%TO.P,U1,11*%
%TO.N,Net-(U1-Pad11)*%
X70570000Y-142400000D03*
%TO.P,U1,10*%
%TO.N,Net-(U1-Pad10)*%
X73110000Y-142400000D03*
%TO.P,U1,9*%
%TO.N,/FM_PS_ON_N*%
X75650000Y-142400000D03*
%TO.P,U1,8*%
%TO.N,Net-(U1-Pad8)*%
X78190000Y-142400000D03*
%TO.P,U1,7*%
%TO.N,/FM_PS_OFF_N*%
X80730000Y-142400000D03*
%TO.P,U1,6*%
%TO.N,/PS_ON*%
X83270000Y-142400000D03*
%TO.P,U1,5*%
%TO.N,Net-(U1-Pad5)*%
X85810000Y-142400000D03*
%TO.P,U1,4*%
%TO.N,GND*%
X88350000Y-142400000D03*
%TO.P,U1,3*%
X90890000Y-142400000D03*
%TO.P,U1,2*%
%TO.N,Net-(U1-Pad2)*%
X93430000Y-142400000D03*
D13*
%TO.P,U1,1*%
%TO.N,Net-(U1-Pad1)*%
X95970000Y-142400000D03*
%TD*%
D14*
%TO.P,PAD4,1*%
%TO.N,N/C*%
X205246655Y-117777845D03*
X203390500Y-117009000D03*
X201534345Y-117777845D03*
X200765500Y-119634000D03*
X201534345Y-121490155D03*
X203390500Y-122259000D03*
X205246655Y-121490155D03*
X206015500Y-119634000D03*
D15*
X203390500Y-119634000D03*
%TD*%
D14*
%TO.P,PAD3,1*%
%TO.N,N/C*%
X204992655Y-73327845D03*
X203136500Y-72559000D03*
X201280345Y-73327845D03*
X200511500Y-75184000D03*
X201280345Y-77040155D03*
X203136500Y-77809000D03*
X204992655Y-77040155D03*
X205761500Y-75184000D03*
D15*
X203136500Y-75184000D03*
%TD*%
D14*
%TO.P,PAD2,1*%
%TO.N,N/C*%
X135333155Y-73137345D03*
X133477000Y-72368500D03*
X131620845Y-73137345D03*
X130852000Y-74993500D03*
X131620845Y-76849655D03*
X133477000Y-77618500D03*
X135333155Y-76849655D03*
X136102000Y-74993500D03*
D15*
X133477000Y-74993500D03*
%TD*%
D14*
%TO.P,PAD1,1*%
%TO.N,N/C*%
X134888655Y-117841345D03*
X133032500Y-117072500D03*
X131176345Y-117841345D03*
X130407500Y-119697500D03*
X131176345Y-121553655D03*
X133032500Y-122322500D03*
X134888655Y-121553655D03*
X135657500Y-119697500D03*
D15*
X133032500Y-119697500D03*
%TD*%
D16*
%TO.P,STOCK_FAN,2*%
%TO.N,+12V*%
X102070000Y-49430000D03*
D17*
%TO.P,STOCK_FAN,1*%
%TO.N,GND*%
X99530000Y-49430000D03*
%TD*%
D18*
%TO.P,J1,24*%
%TO.N,GND*%
X68887100Y-122526200D03*
%TO.P,J1,23*%
%TO.N,+5V*%
X68887100Y-118326200D03*
%TO.P,J1,22*%
X68887100Y-114126200D03*
%TO.P,J1,21*%
X68887100Y-109926200D03*
%TO.P,J1,20*%
%TO.N,Net-(J1-Pad20)*%
X68887100Y-105726200D03*
%TO.P,J1,19*%
%TO.N,GND*%
X68887100Y-101526200D03*
%TO.P,J1,18*%
X68887100Y-97326200D03*
%TO.P,J1,17*%
X68887100Y-93126200D03*
%TO.P,J1,16*%
%TO.N,/PS_ON*%
X68887100Y-88926200D03*
%TO.P,J1,15*%
%TO.N,GND*%
X68887100Y-84726200D03*
%TO.P,J1,14*%
%TO.N,-12V*%
X68887100Y-80526200D03*
%TO.P,J1,13*%
%TO.N,Net-(J1-Pad13)*%
X68887100Y-76326200D03*
%TO.P,J1,12*%
%TO.N,Net-(J1-Pad12)*%
X74387100Y-122526200D03*
%TO.P,J1,11*%
%TO.N,+12V*%
X74387100Y-118326200D03*
%TO.P,J1,10*%
X74387100Y-114126200D03*
%TO.P,J1,9*%
%TO.N,/5V_STBY*%
X74387100Y-109926200D03*
%TO.P,J1,8*%
%TO.N,Net-(J1-Pad8)*%
X74387100Y-105726200D03*
%TO.P,J1,7*%
%TO.N,GND*%
X74387100Y-101526200D03*
%TO.P,J1,6*%
%TO.N,+5V*%
X74387100Y-97326200D03*
%TO.P,J1,5*%
%TO.N,GND*%
X74387100Y-93126200D03*
%TO.P,J1,4*%
%TO.N,+5V*%
X74387100Y-88926200D03*
%TO.P,J1,3*%
%TO.N,GND*%
X74387100Y-84726200D03*
%TO.P,J1,2*%
%TO.N,Net-(J1-Pad2)*%
X74387100Y-80526200D03*
%TO.P,J1,1*%
%TO.N,Net-(J1-Pad1)*%
X74387100Y-76326200D03*
%TD*%
D19*
%TO.P,J2,MH2*%
%TO.N,Net-(J2-PadMH2)*%
X44196000Y-132842000D03*
%TO.P,J2,MH1*%
%TO.N,Net-(J2-PadMH1)*%
X44196000Y-64262000D03*
D20*
%TO.P,J2,B22*%
%TO.N,+5V*%
X49276000Y-125222000D03*
%TO.P,J2,B21*%
X49276000Y-122682000D03*
%TO.P,J2,B20*%
X49276000Y-120142000D03*
%TO.P,J2,B19*%
X49276000Y-117602000D03*
%TO.P,J2,B18*%
X49276000Y-115062000D03*
%TO.P,J2,B17*%
X49276000Y-112522000D03*
%TO.P,J2,B16*%
X49276000Y-109982000D03*
%TO.P,J2,B15*%
%TO.N,+12V*%
X49276000Y-107442000D03*
%TO.P,J2,B14*%
X49276000Y-104902000D03*
%TO.P,J2,B13*%
X49276000Y-102362000D03*
%TO.P,J2,B12*%
%TO.N,GND*%
X49276000Y-99822000D03*
%TO.P,J2,B11*%
X49276000Y-97282000D03*
%TO.P,J2,B10*%
X49276000Y-94742000D03*
%TO.P,J2,B9*%
X49276000Y-92202000D03*
%TO.P,J2,B8*%
X49276000Y-89662000D03*
%TO.P,J2,B7*%
X49276000Y-87122000D03*
%TO.P,J2,B6*%
X49276000Y-84582000D03*
%TO.P,J2,B5*%
X49276000Y-82042000D03*
%TO.P,J2,B4*%
X49276000Y-79502000D03*
%TO.P,J2,B3*%
X49276000Y-76962000D03*
%TO.P,J2,B2*%
X49276000Y-74422000D03*
%TO.P,J2,B1*%
%TO.N,/FM_PS_ON_N*%
X49276000Y-71882000D03*
%TO.P,J2,A22*%
%TO.N,+5V*%
X46736000Y-125222000D03*
%TO.P,J2,A21*%
X46736000Y-122682000D03*
%TO.P,J2,A20*%
X46736000Y-120142000D03*
%TO.P,J2,A19*%
X46736000Y-117602000D03*
%TO.P,J2,A18*%
X46736000Y-115062000D03*
%TO.P,J2,A17*%
X46736000Y-112522000D03*
%TO.P,J2,A16*%
X46736000Y-109982000D03*
%TO.P,J2,A15*%
%TO.N,+12V*%
X46736000Y-107442000D03*
%TO.P,J2,A14*%
X46736000Y-104902000D03*
%TO.P,J2,A13*%
%TO.N,-12V*%
X46736000Y-102362000D03*
%TO.P,J2,A12*%
%TO.N,GND*%
X46736000Y-99822000D03*
%TO.P,J2,A11*%
X46736000Y-97282000D03*
%TO.P,J2,A10*%
X46736000Y-94742000D03*
%TO.P,J2,A9*%
X46736000Y-92202000D03*
%TO.P,J2,A8*%
X46736000Y-89662000D03*
%TO.P,J2,A7*%
X46736000Y-87122000D03*
%TO.P,J2,A6*%
X46736000Y-84582000D03*
%TO.P,J2,A5*%
X46736000Y-82042000D03*
%TO.P,J2,A4*%
X46736000Y-79502000D03*
%TO.P,J2,A3*%
X46736000Y-76962000D03*
%TO.P,J2,A2*%
X46736000Y-74422000D03*
D21*
%TO.P,J2,A1*%
%TO.N,/FM_PS_OFF_N*%
X46736000Y-71882000D03*
%TD*%
D22*
%TO.N,/FM_PS_ON_N*%
X82280000Y-127680000D03*
%TO.N,/FM_PS_OFF_N*%
X86830000Y-132600000D03*
D23*
%TO.N,/PS_ON*%
X63680000Y-107580000D03*
D22*
X65810000Y-121670000D03*
%TD*%
D24*
%TO.N,+5V*%
X49441100Y-110159800D02*
X59601100Y-110159800D01*
X59601100Y-110159800D02*
X68653500Y-110159800D01*
X68653500Y-110159800D02*
X68887100Y-109926200D01*
X68887100Y-109926200D02*
X68887100Y-114126200D01*
X68887100Y-118326200D02*
X68887100Y-114126200D01*
X49441100Y-125399800D02*
X49441100Y-122859800D01*
X49441100Y-122859800D02*
X49441100Y-120319800D01*
X49441100Y-120319800D02*
X49441100Y-117779800D01*
X49441100Y-117779800D02*
X49441100Y-115239800D01*
X49441100Y-115239800D02*
X49441100Y-112699800D01*
X49441100Y-112699800D02*
X49441100Y-110159800D01*
X49441100Y-110159800D02*
X46901100Y-110159800D01*
X46901100Y-110159800D02*
X46901100Y-112699800D01*
X46901100Y-115239800D02*
X46901100Y-112699800D01*
X46901100Y-117779800D02*
X46901100Y-115239800D01*
X46901100Y-120319800D02*
X46901100Y-117779800D01*
X46901100Y-122859800D02*
X46901100Y-120319800D01*
X46901100Y-125399800D02*
X46901100Y-122859800D01*
D25*
%TO.N,/5V_STBY*%
X75327546Y-109926200D02*
X71960000Y-113293746D01*
X74387100Y-109926200D02*
X75327546Y-109926200D01*
X71960000Y-123358654D02*
X87401346Y-138800000D01*
X71960000Y-113293746D02*
X71960000Y-123358654D01*
X87401346Y-138800000D02*
X99290000Y-138800000D01*
X95970000Y-157640000D02*
X99760000Y-157640000D01*
X99760000Y-157640000D02*
X99730000Y-157610000D01*
X99730000Y-139240000D02*
X99290000Y-138800000D01*
X99730000Y-157610000D02*
X99730000Y-139240000D01*
D26*
%TO.N,/FM_PS_ON_N*%
X49276000Y-71882000D02*
X78068000Y-71882000D01*
X78068000Y-71882000D02*
X82280000Y-76094000D01*
X82280000Y-76094000D02*
X82280000Y-127680000D01*
X82280000Y-127680000D02*
X82280000Y-127680000D01*
%TO.N,/FM_PS_OFF_N*%
X46736000Y-71882000D02*
X46736000Y-71154000D01*
X46736000Y-71154000D02*
X48670000Y-69220000D01*
X48670000Y-69220000D02*
X79850000Y-69220000D01*
X86830000Y-76200000D02*
X86830000Y-132600000D01*
X79850000Y-69220000D02*
X86830000Y-76200000D01*
X86830000Y-132600000D02*
X86830000Y-132600000D01*
D25*
%TO.N,/PS_ON*%
X68887100Y-88926200D02*
X63680000Y-94133300D01*
X63680000Y-94133300D02*
X63680000Y-107580000D01*
X63680000Y-107580000D02*
X63680000Y-107580000D01*
X65810000Y-124940000D02*
X83270000Y-142400000D01*
X65810000Y-121670000D02*
X65810000Y-124940000D01*
%TD*%
D27*
%TO.N,GND*%
X229412801Y-172771275D02*
X40843200Y-172897325D01*
X40843200Y-169270701D01*
X45475000Y-169270701D01*
X45475000Y-169819299D01*
X45582026Y-170357354D01*
X45791965Y-170864192D01*
X46096750Y-171320334D01*
X46484666Y-171708250D01*
X46940808Y-172013035D01*
X47447646Y-172222974D01*
X47985701Y-172330000D01*
X48534299Y-172330000D01*
X49072354Y-172222974D01*
X49579192Y-172013035D01*
X50035334Y-171708250D01*
X50423250Y-171320334D01*
X50728035Y-170864192D01*
X50937974Y-170357354D01*
X51045000Y-169819299D01*
X51045000Y-169270701D01*
X51030082Y-169195701D01*
X128095000Y-169195701D01*
X128095000Y-169744299D01*
X128202026Y-170282354D01*
X128411965Y-170789192D01*
X128716750Y-171245334D01*
X129104666Y-171633250D01*
X129560808Y-171938035D01*
X130067646Y-172147974D01*
X130605701Y-172255000D01*
X131154299Y-172255000D01*
X131692354Y-172147974D01*
X132199192Y-171938035D01*
X132655334Y-171633250D01*
X133043250Y-171245334D01*
X133348035Y-170789192D01*
X133557974Y-170282354D01*
X133665000Y-169744299D01*
X133665000Y-169195701D01*
X133654657Y-169143701D01*
X203971000Y-169143701D01*
X203971000Y-169692299D01*
X204078026Y-170230354D01*
X204287965Y-170737192D01*
X204592750Y-171193334D01*
X204980666Y-171581250D01*
X205436808Y-171886035D01*
X205943646Y-172095974D01*
X206481701Y-172203000D01*
X207030299Y-172203000D01*
X207568354Y-172095974D01*
X208075192Y-171886035D01*
X208531334Y-171581250D01*
X208919250Y-171193334D01*
X209224035Y-170737192D01*
X209433974Y-170230354D01*
X209541000Y-169692299D01*
X209541000Y-169143701D01*
X209433974Y-168605646D01*
X209224035Y-168098808D01*
X208919250Y-167642666D01*
X208531334Y-167254750D01*
X208075192Y-166949965D01*
X207568354Y-166740026D01*
X207030299Y-166633000D01*
X206481701Y-166633000D01*
X205943646Y-166740026D01*
X205436808Y-166949965D01*
X204980666Y-167254750D01*
X204592750Y-167642666D01*
X204287965Y-168098808D01*
X204078026Y-168605646D01*
X203971000Y-169143701D01*
X133654657Y-169143701D01*
X133557974Y-168657646D01*
X133348035Y-168150808D01*
X133043250Y-167694666D01*
X132655334Y-167306750D01*
X132199192Y-167001965D01*
X131692354Y-166792026D01*
X131154299Y-166685000D01*
X130605701Y-166685000D01*
X130067646Y-166792026D01*
X129560808Y-167001965D01*
X129104666Y-167306750D01*
X128716750Y-167694666D01*
X128411965Y-168150808D01*
X128202026Y-168657646D01*
X128095000Y-169195701D01*
X51030082Y-169195701D01*
X50937974Y-168732646D01*
X50728035Y-168225808D01*
X50423250Y-167769666D01*
X50035334Y-167381750D01*
X49579192Y-167076965D01*
X49072354Y-166867026D01*
X48534299Y-166760000D01*
X47985701Y-166760000D01*
X47447646Y-166867026D01*
X46940808Y-167076965D01*
X46484666Y-167381750D01*
X46096750Y-167769666D01*
X45791965Y-168225808D01*
X45582026Y-168732646D01*
X45475000Y-169270701D01*
X40843200Y-169270701D01*
X40843200Y-165315042D01*
X211103500Y-165315042D01*
X211103500Y-165646958D01*
X211168254Y-165972496D01*
X211295272Y-166279147D01*
X211479675Y-166555125D01*
X211714375Y-166789825D01*
X211990353Y-166974228D01*
X212297004Y-167101246D01*
X212622542Y-167166000D01*
X212954458Y-167166000D01*
X213279996Y-167101246D01*
X213586647Y-166974228D01*
X213862625Y-166789825D01*
X214097325Y-166555125D01*
X214281728Y-166279147D01*
X214408746Y-165972496D01*
X214473500Y-165646958D01*
X214473500Y-165315042D01*
X214408746Y-164989504D01*
X214281728Y-164682853D01*
X214097325Y-164406875D01*
X213862625Y-164172175D01*
X213586647Y-163987772D01*
X213279996Y-163860754D01*
X212954458Y-163796000D01*
X212622542Y-163796000D01*
X212297004Y-163860754D01*
X211990353Y-163987772D01*
X211714375Y-164172175D01*
X211479675Y-164406875D01*
X211295272Y-164682853D01*
X211168254Y-164989504D01*
X211103500Y-165315042D01*
X40843200Y-165315042D01*
X40843200Y-163410042D01*
X42384000Y-163410042D01*
X42384000Y-163741958D01*
X42448754Y-164067496D01*
X42575772Y-164374147D01*
X42760175Y-164650125D01*
X42994875Y-164884825D01*
X43270853Y-165069228D01*
X43577504Y-165196246D01*
X43903042Y-165261000D01*
X44234958Y-165261000D01*
X44560496Y-165196246D01*
X44867147Y-165069228D01*
X45143125Y-164884825D01*
X45377825Y-164650125D01*
X45562228Y-164374147D01*
X45689246Y-164067496D01*
X45754000Y-163741958D01*
X45754000Y-163410042D01*
X45689246Y-163084504D01*
X45562228Y-162777853D01*
X45377825Y-162501875D01*
X45143125Y-162267175D01*
X44867147Y-162082772D01*
X44560496Y-161955754D01*
X44234958Y-161891000D01*
X43903042Y-161891000D01*
X43577504Y-161955754D01*
X43270853Y-162082772D01*
X42994875Y-162267175D01*
X42760175Y-162501875D01*
X42575772Y-162777853D01*
X42448754Y-163084504D01*
X42384000Y-163410042D01*
X40843200Y-163410042D01*
X40843200Y-157498665D01*
X66595000Y-157498665D01*
X66595000Y-157781335D01*
X66650147Y-158058574D01*
X66758320Y-158319727D01*
X66915363Y-158554759D01*
X67115241Y-158754637D01*
X67350273Y-158911680D01*
X67611426Y-159019853D01*
X67888665Y-159075000D01*
X68171335Y-159075000D01*
X68448574Y-159019853D01*
X68709727Y-158911680D01*
X68944759Y-158754637D01*
X69144637Y-158554759D01*
X69300000Y-158322241D01*
X69455363Y-158554759D01*
X69655241Y-158754637D01*
X69890273Y-158911680D01*
X70151426Y-159019853D01*
X70428665Y-159075000D01*
X70711335Y-159075000D01*
X70988574Y-159019853D01*
X71249727Y-158911680D01*
X71484759Y-158754637D01*
X71684637Y-158554759D01*
X71840000Y-158322241D01*
X71995363Y-158554759D01*
X72195241Y-158754637D01*
X72430273Y-158911680D01*
X72691426Y-159019853D01*
X72968665Y-159075000D01*
X73251335Y-159075000D01*
X73528574Y-159019853D01*
X73789727Y-158911680D01*
X74024759Y-158754637D01*
X74224637Y-158554759D01*
X74380000Y-158322241D01*
X74535363Y-158554759D01*
X74735241Y-158754637D01*
X74970273Y-158911680D01*
X75231426Y-159019853D01*
X75508665Y-159075000D01*
X75791335Y-159075000D01*
X76068574Y-159019853D01*
X76329727Y-158911680D01*
X76564759Y-158754637D01*
X76764637Y-158554759D01*
X76920000Y-158322241D01*
X77075363Y-158554759D01*
X77275241Y-158754637D01*
X77510273Y-158911680D01*
X77771426Y-159019853D01*
X78048665Y-159075000D01*
X78331335Y-159075000D01*
X78608574Y-159019853D01*
X78869727Y-158911680D01*
X79104759Y-158754637D01*
X79304637Y-158554759D01*
X79460000Y-158322241D01*
X79615363Y-158554759D01*
X79815241Y-158754637D01*
X80050273Y-158911680D01*
X80311426Y-159019853D01*
X80588665Y-159075000D01*
X80871335Y-159075000D01*
X81148574Y-159019853D01*
X81409727Y-158911680D01*
X81644759Y-158754637D01*
X81844637Y-158554759D01*
X82000000Y-158322241D01*
X82155363Y-158554759D01*
X82355241Y-158754637D01*
X82590273Y-158911680D01*
X82851426Y-159019853D01*
X83128665Y-159075000D01*
X83411335Y-159075000D01*
X83688574Y-159019853D01*
X83949727Y-158911680D01*
X84184759Y-158754637D01*
X84384637Y-158554759D01*
X84540000Y-158322241D01*
X84695363Y-158554759D01*
X84895241Y-158754637D01*
X85130273Y-158911680D01*
X85391426Y-159019853D01*
X85668665Y-159075000D01*
X85951335Y-159075000D01*
X86228574Y-159019853D01*
X86489727Y-158911680D01*
X86724759Y-158754637D01*
X86924637Y-158554759D01*
X87080000Y-158322241D01*
X87235363Y-158554759D01*
X87435241Y-158754637D01*
X87670273Y-158911680D01*
X87931426Y-159019853D01*
X88208665Y-159075000D01*
X88491335Y-159075000D01*
X88768574Y-159019853D01*
X89029727Y-158911680D01*
X89264759Y-158754637D01*
X89464637Y-158554759D01*
X89620000Y-158322241D01*
X89775363Y-158554759D01*
X89975241Y-158754637D01*
X90210273Y-158911680D01*
X90471426Y-159019853D01*
X90748665Y-159075000D01*
X91031335Y-159075000D01*
X91308574Y-159019853D01*
X91569727Y-158911680D01*
X91804759Y-158754637D01*
X91926694Y-158632702D01*
X92616903Y-158632702D01*
X92688486Y-158876671D01*
X92943996Y-158997571D01*
X93218184Y-159066300D01*
X93500512Y-159080217D01*
X93780130Y-159038787D01*
X94046292Y-158943603D01*
X94171514Y-158876671D01*
X94243097Y-158632702D01*
X93430000Y-157819605D01*
X92616903Y-158632702D01*
X91926694Y-158632702D01*
X92004637Y-158554759D01*
X92160915Y-158320872D01*
X92193329Y-158381514D01*
X92437298Y-158453097D01*
X93250395Y-157640000D01*
X92437298Y-156826903D01*
X92193329Y-156898486D01*
X92162806Y-156962992D01*
X92161680Y-156960273D01*
X92004637Y-156725241D01*
X91926694Y-156647298D01*
X92616903Y-156647298D01*
X93430000Y-157460395D01*
X94243097Y-156647298D01*
X94171514Y-156403329D01*
X93916004Y-156282429D01*
X93641816Y-156213700D01*
X93359488Y-156199783D01*
X93079870Y-156241213D01*
X92813708Y-156336397D01*
X92688486Y-156403329D01*
X92616903Y-156647298D01*
X91926694Y-156647298D01*
X91804759Y-156525363D01*
X91569727Y-156368320D01*
X91308574Y-156260147D01*
X91031335Y-156205000D01*
X90748665Y-156205000D01*
X90471426Y-156260147D01*
X90210273Y-156368320D01*
X89975241Y-156525363D01*
X89775363Y-156725241D01*
X89620000Y-156957759D01*
X89464637Y-156725241D01*
X89264759Y-156525363D01*
X89029727Y-156368320D01*
X88768574Y-156260147D01*
X88491335Y-156205000D01*
X88208665Y-156205000D01*
X87931426Y-156260147D01*
X87670273Y-156368320D01*
X87435241Y-156525363D01*
X87235363Y-156725241D01*
X87080000Y-156957759D01*
X86924637Y-156725241D01*
X86724759Y-156525363D01*
X86489727Y-156368320D01*
X86228574Y-156260147D01*
X85951335Y-156205000D01*
X85668665Y-156205000D01*
X85391426Y-156260147D01*
X85130273Y-156368320D01*
X84895241Y-156525363D01*
X84695363Y-156725241D01*
X84540000Y-156957759D01*
X84384637Y-156725241D01*
X84184759Y-156525363D01*
X83949727Y-156368320D01*
X83688574Y-156260147D01*
X83411335Y-156205000D01*
X83128665Y-156205000D01*
X82851426Y-156260147D01*
X82590273Y-156368320D01*
X82355241Y-156525363D01*
X82155363Y-156725241D01*
X82000000Y-156957759D01*
X81844637Y-156725241D01*
X81644759Y-156525363D01*
X81409727Y-156368320D01*
X81148574Y-156260147D01*
X80871335Y-156205000D01*
X80588665Y-156205000D01*
X80311426Y-156260147D01*
X80050273Y-156368320D01*
X79815241Y-156525363D01*
X79615363Y-156725241D01*
X79460000Y-156957759D01*
X79304637Y-156725241D01*
X79104759Y-156525363D01*
X78869727Y-156368320D01*
X78608574Y-156260147D01*
X78331335Y-156205000D01*
X78048665Y-156205000D01*
X77771426Y-156260147D01*
X77510273Y-156368320D01*
X77275241Y-156525363D01*
X77075363Y-156725241D01*
X76920000Y-156957759D01*
X76764637Y-156725241D01*
X76564759Y-156525363D01*
X76329727Y-156368320D01*
X76068574Y-156260147D01*
X75791335Y-156205000D01*
X75508665Y-156205000D01*
X75231426Y-156260147D01*
X74970273Y-156368320D01*
X74735241Y-156525363D01*
X74535363Y-156725241D01*
X74380000Y-156957759D01*
X74224637Y-156725241D01*
X74024759Y-156525363D01*
X73789727Y-156368320D01*
X73528574Y-156260147D01*
X73251335Y-156205000D01*
X72968665Y-156205000D01*
X72691426Y-156260147D01*
X72430273Y-156368320D01*
X72195241Y-156525363D01*
X71995363Y-156725241D01*
X71840000Y-156957759D01*
X71684637Y-156725241D01*
X71484759Y-156525363D01*
X71249727Y-156368320D01*
X70988574Y-156260147D01*
X70711335Y-156205000D01*
X70428665Y-156205000D01*
X70151426Y-156260147D01*
X69890273Y-156368320D01*
X69655241Y-156525363D01*
X69455363Y-156725241D01*
X69300000Y-156957759D01*
X69144637Y-156725241D01*
X68944759Y-156525363D01*
X68709727Y-156368320D01*
X68448574Y-156260147D01*
X68171335Y-156205000D01*
X67888665Y-156205000D01*
X67611426Y-156260147D01*
X67350273Y-156368320D01*
X67115241Y-156525363D01*
X66915363Y-156725241D01*
X66758320Y-156960273D01*
X66650147Y-157221426D01*
X66595000Y-157498665D01*
X40843200Y-157498665D01*
X40843200Y-132572626D01*
X41461000Y-132572626D01*
X41461000Y-133111374D01*
X41566105Y-133639770D01*
X41772275Y-134137508D01*
X42071587Y-134585461D01*
X42452539Y-134966413D01*
X42900492Y-135265725D01*
X43398230Y-135471895D01*
X43926626Y-135577000D01*
X44465374Y-135577000D01*
X44993770Y-135471895D01*
X45491508Y-135265725D01*
X45939461Y-134966413D01*
X46320413Y-134585461D01*
X46619725Y-134137508D01*
X46825895Y-133639770D01*
X46931000Y-133111374D01*
X46931000Y-132572626D01*
X46825895Y-132044230D01*
X46619725Y-131546492D01*
X46320413Y-131098539D01*
X45939461Y-130717587D01*
X45491508Y-130418275D01*
X44993770Y-130212105D01*
X44465374Y-130107000D01*
X43926626Y-130107000D01*
X43398230Y-130212105D01*
X42900492Y-130418275D01*
X42452539Y-130717587D01*
X42071587Y-131098539D01*
X41772275Y-131546492D01*
X41566105Y-132044230D01*
X41461000Y-132572626D01*
X40843200Y-132572626D01*
X40843200Y-102235439D01*
X45451000Y-102235439D01*
X45451000Y-102488561D01*
X45500381Y-102736821D01*
X45597247Y-102970676D01*
X45737875Y-103181140D01*
X45916860Y-103360125D01*
X46127324Y-103500753D01*
X46361179Y-103597619D01*
X46534027Y-103632000D01*
X46361179Y-103666381D01*
X46127324Y-103763247D01*
X45916860Y-103903875D01*
X45737875Y-104082860D01*
X45597247Y-104293324D01*
X45500381Y-104527179D01*
X45451000Y-104775439D01*
X45451000Y-105028561D01*
X45500381Y-105276821D01*
X45597247Y-105510676D01*
X45737875Y-105721140D01*
X45916860Y-105900125D01*
X46127324Y-106040753D01*
X46361179Y-106137619D01*
X46534027Y-106172000D01*
X46361179Y-106206381D01*
X46127324Y-106303247D01*
X45916860Y-106443875D01*
X45737875Y-106622860D01*
X45597247Y-106833324D01*
X45500381Y-107067179D01*
X45451000Y-107315439D01*
X45451000Y-107568561D01*
X45500381Y-107816821D01*
X45597247Y-108050676D01*
X45737875Y-108261140D01*
X45916860Y-108440125D01*
X46127324Y-108580753D01*
X46361179Y-108677619D01*
X46534027Y-108712000D01*
X46361179Y-108746381D01*
X46127324Y-108843247D01*
X45916860Y-108983875D01*
X45737875Y-109162860D01*
X45597247Y-109373324D01*
X45500381Y-109607179D01*
X45451000Y-109855439D01*
X45451000Y-110108561D01*
X45500381Y-110356821D01*
X45597247Y-110590676D01*
X45631100Y-110641341D01*
X45631101Y-111862659D01*
X45597247Y-111913324D01*
X45500381Y-112147179D01*
X45451000Y-112395439D01*
X45451000Y-112648561D01*
X45500381Y-112896821D01*
X45597247Y-113130676D01*
X45631101Y-113181342D01*
X45631100Y-114402659D01*
X45597247Y-114453324D01*
X45500381Y-114687179D01*
X45451000Y-114935439D01*
X45451000Y-115188561D01*
X45500381Y-115436821D01*
X45597247Y-115670676D01*
X45631101Y-115721342D01*
X45631100Y-116942659D01*
X45597247Y-116993324D01*
X45500381Y-117227179D01*
X45451000Y-117475439D01*
X45451000Y-117728561D01*
X45500381Y-117976821D01*
X45597247Y-118210676D01*
X45631101Y-118261342D01*
X45631100Y-119482659D01*
X45597247Y-119533324D01*
X45500381Y-119767179D01*
X45451000Y-120015439D01*
X45451000Y-120268561D01*
X45500381Y-120516821D01*
X45597247Y-120750676D01*
X45631101Y-120801342D01*
X45631100Y-122022659D01*
X45597247Y-122073324D01*
X45500381Y-122307179D01*
X45451000Y-122555439D01*
X45451000Y-122808561D01*
X45500381Y-123056821D01*
X45597247Y-123290676D01*
X45631101Y-123341342D01*
X45631100Y-124562659D01*
X45597247Y-124613324D01*
X45500381Y-124847179D01*
X45451000Y-125095439D01*
X45451000Y-125348561D01*
X45500381Y-125596821D01*
X45597247Y-125830676D01*
X45737875Y-126041140D01*
X45916860Y-126220125D01*
X45949048Y-126241633D01*
X45998730Y-126302170D01*
X46192112Y-126460875D01*
X46412741Y-126578803D01*
X46652137Y-126651423D01*
X46901100Y-126675944D01*
X47150062Y-126651423D01*
X47389458Y-126578803D01*
X47610087Y-126460875D01*
X47803470Y-126302170D01*
X47962175Y-126108788D01*
X48080103Y-125888159D01*
X48114326Y-125775340D01*
X48137247Y-125830676D01*
X48277875Y-126041140D01*
X48456860Y-126220125D01*
X48489048Y-126241633D01*
X48538730Y-126302170D01*
X48732112Y-126460875D01*
X48952741Y-126578803D01*
X49192137Y-126651423D01*
X49441100Y-126675944D01*
X49690062Y-126651423D01*
X49929458Y-126578803D01*
X50150087Y-126460875D01*
X50343470Y-126302170D01*
X50502175Y-126108788D01*
X50620103Y-125888159D01*
X50692723Y-125648763D01*
X50711100Y-125462180D01*
X50711100Y-124940000D01*
X64569025Y-124940000D01*
X64592870Y-125182102D01*
X64663489Y-125414899D01*
X64663490Y-125414901D01*
X64778168Y-125629449D01*
X64932499Y-125817502D01*
X64979621Y-125856174D01*
X80192750Y-141069304D01*
X80050273Y-141128320D01*
X79815241Y-141285363D01*
X79615363Y-141485241D01*
X79460000Y-141717759D01*
X79304637Y-141485241D01*
X79104759Y-141285363D01*
X78869727Y-141128320D01*
X78608574Y-141020147D01*
X78331335Y-140965000D01*
X78048665Y-140965000D01*
X77771426Y-141020147D01*
X77510273Y-141128320D01*
X77275241Y-141285363D01*
X77075363Y-141485241D01*
X76920000Y-141717759D01*
X76764637Y-141485241D01*
X76564759Y-141285363D01*
X76329727Y-141128320D01*
X76068574Y-141020147D01*
X75791335Y-140965000D01*
X75508665Y-140965000D01*
X75231426Y-141020147D01*
X74970273Y-141128320D01*
X74735241Y-141285363D01*
X74535363Y-141485241D01*
X74380000Y-141717759D01*
X74224637Y-141485241D01*
X74024759Y-141285363D01*
X73789727Y-141128320D01*
X73528574Y-141020147D01*
X73251335Y-140965000D01*
X72968665Y-140965000D01*
X72691426Y-141020147D01*
X72430273Y-141128320D01*
X72195241Y-141285363D01*
X71995363Y-141485241D01*
X71840000Y-141717759D01*
X71684637Y-141485241D01*
X71484759Y-141285363D01*
X71249727Y-141128320D01*
X70988574Y-141020147D01*
X70711335Y-140965000D01*
X70428665Y-140965000D01*
X70151426Y-141020147D01*
X69890273Y-141128320D01*
X69655241Y-141285363D01*
X69455363Y-141485241D01*
X69300000Y-141717759D01*
X69144637Y-141485241D01*
X68944759Y-141285363D01*
X68709727Y-141128320D01*
X68448574Y-141020147D01*
X68171335Y-140965000D01*
X67888665Y-140965000D01*
X67611426Y-141020147D01*
X67350273Y-141128320D01*
X67115241Y-141285363D01*
X66915363Y-141485241D01*
X66758320Y-141720273D01*
X66650147Y-141981426D01*
X66595000Y-142258665D01*
X66595000Y-142541335D01*
X66650147Y-142818574D01*
X66758320Y-143079727D01*
X66915363Y-143314759D01*
X67115241Y-143514637D01*
X67350273Y-143671680D01*
X67611426Y-143779853D01*
X67888665Y-143835000D01*
X68171335Y-143835000D01*
X68448574Y-143779853D01*
X68709727Y-143671680D01*
X68944759Y-143514637D01*
X69144637Y-143314759D01*
X69300000Y-143082241D01*
X69455363Y-143314759D01*
X69655241Y-143514637D01*
X69890273Y-143671680D01*
X70151426Y-143779853D01*
X70428665Y-143835000D01*
X70711335Y-143835000D01*
X70988574Y-143779853D01*
X71249727Y-143671680D01*
X71484759Y-143514637D01*
X71684637Y-143314759D01*
X71840000Y-143082241D01*
X71995363Y-143314759D01*
X72195241Y-143514637D01*
X72430273Y-143671680D01*
X72691426Y-143779853D01*
X72968665Y-143835000D01*
X73251335Y-143835000D01*
X73528574Y-143779853D01*
X73789727Y-143671680D01*
X74024759Y-143514637D01*
X74224637Y-143314759D01*
X74380000Y-143082241D01*
X74535363Y-143314759D01*
X74735241Y-143514637D01*
X74970273Y-143671680D01*
X75231426Y-143779853D01*
X75508665Y-143835000D01*
X75791335Y-143835000D01*
X76068574Y-143779853D01*
X76329727Y-143671680D01*
X76564759Y-143514637D01*
X76764637Y-143314759D01*
X76920000Y-143082241D01*
X77075363Y-143314759D01*
X77275241Y-143514637D01*
X77510273Y-143671680D01*
X77771426Y-143779853D01*
X78048665Y-143835000D01*
X78331335Y-143835000D01*
X78608574Y-143779853D01*
X78869727Y-143671680D01*
X79104759Y-143514637D01*
X79304637Y-143314759D01*
X79460000Y-143082241D01*
X79615363Y-143314759D01*
X79815241Y-143514637D01*
X80050273Y-143671680D01*
X80311426Y-143779853D01*
X80588665Y-143835000D01*
X80871335Y-143835000D01*
X81148574Y-143779853D01*
X81409727Y-143671680D01*
X81644759Y-143514637D01*
X81844637Y-143314759D01*
X82000000Y-143082241D01*
X82155363Y-143314759D01*
X82355241Y-143514637D01*
X82590273Y-143671680D01*
X82851426Y-143779853D01*
X83128665Y-143835000D01*
X83411335Y-143835000D01*
X83688574Y-143779853D01*
X83949727Y-143671680D01*
X84184759Y-143514637D01*
X84384637Y-143314759D01*
X84540000Y-143082241D01*
X84695363Y-143314759D01*
X84895241Y-143514637D01*
X85130273Y-143671680D01*
X85391426Y-143779853D01*
X85668665Y-143835000D01*
X85951335Y-143835000D01*
X86228574Y-143779853D01*
X86489727Y-143671680D01*
X86724759Y-143514637D01*
X86846694Y-143392702D01*
X87536903Y-143392702D01*
X87608486Y-143636671D01*
X87863996Y-143757571D01*
X88138184Y-143826300D01*
X88420512Y-143840217D01*
X88700130Y-143798787D01*
X88966292Y-143703603D01*
X89091514Y-143636671D01*
X89163097Y-143392702D01*
X90076903Y-143392702D01*
X90148486Y-143636671D01*
X90403996Y-143757571D01*
X90678184Y-143826300D01*
X90960512Y-143840217D01*
X91240130Y-143798787D01*
X91506292Y-143703603D01*
X91631514Y-143636671D01*
X91703097Y-143392702D01*
X90890000Y-142579605D01*
X90076903Y-143392702D01*
X89163097Y-143392702D01*
X88350000Y-142579605D01*
X87536903Y-143392702D01*
X86846694Y-143392702D01*
X86924637Y-143314759D01*
X87080915Y-143080872D01*
X87113329Y-143141514D01*
X87357298Y-143213097D01*
X88170395Y-142400000D01*
X88529605Y-142400000D01*
X89342702Y-143213097D01*
X89586671Y-143141514D01*
X89617971Y-143075364D01*
X89653329Y-143141514D01*
X89897298Y-143213097D01*
X90710395Y-142400000D01*
X91069605Y-142400000D01*
X91882702Y-143213097D01*
X92126671Y-143141514D01*
X92157194Y-143077008D01*
X92158320Y-143079727D01*
X92315363Y-143314759D01*
X92515241Y-143514637D01*
X92750273Y-143671680D01*
X93011426Y-143779853D01*
X93288665Y-143835000D01*
X93571335Y-143835000D01*
X93848574Y-143779853D01*
X94109727Y-143671680D01*
X94344759Y-143514637D01*
X94543357Y-143316039D01*
X94544188Y-143324482D01*
X94580498Y-143444180D01*
X94639463Y-143554494D01*
X94718815Y-143651185D01*
X94815506Y-143730537D01*
X94925820Y-143789502D01*
X95045518Y-143825812D01*
X95170000Y-143838072D01*
X96770000Y-143838072D01*
X96894482Y-143825812D01*
X97014180Y-143789502D01*
X97124494Y-143730537D01*
X97221185Y-143651185D01*
X97300537Y-143554494D01*
X97359502Y-143444180D01*
X97395812Y-143324482D01*
X97408072Y-143200000D01*
X97408072Y-141600000D01*
X97395812Y-141475518D01*
X97359502Y-141355820D01*
X97300537Y-141245506D01*
X97221185Y-141148815D01*
X97124494Y-141069463D01*
X97014180Y-141010498D01*
X96894482Y-140974188D01*
X96770000Y-140961928D01*
X95170000Y-140961928D01*
X95045518Y-140974188D01*
X94925820Y-141010498D01*
X94815506Y-141069463D01*
X94718815Y-141148815D01*
X94639463Y-141245506D01*
X94580498Y-141355820D01*
X94544188Y-141475518D01*
X94543357Y-141483961D01*
X94344759Y-141285363D01*
X94109727Y-141128320D01*
X93848574Y-141020147D01*
X93571335Y-140965000D01*
X93288665Y-140965000D01*
X93011426Y-141020147D01*
X92750273Y-141128320D01*
X92515241Y-141285363D01*
X92315363Y-141485241D01*
X92159085Y-141719128D01*
X92126671Y-141658486D01*
X91882702Y-141586903D01*
X91069605Y-142400000D01*
X90710395Y-142400000D01*
X89897298Y-141586903D01*
X89653329Y-141658486D01*
X89622029Y-141724636D01*
X89586671Y-141658486D01*
X89342702Y-141586903D01*
X88529605Y-142400000D01*
X88170395Y-142400000D01*
X87357298Y-141586903D01*
X87113329Y-141658486D01*
X87082806Y-141722992D01*
X87081680Y-141720273D01*
X86924637Y-141485241D01*
X86846694Y-141407298D01*
X87536903Y-141407298D01*
X88350000Y-142220395D01*
X89163097Y-141407298D01*
X90076903Y-141407298D01*
X90890000Y-142220395D01*
X91703097Y-141407298D01*
X91631514Y-141163329D01*
X91376004Y-141042429D01*
X91101816Y-140973700D01*
X90819488Y-140959783D01*
X90539870Y-141001213D01*
X90273708Y-141096397D01*
X90148486Y-141163329D01*
X90076903Y-141407298D01*
X89163097Y-141407298D01*
X89091514Y-141163329D01*
X88836004Y-141042429D01*
X88561816Y-140973700D01*
X88279488Y-140959783D01*
X87999870Y-141001213D01*
X87733708Y-141096397D01*
X87608486Y-141163329D01*
X87536903Y-141407298D01*
X86846694Y-141407298D01*
X86724759Y-141285363D01*
X86489727Y-141128320D01*
X86228574Y-141020147D01*
X85951335Y-140965000D01*
X85668665Y-140965000D01*
X85391426Y-141020147D01*
X85130273Y-141128320D01*
X84895241Y-141285363D01*
X84695363Y-141485241D01*
X84540000Y-141717759D01*
X84384637Y-141485241D01*
X84184759Y-141285363D01*
X83949727Y-141128320D01*
X83688574Y-141020147D01*
X83623821Y-141007267D01*
X67045000Y-124428447D01*
X67045000Y-123982252D01*
X67610653Y-123982252D01*
X67760648Y-124292693D01*
X68126919Y-124478511D01*
X68522403Y-124589301D01*
X68931901Y-124620809D01*
X69339677Y-124571821D01*
X69730062Y-124444221D01*
X70013552Y-124292693D01*
X70163547Y-123982252D01*
X68887100Y-122705805D01*
X67610653Y-123982252D01*
X67045000Y-123982252D01*
X67045000Y-123511201D01*
X67120607Y-123652652D01*
X67431048Y-123802647D01*
X68707495Y-122526200D01*
X67431048Y-121249753D01*
X67120607Y-121399748D01*
X67045000Y-121548779D01*
X67045000Y-121548363D01*
X67033105Y-121488562D01*
X67027130Y-121427898D01*
X67009436Y-121369567D01*
X66997540Y-121309764D01*
X66974205Y-121253429D01*
X66956511Y-121195099D01*
X66927777Y-121141342D01*
X66904443Y-121085008D01*
X66894514Y-121070148D01*
X67610653Y-121070148D01*
X68887100Y-122346595D01*
X70163547Y-121070148D01*
X70013552Y-120759707D01*
X69647281Y-120573889D01*
X69251797Y-120463099D01*
X68842299Y-120431591D01*
X68434523Y-120480579D01*
X68044138Y-120608179D01*
X67760648Y-120759707D01*
X67610653Y-121070148D01*
X66894514Y-121070148D01*
X66870568Y-121034311D01*
X66841833Y-120980551D01*
X66803161Y-120933429D01*
X66769287Y-120882733D01*
X66726174Y-120839620D01*
X66687502Y-120792498D01*
X66640381Y-120753827D01*
X66597267Y-120710713D01*
X66546567Y-120676836D01*
X66499448Y-120638167D01*
X66445693Y-120609435D01*
X66394992Y-120575557D01*
X66338654Y-120552221D01*
X66284900Y-120523489D01*
X66226574Y-120505796D01*
X66170236Y-120482460D01*
X66110430Y-120470564D01*
X66052101Y-120452870D01*
X65991439Y-120446895D01*
X65931637Y-120435000D01*
X65870665Y-120435000D01*
X65810000Y-120429025D01*
X65749335Y-120435000D01*
X65688363Y-120435000D01*
X65628562Y-120446895D01*
X65567898Y-120452870D01*
X65509567Y-120470564D01*
X65449764Y-120482460D01*
X65393429Y-120505795D01*
X65335099Y-120523489D01*
X65281342Y-120552223D01*
X65225008Y-120575557D01*
X65174311Y-120609432D01*
X65120551Y-120638167D01*
X65073429Y-120676839D01*
X65022733Y-120710713D01*
X64979620Y-120753826D01*
X64932498Y-120792498D01*
X64893827Y-120839619D01*
X64850713Y-120882733D01*
X64816836Y-120933433D01*
X64778167Y-120980552D01*
X64749435Y-121034307D01*
X64715557Y-121085008D01*
X64692221Y-121141346D01*
X64663489Y-121195100D01*
X64645796Y-121253426D01*
X64622460Y-121309764D01*
X64610564Y-121369570D01*
X64592870Y-121427899D01*
X64586895Y-121488561D01*
X64575000Y-121548363D01*
X64575000Y-121609336D01*
X64575001Y-124879325D01*
X64569025Y-124940000D01*
X50711100Y-124940000D01*
X50711100Y-111429800D01*
X67442065Y-111429800D01*
X67557990Y-111545725D01*
X67617100Y-111585221D01*
X67617101Y-112467178D01*
X67557990Y-112506675D01*
X67267575Y-112797090D01*
X67039397Y-113138582D01*
X66882226Y-113518028D01*
X66802100Y-113920845D01*
X66802100Y-114331555D01*
X66882226Y-114734372D01*
X67039397Y-115113818D01*
X67267575Y-115455310D01*
X67557990Y-115745725D01*
X67617101Y-115785222D01*
X67617100Y-116667179D01*
X67557990Y-116706675D01*
X67267575Y-116997090D01*
X67039397Y-117338582D01*
X66882226Y-117718028D01*
X66802100Y-118120845D01*
X66802100Y-118531555D01*
X66882226Y-118934372D01*
X67039397Y-119313818D01*
X67267575Y-119655310D01*
X67557990Y-119945725D01*
X67899482Y-120173903D01*
X68278928Y-120331074D01*
X68681745Y-120411200D01*
X69092455Y-120411200D01*
X69495272Y-120331074D01*
X69874718Y-120173903D01*
X70216210Y-119945725D01*
X70506625Y-119655310D01*
X70725001Y-119328488D01*
X70725001Y-121533343D01*
X70653593Y-121399748D01*
X70343152Y-121249753D01*
X69066705Y-122526200D01*
X70343152Y-123802647D01*
X70653593Y-123652652D01*
X70732636Y-123496848D01*
X70742870Y-123600756D01*
X70813170Y-123832500D01*
X70813490Y-123833555D01*
X70928168Y-124048103D01*
X71082499Y-124236156D01*
X71129621Y-124274828D01*
X86485172Y-139630380D01*
X86523844Y-139677502D01*
X86711897Y-139831833D01*
X86926445Y-139946511D01*
X87042844Y-139981820D01*
X87159243Y-140017130D01*
X87401346Y-140040975D01*
X87462011Y-140035000D01*
X98495001Y-140035000D01*
X98495000Y-156405000D01*
X96704623Y-156405000D01*
X96649727Y-156368320D01*
X96388574Y-156260147D01*
X96111335Y-156205000D01*
X95828665Y-156205000D01*
X95551426Y-156260147D01*
X95290273Y-156368320D01*
X95055241Y-156525363D01*
X94855363Y-156725241D01*
X94699085Y-156959128D01*
X94666671Y-156898486D01*
X94422702Y-156826903D01*
X93609605Y-157640000D01*
X94422702Y-158453097D01*
X94666671Y-158381514D01*
X94697194Y-158317008D01*
X94698320Y-158319727D01*
X94855363Y-158554759D01*
X95055241Y-158754637D01*
X95290273Y-158911680D01*
X95551426Y-159019853D01*
X95828665Y-159075000D01*
X96111335Y-159075000D01*
X96388574Y-159019853D01*
X96649727Y-158911680D01*
X96704623Y-158875000D01*
X99699344Y-158875000D01*
X99759999Y-158880974D01*
X99820654Y-158875000D01*
X99820665Y-158875000D01*
X100002102Y-158857130D01*
X100234901Y-158786511D01*
X100449449Y-158671833D01*
X100637502Y-158517502D01*
X100791833Y-158329449D01*
X100906511Y-158114901D01*
X100977130Y-157882102D01*
X101000975Y-157640000D01*
X100977130Y-157397898D01*
X100965000Y-157357911D01*
X100965000Y-139300665D01*
X100970975Y-139240000D01*
X100947130Y-138997897D01*
X100887098Y-138800000D01*
X100876511Y-138765099D01*
X100761833Y-138550551D01*
X100607502Y-138362498D01*
X100560374Y-138323821D01*
X100206179Y-137969626D01*
X100167502Y-137922498D01*
X99979449Y-137768167D01*
X99764901Y-137653489D01*
X99532102Y-137582870D01*
X99350665Y-137565000D01*
X99290000Y-137559025D01*
X99229335Y-137565000D01*
X87912900Y-137565000D01*
X74898269Y-124550369D01*
X74995272Y-124531074D01*
X75374718Y-124373903D01*
X75716210Y-124145725D01*
X76006625Y-123855310D01*
X76234803Y-123513818D01*
X76391974Y-123134372D01*
X76472100Y-122731555D01*
X76472100Y-122320845D01*
X76391974Y-121918028D01*
X76234803Y-121538582D01*
X76006625Y-121197090D01*
X75716210Y-120906675D01*
X75374718Y-120678497D01*
X74995272Y-120521326D01*
X74592455Y-120441200D01*
X74181745Y-120441200D01*
X73778928Y-120521326D01*
X73399482Y-120678497D01*
X73195000Y-120815128D01*
X73195000Y-120037272D01*
X73399482Y-120173903D01*
X73778928Y-120331074D01*
X74181745Y-120411200D01*
X74592455Y-120411200D01*
X74995272Y-120331074D01*
X75374718Y-120173903D01*
X75716210Y-119945725D01*
X76006625Y-119655310D01*
X76234803Y-119313818D01*
X76391974Y-118934372D01*
X76472100Y-118531555D01*
X76472100Y-118120845D01*
X76391974Y-117718028D01*
X76234803Y-117338582D01*
X76006625Y-116997090D01*
X75716210Y-116706675D01*
X75374718Y-116478497D01*
X74995272Y-116321326D01*
X74592455Y-116241200D01*
X74181745Y-116241200D01*
X73778928Y-116321326D01*
X73399482Y-116478497D01*
X73195000Y-116615128D01*
X73195000Y-115837272D01*
X73399482Y-115973903D01*
X73778928Y-116131074D01*
X74181745Y-116211200D01*
X74592455Y-116211200D01*
X74995272Y-116131074D01*
X75374718Y-115973903D01*
X75716210Y-115745725D01*
X76006625Y-115455310D01*
X76234803Y-115113818D01*
X76391974Y-114734372D01*
X76472100Y-114331555D01*
X76472100Y-113920845D01*
X76391974Y-113518028D01*
X76234803Y-113138582D01*
X76006625Y-112797090D01*
X75716210Y-112506675D01*
X75374718Y-112278497D01*
X74995272Y-112121326D01*
X74898269Y-112102031D01*
X75121518Y-111878781D01*
X75374718Y-111773903D01*
X75716210Y-111545725D01*
X76006625Y-111255310D01*
X76234803Y-110913818D01*
X76357217Y-110618284D01*
X76359379Y-110615649D01*
X76474057Y-110401101D01*
X76544676Y-110168302D01*
X76568521Y-109926200D01*
X76544676Y-109684098D01*
X76474057Y-109451299D01*
X76359379Y-109236751D01*
X76357217Y-109234116D01*
X76234803Y-108938582D01*
X76006625Y-108597090D01*
X75716210Y-108306675D01*
X75374718Y-108078497D01*
X74995272Y-107921326D01*
X74592455Y-107841200D01*
X74181745Y-107841200D01*
X73778928Y-107921326D01*
X73399482Y-108078497D01*
X73057990Y-108306675D01*
X72767575Y-108597090D01*
X72539397Y-108938582D01*
X72382226Y-109318028D01*
X72302100Y-109720845D01*
X72302100Y-110131555D01*
X72382226Y-110534372D01*
X72539397Y-110913818D01*
X72561017Y-110946175D01*
X71129625Y-112377568D01*
X71082498Y-112416244D01*
X70928167Y-112604298D01*
X70813489Y-112818846D01*
X70778180Y-112935245D01*
X70742870Y-113051644D01*
X70734371Y-113137935D01*
X70506625Y-112797090D01*
X70216210Y-112506675D01*
X70157100Y-112467179D01*
X70157100Y-111585221D01*
X70216210Y-111545725D01*
X70506625Y-111255310D01*
X70734803Y-110913818D01*
X70891974Y-110534372D01*
X70972100Y-110131555D01*
X70972100Y-109720845D01*
X70891974Y-109318028D01*
X70734803Y-108938582D01*
X70506625Y-108597090D01*
X70216210Y-108306675D01*
X69874718Y-108078497D01*
X69495272Y-107921326D01*
X69092455Y-107841200D01*
X68681745Y-107841200D01*
X68278928Y-107921326D01*
X67899482Y-108078497D01*
X67557990Y-108306675D01*
X67267575Y-108597090D01*
X67071992Y-108889800D01*
X49954347Y-108889800D01*
X49884676Y-108843247D01*
X49650821Y-108746381D01*
X49477973Y-108712000D01*
X49650821Y-108677619D01*
X49884676Y-108580753D01*
X50095140Y-108440125D01*
X50274125Y-108261140D01*
X50414753Y-108050676D01*
X50511619Y-107816821D01*
X50561000Y-107568561D01*
X50561000Y-107453439D01*
X62395000Y-107453439D01*
X62395000Y-107706561D01*
X62444381Y-107954821D01*
X62541247Y-108188676D01*
X62681875Y-108399140D01*
X62860860Y-108578125D01*
X63071324Y-108718753D01*
X63305179Y-108815619D01*
X63553439Y-108865000D01*
X63806561Y-108865000D01*
X64054821Y-108815619D01*
X64288676Y-108718753D01*
X64499140Y-108578125D01*
X64678125Y-108399140D01*
X64818753Y-108188676D01*
X64915619Y-107954821D01*
X64965000Y-107706561D01*
X64965000Y-107453439D01*
X64915619Y-107205179D01*
X64915000Y-107203685D01*
X64915000Y-105520845D01*
X66802100Y-105520845D01*
X66802100Y-105931555D01*
X66882226Y-106334372D01*
X67039397Y-106713818D01*
X67267575Y-107055310D01*
X67557990Y-107345725D01*
X67899482Y-107573903D01*
X68278928Y-107731074D01*
X68681745Y-107811200D01*
X69092455Y-107811200D01*
X69495272Y-107731074D01*
X69874718Y-107573903D01*
X70216210Y-107345725D01*
X70506625Y-107055310D01*
X70734803Y-106713818D01*
X70891974Y-106334372D01*
X70972100Y-105931555D01*
X70972100Y-105520845D01*
X72302100Y-105520845D01*
X72302100Y-105931555D01*
X72382226Y-106334372D01*
X72539397Y-106713818D01*
X72767575Y-107055310D01*
X73057990Y-107345725D01*
X73399482Y-107573903D01*
X73778928Y-107731074D01*
X74181745Y-107811200D01*
X74592455Y-107811200D01*
X74995272Y-107731074D01*
X75374718Y-107573903D01*
X75716210Y-107345725D01*
X76006625Y-107055310D01*
X76234803Y-106713818D01*
X76391974Y-106334372D01*
X76472100Y-105931555D01*
X76472100Y-105520845D01*
X76391974Y-105118028D01*
X76234803Y-104738582D01*
X76006625Y-104397090D01*
X75716210Y-104106675D01*
X75374718Y-103878497D01*
X74995272Y-103721326D01*
X74592455Y-103641200D01*
X74181745Y-103641200D01*
X73778928Y-103721326D01*
X73399482Y-103878497D01*
X73057990Y-104106675D01*
X72767575Y-104397090D01*
X72539397Y-104738582D01*
X72382226Y-105118028D01*
X72302100Y-105520845D01*
X70972100Y-105520845D01*
X70891974Y-105118028D01*
X70734803Y-104738582D01*
X70506625Y-104397090D01*
X70216210Y-104106675D01*
X69874718Y-103878497D01*
X69495272Y-103721326D01*
X69092455Y-103641200D01*
X68681745Y-103641200D01*
X68278928Y-103721326D01*
X67899482Y-103878497D01*
X67557990Y-104106675D01*
X67267575Y-104397090D01*
X67039397Y-104738582D01*
X66882226Y-105118028D01*
X66802100Y-105520845D01*
X64915000Y-105520845D01*
X64915000Y-102982252D01*
X67610653Y-102982252D01*
X67760648Y-103292693D01*
X68126919Y-103478511D01*
X68522403Y-103589301D01*
X68931901Y-103620809D01*
X69339677Y-103571821D01*
X69730062Y-103444221D01*
X70013552Y-103292693D01*
X70163547Y-102982252D01*
X73110653Y-102982252D01*
X73260648Y-103292693D01*
X73626919Y-103478511D01*
X74022403Y-103589301D01*
X74431901Y-103620809D01*
X74839677Y-103571821D01*
X75230062Y-103444221D01*
X75513552Y-103292693D01*
X75663547Y-102982252D01*
X74387100Y-101705805D01*
X73110653Y-102982252D01*
X70163547Y-102982252D01*
X68887100Y-101705805D01*
X67610653Y-102982252D01*
X64915000Y-102982252D01*
X64915000Y-101571001D01*
X66792491Y-101571001D01*
X66841479Y-101978777D01*
X66969079Y-102369162D01*
X67120607Y-102652652D01*
X67431048Y-102802647D01*
X68707495Y-101526200D01*
X69066705Y-101526200D01*
X70343152Y-102802647D01*
X70653593Y-102652652D01*
X70839411Y-102286381D01*
X70950201Y-101890897D01*
X70974814Y-101571001D01*
X72292491Y-101571001D01*
X72341479Y-101978777D01*
X72469079Y-102369162D01*
X72620607Y-102652652D01*
X72931048Y-102802647D01*
X74207495Y-101526200D01*
X74566705Y-101526200D01*
X75843152Y-102802647D01*
X76153593Y-102652652D01*
X76339411Y-102286381D01*
X76450201Y-101890897D01*
X76481709Y-101481399D01*
X76432721Y-101073623D01*
X76305121Y-100683238D01*
X76153593Y-100399748D01*
X75843152Y-100249753D01*
X74566705Y-101526200D01*
X74207495Y-101526200D01*
X72931048Y-100249753D01*
X72620607Y-100399748D01*
X72434789Y-100766019D01*
X72323999Y-101161503D01*
X72292491Y-101571001D01*
X70974814Y-101571001D01*
X70981709Y-101481399D01*
X70932721Y-101073623D01*
X70805121Y-100683238D01*
X70653593Y-100399748D01*
X70343152Y-100249753D01*
X69066705Y-101526200D01*
X68707495Y-101526200D01*
X67431048Y-100249753D01*
X67120607Y-100399748D01*
X66934789Y-100766019D01*
X66823999Y-101161503D01*
X66792491Y-101571001D01*
X64915000Y-101571001D01*
X64915000Y-100070148D01*
X67610653Y-100070148D01*
X68887100Y-101346595D01*
X70163547Y-100070148D01*
X73110653Y-100070148D01*
X74387100Y-101346595D01*
X75663547Y-100070148D01*
X75513552Y-99759707D01*
X75147281Y-99573889D01*
X74751797Y-99463099D01*
X74342299Y-99431591D01*
X73934523Y-99480579D01*
X73544138Y-99608179D01*
X73260648Y-99759707D01*
X73110653Y-100070148D01*
X70163547Y-100070148D01*
X70013552Y-99759707D01*
X69647281Y-99573889D01*
X69251797Y-99463099D01*
X68842299Y-99431591D01*
X68434523Y-99480579D01*
X68044138Y-99608179D01*
X67760648Y-99759707D01*
X67610653Y-100070148D01*
X64915000Y-100070148D01*
X64915000Y-98782252D01*
X67610653Y-98782252D01*
X67760648Y-99092693D01*
X68126919Y-99278511D01*
X68522403Y-99389301D01*
X68931901Y-99420809D01*
X69339677Y-99371821D01*
X69730062Y-99244221D01*
X70013552Y-99092693D01*
X70163547Y-98782252D01*
X68887100Y-97505805D01*
X67610653Y-98782252D01*
X64915000Y-98782252D01*
X64915000Y-97371001D01*
X66792491Y-97371001D01*
X66841479Y-97778777D01*
X66969079Y-98169162D01*
X67120607Y-98452652D01*
X67431048Y-98602647D01*
X68707495Y-97326200D01*
X69066705Y-97326200D01*
X70343152Y-98602647D01*
X70653593Y-98452652D01*
X70839411Y-98086381D01*
X70950201Y-97690897D01*
X70981709Y-97281399D01*
X70962421Y-97120845D01*
X72302100Y-97120845D01*
X72302100Y-97531555D01*
X72382226Y-97934372D01*
X72539397Y-98313818D01*
X72767575Y-98655310D01*
X73057990Y-98945725D01*
X73399482Y-99173903D01*
X73778928Y-99331074D01*
X74181745Y-99411200D01*
X74592455Y-99411200D01*
X74995272Y-99331074D01*
X75374718Y-99173903D01*
X75716210Y-98945725D01*
X76006625Y-98655310D01*
X76234803Y-98313818D01*
X76391974Y-97934372D01*
X76472100Y-97531555D01*
X76472100Y-97120845D01*
X76391974Y-96718028D01*
X76234803Y-96338582D01*
X76006625Y-95997090D01*
X75716210Y-95706675D01*
X75374718Y-95478497D01*
X74995272Y-95321326D01*
X74592455Y-95241200D01*
X74181745Y-95241200D01*
X73778928Y-95321326D01*
X73399482Y-95478497D01*
X73057990Y-95706675D01*
X72767575Y-95997090D01*
X72539397Y-96338582D01*
X72382226Y-96718028D01*
X72302100Y-97120845D01*
X70962421Y-97120845D01*
X70932721Y-96873623D01*
X70805121Y-96483238D01*
X70653593Y-96199748D01*
X70343152Y-96049753D01*
X69066705Y-97326200D01*
X68707495Y-97326200D01*
X67431048Y-96049753D01*
X67120607Y-96199748D01*
X66934789Y-96566019D01*
X66823999Y-96961503D01*
X66792491Y-97371001D01*
X64915000Y-97371001D01*
X64915000Y-95870148D01*
X67610653Y-95870148D01*
X68887100Y-97146595D01*
X70163547Y-95870148D01*
X70013552Y-95559707D01*
X69647281Y-95373889D01*
X69251797Y-95263099D01*
X68842299Y-95231591D01*
X68434523Y-95280579D01*
X68044138Y-95408179D01*
X67760648Y-95559707D01*
X67610653Y-95870148D01*
X64915000Y-95870148D01*
X64915000Y-94644853D01*
X64977601Y-94582252D01*
X67610653Y-94582252D01*
X67760648Y-94892693D01*
X68126919Y-95078511D01*
X68522403Y-95189301D01*
X68931901Y-95220809D01*
X69339677Y-95171821D01*
X69730062Y-95044221D01*
X70013552Y-94892693D01*
X70163547Y-94582252D01*
X73110653Y-94582252D01*
X73260648Y-94892693D01*
X73626919Y-95078511D01*
X74022403Y-95189301D01*
X74431901Y-95220809D01*
X74839677Y-95171821D01*
X75230062Y-95044221D01*
X75513552Y-94892693D01*
X75663547Y-94582252D01*
X74387100Y-93305805D01*
X73110653Y-94582252D01*
X70163547Y-94582252D01*
X68887100Y-93305805D01*
X67610653Y-94582252D01*
X64977601Y-94582252D01*
X66833980Y-92725873D01*
X66823999Y-92761503D01*
X66792491Y-93171001D01*
X66841479Y-93578777D01*
X66969079Y-93969162D01*
X67120607Y-94252652D01*
X67431048Y-94402647D01*
X68707495Y-93126200D01*
X69066705Y-93126200D01*
X70343152Y-94402647D01*
X70653593Y-94252652D01*
X70839411Y-93886381D01*
X70950201Y-93490897D01*
X70974814Y-93171001D01*
X72292491Y-93171001D01*
X72341479Y-93578777D01*
X72469079Y-93969162D01*
X72620607Y-94252652D01*
X72931048Y-94402647D01*
X74207495Y-93126200D01*
X74566705Y-93126200D01*
X75843152Y-94402647D01*
X76153593Y-94252652D01*
X76339411Y-93886381D01*
X76450201Y-93490897D01*
X76481709Y-93081399D01*
X76432721Y-92673623D01*
X76305121Y-92283238D01*
X76153593Y-91999748D01*
X75843152Y-91849753D01*
X74566705Y-93126200D01*
X74207495Y-93126200D01*
X72931048Y-91849753D01*
X72620607Y-91999748D01*
X72434789Y-92366019D01*
X72323999Y-92761503D01*
X72292491Y-93171001D01*
X70974814Y-93171001D01*
X70981709Y-93081399D01*
X70932721Y-92673623D01*
X70805121Y-92283238D01*
X70653593Y-91999748D01*
X70343152Y-91849753D01*
X69066705Y-93126200D01*
X68707495Y-93126200D01*
X68693353Y-93112058D01*
X68872958Y-92932453D01*
X68887100Y-92946595D01*
X70163547Y-91670148D01*
X73110653Y-91670148D01*
X74387100Y-92946595D01*
X75663547Y-91670148D01*
X75513552Y-91359707D01*
X75147281Y-91173889D01*
X74751797Y-91063099D01*
X74342299Y-91031591D01*
X73934523Y-91080579D01*
X73544138Y-91208179D01*
X73260648Y-91359707D01*
X73110653Y-91670148D01*
X70163547Y-91670148D01*
X70013552Y-91359707D01*
X69647281Y-91173889D01*
X69251797Y-91063099D01*
X68842299Y-91031591D01*
X68485385Y-91074469D01*
X68570735Y-90989119D01*
X68681745Y-91011200D01*
X69092455Y-91011200D01*
X69495272Y-90931074D01*
X69874718Y-90773903D01*
X70216210Y-90545725D01*
X70506625Y-90255310D01*
X70734803Y-89913818D01*
X70891974Y-89534372D01*
X70972100Y-89131555D01*
X70972100Y-88720845D01*
X72302100Y-88720845D01*
X72302100Y-89131555D01*
X72382226Y-89534372D01*
X72539397Y-89913818D01*
X72767575Y-90255310D01*
X73057990Y-90545725D01*
X73399482Y-90773903D01*
X73778928Y-90931074D01*
X74181745Y-91011200D01*
X74592455Y-91011200D01*
X74995272Y-90931074D01*
X75374718Y-90773903D01*
X75716210Y-90545725D01*
X76006625Y-90255310D01*
X76234803Y-89913818D01*
X76391974Y-89534372D01*
X76472100Y-89131555D01*
X76472100Y-88720845D01*
X76391974Y-88318028D01*
X76234803Y-87938582D01*
X76006625Y-87597090D01*
X75716210Y-87306675D01*
X75374718Y-87078497D01*
X74995272Y-86921326D01*
X74592455Y-86841200D01*
X74181745Y-86841200D01*
X73778928Y-86921326D01*
X73399482Y-87078497D01*
X73057990Y-87306675D01*
X72767575Y-87597090D01*
X72539397Y-87938582D01*
X72382226Y-88318028D01*
X72302100Y-88720845D01*
X70972100Y-88720845D01*
X70891974Y-88318028D01*
X70734803Y-87938582D01*
X70506625Y-87597090D01*
X70216210Y-87306675D01*
X69874718Y-87078497D01*
X69495272Y-86921326D01*
X69092455Y-86841200D01*
X68681745Y-86841200D01*
X68278928Y-86921326D01*
X67899482Y-87078497D01*
X67557990Y-87306675D01*
X67267575Y-87597090D01*
X67039397Y-87938582D01*
X66882226Y-88318028D01*
X66802100Y-88720845D01*
X66802100Y-89131555D01*
X66824181Y-89242565D01*
X62849625Y-93217122D01*
X62802498Y-93255798D01*
X62648167Y-93443852D01*
X62533489Y-93658400D01*
X62533489Y-93658401D01*
X62462870Y-93891198D01*
X62439025Y-94133300D01*
X62445000Y-94193965D01*
X62445001Y-107203682D01*
X62444381Y-107205179D01*
X62395000Y-107453439D01*
X50561000Y-107453439D01*
X50561000Y-107315439D01*
X50511619Y-107067179D01*
X50414753Y-106833324D01*
X50274125Y-106622860D01*
X50095140Y-106443875D01*
X49884676Y-106303247D01*
X49650821Y-106206381D01*
X49477973Y-106172000D01*
X49650821Y-106137619D01*
X49884676Y-106040753D01*
X50095140Y-105900125D01*
X50274125Y-105721140D01*
X50414753Y-105510676D01*
X50511619Y-105276821D01*
X50561000Y-105028561D01*
X50561000Y-104775439D01*
X50511619Y-104527179D01*
X50414753Y-104293324D01*
X50274125Y-104082860D01*
X50095140Y-103903875D01*
X49884676Y-103763247D01*
X49650821Y-103666381D01*
X49477973Y-103632000D01*
X49650821Y-103597619D01*
X49884676Y-103500753D01*
X50095140Y-103360125D01*
X50274125Y-103181140D01*
X50414753Y-102970676D01*
X50511619Y-102736821D01*
X50561000Y-102488561D01*
X50561000Y-102235439D01*
X50511619Y-101987179D01*
X50414753Y-101753324D01*
X50274125Y-101542860D01*
X50095140Y-101363875D01*
X49884676Y-101223247D01*
X49650821Y-101126381D01*
X49475256Y-101091460D01*
X49602449Y-101071270D01*
X49839896Y-100983578D01*
X49928534Y-100936201D01*
X49981922Y-100707527D01*
X49276000Y-100001605D01*
X48570078Y-100707527D01*
X48623466Y-100936201D01*
X48853374Y-101042095D01*
X49067211Y-101093356D01*
X48901179Y-101126381D01*
X48667324Y-101223247D01*
X48456860Y-101363875D01*
X48277875Y-101542860D01*
X48137247Y-101753324D01*
X48040381Y-101987179D01*
X48006000Y-102160027D01*
X47971619Y-101987179D01*
X47874753Y-101753324D01*
X47734125Y-101542860D01*
X47555140Y-101363875D01*
X47344676Y-101223247D01*
X47110821Y-101126381D01*
X46935256Y-101091460D01*
X47062449Y-101071270D01*
X47299896Y-100983578D01*
X47388534Y-100936201D01*
X47441922Y-100707527D01*
X46736000Y-100001605D01*
X46030078Y-100707527D01*
X46083466Y-100936201D01*
X46313374Y-101042095D01*
X46527211Y-101093356D01*
X46361179Y-101126381D01*
X46127324Y-101223247D01*
X45916860Y-101363875D01*
X45737875Y-101542860D01*
X45597247Y-101753324D01*
X45500381Y-101987179D01*
X45451000Y-102235439D01*
X40843200Y-102235439D01*
X40843200Y-99898455D01*
X45447048Y-99898455D01*
X45486730Y-100148449D01*
X45574422Y-100385896D01*
X45621799Y-100474534D01*
X45850473Y-100527922D01*
X46556395Y-99822000D01*
X46915605Y-99822000D01*
X47621527Y-100527922D01*
X47850201Y-100474534D01*
X47956095Y-100244626D01*
X48007776Y-100029038D01*
X48026730Y-100148449D01*
X48114422Y-100385896D01*
X48161799Y-100474534D01*
X48390473Y-100527922D01*
X49096395Y-99822000D01*
X49455605Y-99822000D01*
X50161527Y-100527922D01*
X50390201Y-100474534D01*
X50496095Y-100244626D01*
X50555102Y-99998476D01*
X50564952Y-99745545D01*
X50525270Y-99495551D01*
X50437578Y-99258104D01*
X50390201Y-99169466D01*
X50161527Y-99116078D01*
X49455605Y-99822000D01*
X49096395Y-99822000D01*
X48390473Y-99116078D01*
X48161799Y-99169466D01*
X48055905Y-99399374D01*
X48004224Y-99614962D01*
X47985270Y-99495551D01*
X47897578Y-99258104D01*
X47850201Y-99169466D01*
X47621527Y-99116078D01*
X46915605Y-99822000D01*
X46556395Y-99822000D01*
X45850473Y-99116078D01*
X45621799Y-99169466D01*
X45515905Y-99399374D01*
X45456898Y-99645524D01*
X45447048Y-99898455D01*
X40843200Y-99898455D01*
X40843200Y-98167527D01*
X46030078Y-98167527D01*
X46083466Y-98396201D01*
X46313374Y-98502095D01*
X46528962Y-98553776D01*
X46409551Y-98572730D01*
X46172104Y-98660422D01*
X46083466Y-98707799D01*
X46030078Y-98936473D01*
X46736000Y-99642395D01*
X47441922Y-98936473D01*
X47388534Y-98707799D01*
X47158626Y-98601905D01*
X46943038Y-98550224D01*
X47062449Y-98531270D01*
X47299896Y-98443578D01*
X47388534Y-98396201D01*
X47441922Y-98167527D01*
X48570078Y-98167527D01*
X48623466Y-98396201D01*
X48853374Y-98502095D01*
X49068962Y-98553776D01*
X48949551Y-98572730D01*
X48712104Y-98660422D01*
X48623466Y-98707799D01*
X48570078Y-98936473D01*
X49276000Y-99642395D01*
X49981922Y-98936473D01*
X49928534Y-98707799D01*
X49698626Y-98601905D01*
X49483038Y-98550224D01*
X49602449Y-98531270D01*
X49839896Y-98443578D01*
X49928534Y-98396201D01*
X49981922Y-98167527D01*
X49276000Y-97461605D01*
X48570078Y-98167527D01*
X47441922Y-98167527D01*
X46736000Y-97461605D01*
X46030078Y-98167527D01*
X40843200Y-98167527D01*
X40843200Y-97358455D01*
X45447048Y-97358455D01*
X45486730Y-97608449D01*
X45574422Y-97845896D01*
X45621799Y-97934534D01*
X45850473Y-97987922D01*
X46556395Y-97282000D01*
X46915605Y-97282000D01*
X47621527Y-97987922D01*
X47850201Y-97934534D01*
X47956095Y-97704626D01*
X48007776Y-97489038D01*
X48026730Y-97608449D01*
X48114422Y-97845896D01*
X48161799Y-97934534D01*
X48390473Y-97987922D01*
X49096395Y-97282000D01*
X49455605Y-97282000D01*
X50161527Y-97987922D01*
X50390201Y-97934534D01*
X50496095Y-97704626D01*
X50555102Y-97458476D01*
X50564952Y-97205545D01*
X50525270Y-96955551D01*
X50437578Y-96718104D01*
X50390201Y-96629466D01*
X50161527Y-96576078D01*
X49455605Y-97282000D01*
X49096395Y-97282000D01*
X48390473Y-96576078D01*
X48161799Y-96629466D01*
X48055905Y-96859374D01*
X48004224Y-97074962D01*
X47985270Y-96955551D01*
X47897578Y-96718104D01*
X47850201Y-96629466D01*
X47621527Y-96576078D01*
X46915605Y-97282000D01*
X46556395Y-97282000D01*
X45850473Y-96576078D01*
X45621799Y-96629466D01*
X45515905Y-96859374D01*
X45456898Y-97105524D01*
X45447048Y-97358455D01*
X40843200Y-97358455D01*
X40843200Y-95627527D01*
X46030078Y-95627527D01*
X46083466Y-95856201D01*
X46313374Y-95962095D01*
X46528962Y-96013776D01*
X46409551Y-96032730D01*
X46172104Y-96120422D01*
X46083466Y-96167799D01*
X46030078Y-96396473D01*
X46736000Y-97102395D01*
X47441922Y-96396473D01*
X47388534Y-96167799D01*
X47158626Y-96061905D01*
X46943038Y-96010224D01*
X47062449Y-95991270D01*
X47299896Y-95903578D01*
X47388534Y-95856201D01*
X47441922Y-95627527D01*
X48570078Y-95627527D01*
X48623466Y-95856201D01*
X48853374Y-95962095D01*
X49068962Y-96013776D01*
X48949551Y-96032730D01*
X48712104Y-96120422D01*
X48623466Y-96167799D01*
X48570078Y-96396473D01*
X49276000Y-97102395D01*
X49981922Y-96396473D01*
X49928534Y-96167799D01*
X49698626Y-96061905D01*
X49483038Y-96010224D01*
X49602449Y-95991270D01*
X49839896Y-95903578D01*
X49928534Y-95856201D01*
X49981922Y-95627527D01*
X49276000Y-94921605D01*
X48570078Y-95627527D01*
X47441922Y-95627527D01*
X46736000Y-94921605D01*
X46030078Y-95627527D01*
X40843200Y-95627527D01*
X40843200Y-94818455D01*
X45447048Y-94818455D01*
X45486730Y-95068449D01*
X45574422Y-95305896D01*
X45621799Y-95394534D01*
X45850473Y-95447922D01*
X46556395Y-94742000D01*
X46915605Y-94742000D01*
X47621527Y-95447922D01*
X47850201Y-95394534D01*
X47956095Y-95164626D01*
X48007776Y-94949038D01*
X48026730Y-95068449D01*
X48114422Y-95305896D01*
X48161799Y-95394534D01*
X48390473Y-95447922D01*
X49096395Y-94742000D01*
X49455605Y-94742000D01*
X50161527Y-95447922D01*
X50390201Y-95394534D01*
X50496095Y-95164626D01*
X50555102Y-94918476D01*
X50564952Y-94665545D01*
X50525270Y-94415551D01*
X50437578Y-94178104D01*
X50390201Y-94089466D01*
X50161527Y-94036078D01*
X49455605Y-94742000D01*
X49096395Y-94742000D01*
X48390473Y-94036078D01*
X48161799Y-94089466D01*
X48055905Y-94319374D01*
X48004224Y-94534962D01*
X47985270Y-94415551D01*
X47897578Y-94178104D01*
X47850201Y-94089466D01*
X47621527Y-94036078D01*
X46915605Y-94742000D01*
X46556395Y-94742000D01*
X45850473Y-94036078D01*
X45621799Y-94089466D01*
X45515905Y-94319374D01*
X45456898Y-94565524D01*
X45447048Y-94818455D01*
X40843200Y-94818455D01*
X40843200Y-93087527D01*
X46030078Y-93087527D01*
X46083466Y-93316201D01*
X46313374Y-93422095D01*
X46528962Y-93473776D01*
X46409551Y-93492730D01*
X46172104Y-93580422D01*
X46083466Y-93627799D01*
X46030078Y-93856473D01*
X46736000Y-94562395D01*
X47441922Y-93856473D01*
X47388534Y-93627799D01*
X47158626Y-93521905D01*
X46943038Y-93470224D01*
X47062449Y-93451270D01*
X47299896Y-93363578D01*
X47388534Y-93316201D01*
X47441922Y-93087527D01*
X48570078Y-93087527D01*
X48623466Y-93316201D01*
X48853374Y-93422095D01*
X49068962Y-93473776D01*
X48949551Y-93492730D01*
X48712104Y-93580422D01*
X48623466Y-93627799D01*
X48570078Y-93856473D01*
X49276000Y-94562395D01*
X49981922Y-93856473D01*
X49928534Y-93627799D01*
X49698626Y-93521905D01*
X49483038Y-93470224D01*
X49602449Y-93451270D01*
X49839896Y-93363578D01*
X49928534Y-93316201D01*
X49981922Y-93087527D01*
X49276000Y-92381605D01*
X48570078Y-93087527D01*
X47441922Y-93087527D01*
X46736000Y-92381605D01*
X46030078Y-93087527D01*
X40843200Y-93087527D01*
X40843200Y-92278455D01*
X45447048Y-92278455D01*
X45486730Y-92528449D01*
X45574422Y-92765896D01*
X45621799Y-92854534D01*
X45850473Y-92907922D01*
X46556395Y-92202000D01*
X46915605Y-92202000D01*
X47621527Y-92907922D01*
X47850201Y-92854534D01*
X47956095Y-92624626D01*
X48007776Y-92409038D01*
X48026730Y-92528449D01*
X48114422Y-92765896D01*
X48161799Y-92854534D01*
X48390473Y-92907922D01*
X49096395Y-92202000D01*
X49455605Y-92202000D01*
X50161527Y-92907922D01*
X50390201Y-92854534D01*
X50496095Y-92624626D01*
X50555102Y-92378476D01*
X50564952Y-92125545D01*
X50525270Y-91875551D01*
X50437578Y-91638104D01*
X50390201Y-91549466D01*
X50161527Y-91496078D01*
X49455605Y-92202000D01*
X49096395Y-92202000D01*
X48390473Y-91496078D01*
X48161799Y-91549466D01*
X48055905Y-91779374D01*
X48004224Y-91994962D01*
X47985270Y-91875551D01*
X47897578Y-91638104D01*
X47850201Y-91549466D01*
X47621527Y-91496078D01*
X46915605Y-92202000D01*
X46556395Y-92202000D01*
X45850473Y-91496078D01*
X45621799Y-91549466D01*
X45515905Y-91779374D01*
X45456898Y-92025524D01*
X45447048Y-92278455D01*
X40843200Y-92278455D01*
X40843200Y-90547527D01*
X46030078Y-90547527D01*
X46083466Y-90776201D01*
X46313374Y-90882095D01*
X46528962Y-90933776D01*
X46409551Y-90952730D01*
X46172104Y-91040422D01*
X46083466Y-91087799D01*
X46030078Y-91316473D01*
X46736000Y-92022395D01*
X47441922Y-91316473D01*
X47388534Y-91087799D01*
X47158626Y-90981905D01*
X46943038Y-90930224D01*
X47062449Y-90911270D01*
X47299896Y-90823578D01*
X47388534Y-90776201D01*
X47441922Y-90547527D01*
X48570078Y-90547527D01*
X48623466Y-90776201D01*
X48853374Y-90882095D01*
X49068962Y-90933776D01*
X48949551Y-90952730D01*
X48712104Y-91040422D01*
X48623466Y-91087799D01*
X48570078Y-91316473D01*
X49276000Y-92022395D01*
X49981922Y-91316473D01*
X49928534Y-91087799D01*
X49698626Y-90981905D01*
X49483038Y-90930224D01*
X49602449Y-90911270D01*
X49839896Y-90823578D01*
X49928534Y-90776201D01*
X49981922Y-90547527D01*
X49276000Y-89841605D01*
X48570078Y-90547527D01*
X47441922Y-90547527D01*
X46736000Y-89841605D01*
X46030078Y-90547527D01*
X40843200Y-90547527D01*
X40843200Y-89738455D01*
X45447048Y-89738455D01*
X45486730Y-89988449D01*
X45574422Y-90225896D01*
X45621799Y-90314534D01*
X45850473Y-90367922D01*
X46556395Y-89662000D01*
X46915605Y-89662000D01*
X47621527Y-90367922D01*
X47850201Y-90314534D01*
X47956095Y-90084626D01*
X48007776Y-89869038D01*
X48026730Y-89988449D01*
X48114422Y-90225896D01*
X48161799Y-90314534D01*
X48390473Y-90367922D01*
X49096395Y-89662000D01*
X49455605Y-89662000D01*
X50161527Y-90367922D01*
X50390201Y-90314534D01*
X50496095Y-90084626D01*
X50555102Y-89838476D01*
X50564952Y-89585545D01*
X50525270Y-89335551D01*
X50437578Y-89098104D01*
X50390201Y-89009466D01*
X50161527Y-88956078D01*
X49455605Y-89662000D01*
X49096395Y-89662000D01*
X48390473Y-88956078D01*
X48161799Y-89009466D01*
X48055905Y-89239374D01*
X48004224Y-89454962D01*
X47985270Y-89335551D01*
X47897578Y-89098104D01*
X47850201Y-89009466D01*
X47621527Y-88956078D01*
X46915605Y-89662000D01*
X46556395Y-89662000D01*
X45850473Y-88956078D01*
X45621799Y-89009466D01*
X45515905Y-89239374D01*
X45456898Y-89485524D01*
X45447048Y-89738455D01*
X40843200Y-89738455D01*
X40843200Y-88007527D01*
X46030078Y-88007527D01*
X46083466Y-88236201D01*
X46313374Y-88342095D01*
X46528962Y-88393776D01*
X46409551Y-88412730D01*
X46172104Y-88500422D01*
X46083466Y-88547799D01*
X46030078Y-88776473D01*
X46736000Y-89482395D01*
X47441922Y-88776473D01*
X47388534Y-88547799D01*
X47158626Y-88441905D01*
X46943038Y-88390224D01*
X47062449Y-88371270D01*
X47299896Y-88283578D01*
X47388534Y-88236201D01*
X47441922Y-88007527D01*
X48570078Y-88007527D01*
X48623466Y-88236201D01*
X48853374Y-88342095D01*
X49068962Y-88393776D01*
X48949551Y-88412730D01*
X48712104Y-88500422D01*
X48623466Y-88547799D01*
X48570078Y-88776473D01*
X49276000Y-89482395D01*
X49981922Y-88776473D01*
X49928534Y-88547799D01*
X49698626Y-88441905D01*
X49483038Y-88390224D01*
X49602449Y-88371270D01*
X49839896Y-88283578D01*
X49928534Y-88236201D01*
X49981922Y-88007527D01*
X49276000Y-87301605D01*
X48570078Y-88007527D01*
X47441922Y-88007527D01*
X46736000Y-87301605D01*
X46030078Y-88007527D01*
X40843200Y-88007527D01*
X40843200Y-87198455D01*
X45447048Y-87198455D01*
X45486730Y-87448449D01*
X45574422Y-87685896D01*
X45621799Y-87774534D01*
X45850473Y-87827922D01*
X46556395Y-87122000D01*
X46915605Y-87122000D01*
X47621527Y-87827922D01*
X47850201Y-87774534D01*
X47956095Y-87544626D01*
X48007776Y-87329038D01*
X48026730Y-87448449D01*
X48114422Y-87685896D01*
X48161799Y-87774534D01*
X48390473Y-87827922D01*
X49096395Y-87122000D01*
X49455605Y-87122000D01*
X50161527Y-87827922D01*
X50390201Y-87774534D01*
X50496095Y-87544626D01*
X50555102Y-87298476D01*
X50564952Y-87045545D01*
X50525270Y-86795551D01*
X50437578Y-86558104D01*
X50390201Y-86469466D01*
X50161527Y-86416078D01*
X49455605Y-87122000D01*
X49096395Y-87122000D01*
X48390473Y-86416078D01*
X48161799Y-86469466D01*
X48055905Y-86699374D01*
X48004224Y-86914962D01*
X47985270Y-86795551D01*
X47897578Y-86558104D01*
X47850201Y-86469466D01*
X47621527Y-86416078D01*
X46915605Y-87122000D01*
X46556395Y-87122000D01*
X45850473Y-86416078D01*
X45621799Y-86469466D01*
X45515905Y-86699374D01*
X45456898Y-86945524D01*
X45447048Y-87198455D01*
X40843200Y-87198455D01*
X40843200Y-85467527D01*
X46030078Y-85467527D01*
X46083466Y-85696201D01*
X46313374Y-85802095D01*
X46528962Y-85853776D01*
X46409551Y-85872730D01*
X46172104Y-85960422D01*
X46083466Y-86007799D01*
X46030078Y-86236473D01*
X46736000Y-86942395D01*
X47441922Y-86236473D01*
X47388534Y-86007799D01*
X47158626Y-85901905D01*
X46943038Y-85850224D01*
X47062449Y-85831270D01*
X47299896Y-85743578D01*
X47388534Y-85696201D01*
X47441922Y-85467527D01*
X48570078Y-85467527D01*
X48623466Y-85696201D01*
X48853374Y-85802095D01*
X49068962Y-85853776D01*
X48949551Y-85872730D01*
X48712104Y-85960422D01*
X48623466Y-86007799D01*
X48570078Y-86236473D01*
X49276000Y-86942395D01*
X49981922Y-86236473D01*
X49969264Y-86182252D01*
X67610653Y-86182252D01*
X67760648Y-86492693D01*
X68126919Y-86678511D01*
X68522403Y-86789301D01*
X68931901Y-86820809D01*
X69339677Y-86771821D01*
X69730062Y-86644221D01*
X70013552Y-86492693D01*
X70163547Y-86182252D01*
X73110653Y-86182252D01*
X73260648Y-86492693D01*
X73626919Y-86678511D01*
X74022403Y-86789301D01*
X74431901Y-86820809D01*
X74839677Y-86771821D01*
X75230062Y-86644221D01*
X75513552Y-86492693D01*
X75663547Y-86182252D01*
X74387100Y-84905805D01*
X73110653Y-86182252D01*
X70163547Y-86182252D01*
X68887100Y-84905805D01*
X67610653Y-86182252D01*
X49969264Y-86182252D01*
X49928534Y-86007799D01*
X49698626Y-85901905D01*
X49483038Y-85850224D01*
X49602449Y-85831270D01*
X49839896Y-85743578D01*
X49928534Y-85696201D01*
X49981922Y-85467527D01*
X49276000Y-84761605D01*
X48570078Y-85467527D01*
X47441922Y-85467527D01*
X46736000Y-84761605D01*
X46030078Y-85467527D01*
X40843200Y-85467527D01*
X40843200Y-84658455D01*
X45447048Y-84658455D01*
X45486730Y-84908449D01*
X45574422Y-85145896D01*
X45621799Y-85234534D01*
X45850473Y-85287922D01*
X46556395Y-84582000D01*
X46915605Y-84582000D01*
X47621527Y-85287922D01*
X47850201Y-85234534D01*
X47956095Y-85004626D01*
X48007776Y-84789038D01*
X48026730Y-84908449D01*
X48114422Y-85145896D01*
X48161799Y-85234534D01*
X48390473Y-85287922D01*
X49096395Y-84582000D01*
X49455605Y-84582000D01*
X50161527Y-85287922D01*
X50390201Y-85234534D01*
X50496095Y-85004626D01*
X50552099Y-84771001D01*
X66792491Y-84771001D01*
X66841479Y-85178777D01*
X66969079Y-85569162D01*
X67120607Y-85852652D01*
X67431048Y-86002647D01*
X68707495Y-84726200D01*
X69066705Y-84726200D01*
X70343152Y-86002647D01*
X70653593Y-85852652D01*
X70839411Y-85486381D01*
X70950201Y-85090897D01*
X70974814Y-84771001D01*
X72292491Y-84771001D01*
X72341479Y-85178777D01*
X72469079Y-85569162D01*
X72620607Y-85852652D01*
X72931048Y-86002647D01*
X74207495Y-84726200D01*
X74566705Y-84726200D01*
X75843152Y-86002647D01*
X76153593Y-85852652D01*
X76339411Y-85486381D01*
X76450201Y-85090897D01*
X76481709Y-84681399D01*
X76432721Y-84273623D01*
X76305121Y-83883238D01*
X76153593Y-83599748D01*
X75843152Y-83449753D01*
X74566705Y-84726200D01*
X74207495Y-84726200D01*
X72931048Y-83449753D01*
X72620607Y-83599748D01*
X72434789Y-83966019D01*
X72323999Y-84361503D01*
X72292491Y-84771001D01*
X70974814Y-84771001D01*
X70981709Y-84681399D01*
X70932721Y-84273623D01*
X70805121Y-83883238D01*
X70653593Y-83599748D01*
X70343152Y-83449753D01*
X69066705Y-84726200D01*
X68707495Y-84726200D01*
X67431048Y-83449753D01*
X67120607Y-83599748D01*
X66934789Y-83966019D01*
X66823999Y-84361503D01*
X66792491Y-84771001D01*
X50552099Y-84771001D01*
X50555102Y-84758476D01*
X50564952Y-84505545D01*
X50525270Y-84255551D01*
X50437578Y-84018104D01*
X50390201Y-83929466D01*
X50161527Y-83876078D01*
X49455605Y-84582000D01*
X49096395Y-84582000D01*
X48390473Y-83876078D01*
X48161799Y-83929466D01*
X48055905Y-84159374D01*
X48004224Y-84374962D01*
X47985270Y-84255551D01*
X47897578Y-84018104D01*
X47850201Y-83929466D01*
X47621527Y-83876078D01*
X46915605Y-84582000D01*
X46556395Y-84582000D01*
X45850473Y-83876078D01*
X45621799Y-83929466D01*
X45515905Y-84159374D01*
X45456898Y-84405524D01*
X45447048Y-84658455D01*
X40843200Y-84658455D01*
X40843200Y-82927527D01*
X46030078Y-82927527D01*
X46083466Y-83156201D01*
X46313374Y-83262095D01*
X46528962Y-83313776D01*
X46409551Y-83332730D01*
X46172104Y-83420422D01*
X46083466Y-83467799D01*
X46030078Y-83696473D01*
X46736000Y-84402395D01*
X47441922Y-83696473D01*
X47388534Y-83467799D01*
X47158626Y-83361905D01*
X46943038Y-83310224D01*
X47062449Y-83291270D01*
X47299896Y-83203578D01*
X47388534Y-83156201D01*
X47441922Y-82927527D01*
X48570078Y-82927527D01*
X48623466Y-83156201D01*
X48853374Y-83262095D01*
X49068962Y-83313776D01*
X48949551Y-83332730D01*
X48712104Y-83420422D01*
X48623466Y-83467799D01*
X48570078Y-83696473D01*
X49276000Y-84402395D01*
X49981922Y-83696473D01*
X49928534Y-83467799D01*
X49698626Y-83361905D01*
X49483038Y-83310224D01*
X49602449Y-83291270D01*
X49659641Y-83270148D01*
X67610653Y-83270148D01*
X68887100Y-84546595D01*
X70163547Y-83270148D01*
X73110653Y-83270148D01*
X74387100Y-84546595D01*
X75663547Y-83270148D01*
X75513552Y-82959707D01*
X75147281Y-82773889D01*
X74751797Y-82663099D01*
X74342299Y-82631591D01*
X73934523Y-82680579D01*
X73544138Y-82808179D01*
X73260648Y-82959707D01*
X73110653Y-83270148D01*
X70163547Y-83270148D01*
X70013552Y-82959707D01*
X69647281Y-82773889D01*
X69251797Y-82663099D01*
X68842299Y-82631591D01*
X68434523Y-82680579D01*
X68044138Y-82808179D01*
X67760648Y-82959707D01*
X67610653Y-83270148D01*
X49659641Y-83270148D01*
X49839896Y-83203578D01*
X49928534Y-83156201D01*
X49981922Y-82927527D01*
X49276000Y-82221605D01*
X48570078Y-82927527D01*
X47441922Y-82927527D01*
X46736000Y-82221605D01*
X46030078Y-82927527D01*
X40843200Y-82927527D01*
X40843200Y-82118455D01*
X45447048Y-82118455D01*
X45486730Y-82368449D01*
X45574422Y-82605896D01*
X45621799Y-82694534D01*
X45850473Y-82747922D01*
X46556395Y-82042000D01*
X46915605Y-82042000D01*
X47621527Y-82747922D01*
X47850201Y-82694534D01*
X47956095Y-82464626D01*
X48007776Y-82249038D01*
X48026730Y-82368449D01*
X48114422Y-82605896D01*
X48161799Y-82694534D01*
X48390473Y-82747922D01*
X49096395Y-82042000D01*
X49455605Y-82042000D01*
X50161527Y-82747922D01*
X50390201Y-82694534D01*
X50496095Y-82464626D01*
X50555102Y-82218476D01*
X50564952Y-81965545D01*
X50525270Y-81715551D01*
X50437578Y-81478104D01*
X50390201Y-81389466D01*
X50161527Y-81336078D01*
X49455605Y-82042000D01*
X49096395Y-82042000D01*
X48390473Y-81336078D01*
X48161799Y-81389466D01*
X48055905Y-81619374D01*
X48004224Y-81834962D01*
X47985270Y-81715551D01*
X47897578Y-81478104D01*
X47850201Y-81389466D01*
X47621527Y-81336078D01*
X46915605Y-82042000D01*
X46556395Y-82042000D01*
X45850473Y-81336078D01*
X45621799Y-81389466D01*
X45515905Y-81619374D01*
X45456898Y-81865524D01*
X45447048Y-82118455D01*
X40843200Y-82118455D01*
X40843200Y-80387527D01*
X46030078Y-80387527D01*
X46083466Y-80616201D01*
X46313374Y-80722095D01*
X46528962Y-80773776D01*
X46409551Y-80792730D01*
X46172104Y-80880422D01*
X46083466Y-80927799D01*
X46030078Y-81156473D01*
X46736000Y-81862395D01*
X47441922Y-81156473D01*
X47388534Y-80927799D01*
X47158626Y-80821905D01*
X46943038Y-80770224D01*
X47062449Y-80751270D01*
X47299896Y-80663578D01*
X47388534Y-80616201D01*
X47441922Y-80387527D01*
X48570078Y-80387527D01*
X48623466Y-80616201D01*
X48853374Y-80722095D01*
X49068962Y-80773776D01*
X48949551Y-80792730D01*
X48712104Y-80880422D01*
X48623466Y-80927799D01*
X48570078Y-81156473D01*
X49276000Y-81862395D01*
X49981922Y-81156473D01*
X49928534Y-80927799D01*
X49698626Y-80821905D01*
X49483038Y-80770224D01*
X49602449Y-80751270D01*
X49839896Y-80663578D01*
X49928534Y-80616201D01*
X49981922Y-80387527D01*
X49915240Y-80320845D01*
X66802100Y-80320845D01*
X66802100Y-80731555D01*
X66882226Y-81134372D01*
X67039397Y-81513818D01*
X67267575Y-81855310D01*
X67557990Y-82145725D01*
X67899482Y-82373903D01*
X68278928Y-82531074D01*
X68681745Y-82611200D01*
X69092455Y-82611200D01*
X69495272Y-82531074D01*
X69874718Y-82373903D01*
X70216210Y-82145725D01*
X70506625Y-81855310D01*
X70734803Y-81513818D01*
X70891974Y-81134372D01*
X70972100Y-80731555D01*
X70972100Y-80320845D01*
X72302100Y-80320845D01*
X72302100Y-80731555D01*
X72382226Y-81134372D01*
X72539397Y-81513818D01*
X72767575Y-81855310D01*
X73057990Y-82145725D01*
X73399482Y-82373903D01*
X73778928Y-82531074D01*
X74181745Y-82611200D01*
X74592455Y-82611200D01*
X74995272Y-82531074D01*
X75374718Y-82373903D01*
X75716210Y-82145725D01*
X76006625Y-81855310D01*
X76234803Y-81513818D01*
X76391974Y-81134372D01*
X76472100Y-80731555D01*
X76472100Y-80320845D01*
X76391974Y-79918028D01*
X76234803Y-79538582D01*
X76006625Y-79197090D01*
X75716210Y-78906675D01*
X75374718Y-78678497D01*
X74995272Y-78521326D01*
X74592455Y-78441200D01*
X74181745Y-78441200D01*
X73778928Y-78521326D01*
X73399482Y-78678497D01*
X73057990Y-78906675D01*
X72767575Y-79197090D01*
X72539397Y-79538582D01*
X72382226Y-79918028D01*
X72302100Y-80320845D01*
X70972100Y-80320845D01*
X70891974Y-79918028D01*
X70734803Y-79538582D01*
X70506625Y-79197090D01*
X70216210Y-78906675D01*
X69874718Y-78678497D01*
X69495272Y-78521326D01*
X69092455Y-78441200D01*
X68681745Y-78441200D01*
X68278928Y-78521326D01*
X67899482Y-78678497D01*
X67557990Y-78906675D01*
X67267575Y-79197090D01*
X67039397Y-79538582D01*
X66882226Y-79918028D01*
X66802100Y-80320845D01*
X49915240Y-80320845D01*
X49276000Y-79681605D01*
X48570078Y-80387527D01*
X47441922Y-80387527D01*
X46736000Y-79681605D01*
X46030078Y-80387527D01*
X40843200Y-80387527D01*
X40843200Y-79578455D01*
X45447048Y-79578455D01*
X45486730Y-79828449D01*
X45574422Y-80065896D01*
X45621799Y-80154534D01*
X45850473Y-80207922D01*
X46556395Y-79502000D01*
X46915605Y-79502000D01*
X47621527Y-80207922D01*
X47850201Y-80154534D01*
X47956095Y-79924626D01*
X48007776Y-79709038D01*
X48026730Y-79828449D01*
X48114422Y-80065896D01*
X48161799Y-80154534D01*
X48390473Y-80207922D01*
X49096395Y-79502000D01*
X49455605Y-79502000D01*
X50161527Y-80207922D01*
X50390201Y-80154534D01*
X50496095Y-79924626D01*
X50555102Y-79678476D01*
X50564952Y-79425545D01*
X50525270Y-79175551D01*
X50437578Y-78938104D01*
X50390201Y-78849466D01*
X50161527Y-78796078D01*
X49455605Y-79502000D01*
X49096395Y-79502000D01*
X48390473Y-78796078D01*
X48161799Y-78849466D01*
X48055905Y-79079374D01*
X48004224Y-79294962D01*
X47985270Y-79175551D01*
X47897578Y-78938104D01*
X47850201Y-78849466D01*
X47621527Y-78796078D01*
X46915605Y-79502000D01*
X46556395Y-79502000D01*
X45850473Y-78796078D01*
X45621799Y-78849466D01*
X45515905Y-79079374D01*
X45456898Y-79325524D01*
X45447048Y-79578455D01*
X40843200Y-79578455D01*
X40843200Y-77847527D01*
X46030078Y-77847527D01*
X46083466Y-78076201D01*
X46313374Y-78182095D01*
X46528962Y-78233776D01*
X46409551Y-78252730D01*
X46172104Y-78340422D01*
X46083466Y-78387799D01*
X46030078Y-78616473D01*
X46736000Y-79322395D01*
X47441922Y-78616473D01*
X47388534Y-78387799D01*
X47158626Y-78281905D01*
X46943038Y-78230224D01*
X47062449Y-78211270D01*
X47299896Y-78123578D01*
X47388534Y-78076201D01*
X47441922Y-77847527D01*
X48570078Y-77847527D01*
X48623466Y-78076201D01*
X48853374Y-78182095D01*
X49068962Y-78233776D01*
X48949551Y-78252730D01*
X48712104Y-78340422D01*
X48623466Y-78387799D01*
X48570078Y-78616473D01*
X49276000Y-79322395D01*
X49981922Y-78616473D01*
X49928534Y-78387799D01*
X49698626Y-78281905D01*
X49483038Y-78230224D01*
X49602449Y-78211270D01*
X49839896Y-78123578D01*
X49928534Y-78076201D01*
X49981922Y-77847527D01*
X49276000Y-77141605D01*
X48570078Y-77847527D01*
X47441922Y-77847527D01*
X46736000Y-77141605D01*
X46030078Y-77847527D01*
X40843200Y-77847527D01*
X40843200Y-77038455D01*
X45447048Y-77038455D01*
X45486730Y-77288449D01*
X45574422Y-77525896D01*
X45621799Y-77614534D01*
X45850473Y-77667922D01*
X46556395Y-76962000D01*
X46915605Y-76962000D01*
X47621527Y-77667922D01*
X47850201Y-77614534D01*
X47956095Y-77384626D01*
X48007776Y-77169038D01*
X48026730Y-77288449D01*
X48114422Y-77525896D01*
X48161799Y-77614534D01*
X48390473Y-77667922D01*
X49096395Y-76962000D01*
X49455605Y-76962000D01*
X50161527Y-77667922D01*
X50390201Y-77614534D01*
X50496095Y-77384626D01*
X50555102Y-77138476D01*
X50564952Y-76885545D01*
X50525270Y-76635551D01*
X50437578Y-76398104D01*
X50390201Y-76309466D01*
X50161527Y-76256078D01*
X49455605Y-76962000D01*
X49096395Y-76962000D01*
X48390473Y-76256078D01*
X48161799Y-76309466D01*
X48055905Y-76539374D01*
X48004224Y-76754962D01*
X47985270Y-76635551D01*
X47897578Y-76398104D01*
X47850201Y-76309466D01*
X47621527Y-76256078D01*
X46915605Y-76962000D01*
X46556395Y-76962000D01*
X45850473Y-76256078D01*
X45621799Y-76309466D01*
X45515905Y-76539374D01*
X45456898Y-76785524D01*
X45447048Y-77038455D01*
X40843200Y-77038455D01*
X40843200Y-75307527D01*
X46030078Y-75307527D01*
X46083466Y-75536201D01*
X46313374Y-75642095D01*
X46528962Y-75693776D01*
X46409551Y-75712730D01*
X46172104Y-75800422D01*
X46083466Y-75847799D01*
X46030078Y-76076473D01*
X46736000Y-76782395D01*
X47441922Y-76076473D01*
X47388534Y-75847799D01*
X47158626Y-75741905D01*
X46943038Y-75690224D01*
X47062449Y-75671270D01*
X47299896Y-75583578D01*
X47388534Y-75536201D01*
X47441922Y-75307527D01*
X48570078Y-75307527D01*
X48623466Y-75536201D01*
X48853374Y-75642095D01*
X49068962Y-75693776D01*
X48949551Y-75712730D01*
X48712104Y-75800422D01*
X48623466Y-75847799D01*
X48570078Y-76076473D01*
X49276000Y-76782395D01*
X49937550Y-76120845D01*
X66802100Y-76120845D01*
X66802100Y-76531555D01*
X66882226Y-76934372D01*
X67039397Y-77313818D01*
X67267575Y-77655310D01*
X67557990Y-77945725D01*
X67899482Y-78173903D01*
X68278928Y-78331074D01*
X68681745Y-78411200D01*
X69092455Y-78411200D01*
X69495272Y-78331074D01*
X69874718Y-78173903D01*
X70216210Y-77945725D01*
X70506625Y-77655310D01*
X70734803Y-77313818D01*
X70891974Y-76934372D01*
X70972100Y-76531555D01*
X70972100Y-76120845D01*
X72302100Y-76120845D01*
X72302100Y-76531555D01*
X72382226Y-76934372D01*
X72539397Y-77313818D01*
X72767575Y-77655310D01*
X73057990Y-77945725D01*
X73399482Y-78173903D01*
X73778928Y-78331074D01*
X74181745Y-78411200D01*
X74592455Y-78411200D01*
X74995272Y-78331074D01*
X75374718Y-78173903D01*
X75716210Y-77945725D01*
X76006625Y-77655310D01*
X76234803Y-77313818D01*
X76391974Y-76934372D01*
X76472100Y-76531555D01*
X76472100Y-76120845D01*
X76391974Y-75718028D01*
X76234803Y-75338582D01*
X76006625Y-74997090D01*
X75716210Y-74706675D01*
X75374718Y-74478497D01*
X74995272Y-74321326D01*
X74592455Y-74241200D01*
X74181745Y-74241200D01*
X73778928Y-74321326D01*
X73399482Y-74478497D01*
X73057990Y-74706675D01*
X72767575Y-74997090D01*
X72539397Y-75338582D01*
X72382226Y-75718028D01*
X72302100Y-76120845D01*
X70972100Y-76120845D01*
X70891974Y-75718028D01*
X70734803Y-75338582D01*
X70506625Y-74997090D01*
X70216210Y-74706675D01*
X69874718Y-74478497D01*
X69495272Y-74321326D01*
X69092455Y-74241200D01*
X68681745Y-74241200D01*
X68278928Y-74321326D01*
X67899482Y-74478497D01*
X67557990Y-74706675D01*
X67267575Y-74997090D01*
X67039397Y-75338582D01*
X66882226Y-75718028D01*
X66802100Y-76120845D01*
X49937550Y-76120845D01*
X49981922Y-76076473D01*
X49928534Y-75847799D01*
X49698626Y-75741905D01*
X49483038Y-75690224D01*
X49602449Y-75671270D01*
X49839896Y-75583578D01*
X49928534Y-75536201D01*
X49981922Y-75307527D01*
X49276000Y-74601605D01*
X48570078Y-75307527D01*
X47441922Y-75307527D01*
X46736000Y-74601605D01*
X46030078Y-75307527D01*
X40843200Y-75307527D01*
X40843200Y-74498455D01*
X45447048Y-74498455D01*
X45486730Y-74748449D01*
X45574422Y-74985896D01*
X45621799Y-75074534D01*
X45850473Y-75127922D01*
X46556395Y-74422000D01*
X46915605Y-74422000D01*
X47621527Y-75127922D01*
X47850201Y-75074534D01*
X47956095Y-74844626D01*
X48007776Y-74629038D01*
X48026730Y-74748449D01*
X48114422Y-74985896D01*
X48161799Y-75074534D01*
X48390473Y-75127922D01*
X49096395Y-74422000D01*
X49455605Y-74422000D01*
X50161527Y-75127922D01*
X50390201Y-75074534D01*
X50496095Y-74844626D01*
X50555102Y-74598476D01*
X50564952Y-74345545D01*
X50525270Y-74095551D01*
X50437578Y-73858104D01*
X50390201Y-73769466D01*
X50161527Y-73716078D01*
X49455605Y-74422000D01*
X49096395Y-74422000D01*
X48390473Y-73716078D01*
X48161799Y-73769466D01*
X48055905Y-73999374D01*
X48004224Y-74214962D01*
X47985270Y-74095551D01*
X47897578Y-73858104D01*
X47850201Y-73769466D01*
X47621527Y-73716078D01*
X46915605Y-74422000D01*
X46556395Y-74422000D01*
X45850473Y-73716078D01*
X45621799Y-73769466D01*
X45515905Y-73999374D01*
X45456898Y-74245524D01*
X45447048Y-74498455D01*
X40843200Y-74498455D01*
X40843200Y-71232000D01*
X45447928Y-71232000D01*
X45447928Y-72532000D01*
X45460188Y-72656482D01*
X45496498Y-72776180D01*
X45555463Y-72886494D01*
X45634815Y-72983185D01*
X45731506Y-73062537D01*
X45841820Y-73121502D01*
X45961518Y-73157812D01*
X46086000Y-73170072D01*
X46426296Y-73170072D01*
X46409551Y-73172730D01*
X46172104Y-73260422D01*
X46083466Y-73307799D01*
X46030078Y-73536473D01*
X46736000Y-74242395D01*
X47441922Y-73536473D01*
X47388534Y-73307799D01*
X47158626Y-73201905D01*
X47025833Y-73170072D01*
X47386000Y-73170072D01*
X47510482Y-73157812D01*
X47630180Y-73121502D01*
X47740494Y-73062537D01*
X47837185Y-72983185D01*
X47916537Y-72886494D01*
X47975502Y-72776180D01*
X48011812Y-72656482D01*
X48024072Y-72532000D01*
X48024072Y-72174828D01*
X48040381Y-72256821D01*
X48137247Y-72490676D01*
X48277875Y-72701140D01*
X48456860Y-72880125D01*
X48667324Y-73020753D01*
X48901179Y-73117619D01*
X49076744Y-73152540D01*
X48949551Y-73172730D01*
X48712104Y-73260422D01*
X48623466Y-73307799D01*
X48570078Y-73536473D01*
X49276000Y-74242395D01*
X49981922Y-73536473D01*
X49928534Y-73307799D01*
X49698626Y-73201905D01*
X49484789Y-73150644D01*
X49650821Y-73117619D01*
X49884676Y-73020753D01*
X49890293Y-73017000D01*
X77597869Y-73017000D01*
X81145000Y-76564133D01*
X81145001Y-127192919D01*
X81092460Y-127319764D01*
X81045000Y-127558363D01*
X81045000Y-127801637D01*
X81092460Y-128040236D01*
X81185557Y-128264992D01*
X81320713Y-128467267D01*
X81492733Y-128639287D01*
X81695008Y-128774443D01*
X81919764Y-128867540D01*
X82158363Y-128915000D01*
X82401637Y-128915000D01*
X82640236Y-128867540D01*
X82864992Y-128774443D01*
X83067267Y-128639287D01*
X83239287Y-128467267D01*
X83374443Y-128264992D01*
X83467540Y-128040236D01*
X83515000Y-127801637D01*
X83515000Y-127558363D01*
X83467540Y-127319764D01*
X83415000Y-127192921D01*
X83415000Y-76149752D01*
X83420491Y-76094000D01*
X83398577Y-75871501D01*
X83333676Y-75657553D01*
X83228284Y-75460377D01*
X83121989Y-75330856D01*
X83121987Y-75330854D01*
X83086449Y-75287551D01*
X83043146Y-75252013D01*
X78909996Y-71118865D01*
X78874449Y-71075551D01*
X78701623Y-70933716D01*
X78504447Y-70828324D01*
X78290499Y-70763423D01*
X78123752Y-70747000D01*
X78123751Y-70747000D01*
X78068000Y-70741509D01*
X78012249Y-70747000D01*
X49890293Y-70747000D01*
X49884676Y-70743247D01*
X49650821Y-70646381D01*
X49402561Y-70597000D01*
X49149439Y-70597000D01*
X48901179Y-70646381D01*
X48811678Y-70683453D01*
X49140132Y-70355000D01*
X79379869Y-70355000D01*
X85695000Y-76670133D01*
X85695001Y-132112919D01*
X85642460Y-132239764D01*
X85595000Y-132478363D01*
X85595000Y-132721637D01*
X85642460Y-132960236D01*
X85735557Y-133184992D01*
X85870713Y-133387267D01*
X86042733Y-133559287D01*
X86245008Y-133694443D01*
X86469764Y-133787540D01*
X86708363Y-133835000D01*
X86951637Y-133835000D01*
X87190236Y-133787540D01*
X87414992Y-133694443D01*
X87617267Y-133559287D01*
X87789287Y-133387267D01*
X87924443Y-133184992D01*
X88017540Y-132960236D01*
X88065000Y-132721637D01*
X88065000Y-132478363D01*
X88017540Y-132239764D01*
X87965000Y-132112921D01*
X87965000Y-119290238D01*
X128897500Y-119290238D01*
X128897500Y-120104762D01*
X129056406Y-120903635D01*
X129368111Y-121656157D01*
X129820636Y-122333409D01*
X130396591Y-122909364D01*
X131073843Y-123361889D01*
X131826365Y-123673594D01*
X132625238Y-123832500D01*
X133439762Y-123832500D01*
X134238635Y-123673594D01*
X134991157Y-123361889D01*
X135668409Y-122909364D01*
X136244364Y-122333409D01*
X136696889Y-121656157D01*
X137008594Y-120903635D01*
X137167500Y-120104762D01*
X137167500Y-119290238D01*
X137154870Y-119226738D01*
X199255500Y-119226738D01*
X199255500Y-120041262D01*
X199414406Y-120840135D01*
X199726111Y-121592657D01*
X200178636Y-122269909D01*
X200754591Y-122845864D01*
X201431843Y-123298389D01*
X202184365Y-123610094D01*
X202983238Y-123769000D01*
X203797762Y-123769000D01*
X204596635Y-123610094D01*
X205349157Y-123298389D01*
X206026409Y-122845864D01*
X206602364Y-122269909D01*
X207054889Y-121592657D01*
X207366594Y-120840135D01*
X207525500Y-120041262D01*
X207525500Y-119226738D01*
X207366594Y-118427865D01*
X207054889Y-117675343D01*
X206602364Y-116998091D01*
X206026409Y-116422136D01*
X205349157Y-115969611D01*
X204596635Y-115657906D01*
X203797762Y-115499000D01*
X202983238Y-115499000D01*
X202184365Y-115657906D01*
X201431843Y-115969611D01*
X200754591Y-116422136D01*
X200178636Y-116998091D01*
X199726111Y-117675343D01*
X199414406Y-118427865D01*
X199255500Y-119226738D01*
X137154870Y-119226738D01*
X137008594Y-118491365D01*
X136696889Y-117738843D01*
X136244364Y-117061591D01*
X135668409Y-116485636D01*
X134991157Y-116033111D01*
X134238635Y-115721406D01*
X133439762Y-115562500D01*
X132625238Y-115562500D01*
X131826365Y-115721406D01*
X131073843Y-116033111D01*
X130396591Y-116485636D01*
X129820636Y-117061591D01*
X129368111Y-117738843D01*
X129056406Y-118491365D01*
X128897500Y-119290238D01*
X87965000Y-119290238D01*
X87965000Y-76255752D01*
X87970491Y-76200000D01*
X87948577Y-75977501D01*
X87883676Y-75763553D01*
X87778284Y-75566377D01*
X87671989Y-75436856D01*
X87671987Y-75436854D01*
X87636449Y-75393551D01*
X87593146Y-75358013D01*
X86821371Y-74586238D01*
X129342000Y-74586238D01*
X129342000Y-75400762D01*
X129500906Y-76199635D01*
X129812611Y-76952157D01*
X130265136Y-77629409D01*
X130841091Y-78205364D01*
X131518343Y-78657889D01*
X132270865Y-78969594D01*
X133069738Y-79128500D01*
X133884262Y-79128500D01*
X134683135Y-78969594D01*
X135435657Y-78657889D01*
X136112909Y-78205364D01*
X136688864Y-77629409D01*
X137141389Y-76952157D01*
X137453094Y-76199635D01*
X137612000Y-75400762D01*
X137612000Y-74776738D01*
X199001500Y-74776738D01*
X199001500Y-75591262D01*
X199160406Y-76390135D01*
X199472111Y-77142657D01*
X199924636Y-77819909D01*
X200500591Y-78395864D01*
X201177843Y-78848389D01*
X201930365Y-79160094D01*
X202729238Y-79319000D01*
X203543762Y-79319000D01*
X204342635Y-79160094D01*
X205095157Y-78848389D01*
X205772409Y-78395864D01*
X206348364Y-77819909D01*
X206800889Y-77142657D01*
X207112594Y-76390135D01*
X207271500Y-75591262D01*
X207271500Y-74776738D01*
X207112594Y-73977865D01*
X206800889Y-73225343D01*
X206348364Y-72548091D01*
X205772409Y-71972136D01*
X205095157Y-71519611D01*
X204342635Y-71207906D01*
X203543762Y-71049000D01*
X202729238Y-71049000D01*
X201930365Y-71207906D01*
X201177843Y-71519611D01*
X200500591Y-71972136D01*
X199924636Y-72548091D01*
X199472111Y-73225343D01*
X199160406Y-73977865D01*
X199001500Y-74776738D01*
X137612000Y-74776738D01*
X137612000Y-74586238D01*
X137453094Y-73787365D01*
X137141389Y-73034843D01*
X136688864Y-72357591D01*
X136112909Y-71781636D01*
X135435657Y-71329111D01*
X134683135Y-71017406D01*
X133884262Y-70858500D01*
X133069738Y-70858500D01*
X132270865Y-71017406D01*
X131518343Y-71329111D01*
X130841091Y-71781636D01*
X130265136Y-72357591D01*
X129812611Y-73034843D01*
X129500906Y-73787365D01*
X129342000Y-74586238D01*
X86821371Y-74586238D01*
X80691996Y-68456865D01*
X80656449Y-68413551D01*
X80483623Y-68271716D01*
X80286447Y-68166324D01*
X80072499Y-68101423D01*
X79905752Y-68085000D01*
X79905751Y-68085000D01*
X79850000Y-68079509D01*
X79794249Y-68085000D01*
X48725751Y-68085000D01*
X48669999Y-68079509D01*
X48614248Y-68085000D01*
X48447501Y-68101423D01*
X48233553Y-68166324D01*
X48036377Y-68271716D01*
X47863551Y-68413551D01*
X47828009Y-68456859D01*
X45972860Y-70312009D01*
X45929552Y-70347551D01*
X45787717Y-70520377D01*
X45682324Y-70717553D01*
X45672520Y-70749871D01*
X45634815Y-70780815D01*
X45555463Y-70877506D01*
X45496498Y-70987820D01*
X45460188Y-71107518D01*
X45447928Y-71232000D01*
X40843200Y-71232000D01*
X40843200Y-63992626D01*
X41461000Y-63992626D01*
X41461000Y-64531374D01*
X41566105Y-65059770D01*
X41772275Y-65557508D01*
X42071587Y-66005461D01*
X42452539Y-66386413D01*
X42900492Y-66685725D01*
X43398230Y-66891895D01*
X43926626Y-66997000D01*
X44465374Y-66997000D01*
X44993770Y-66891895D01*
X45491508Y-66685725D01*
X45939461Y-66386413D01*
X46320413Y-66005461D01*
X46619725Y-65557508D01*
X46825895Y-65059770D01*
X46931000Y-64531374D01*
X46931000Y-63992626D01*
X46825895Y-63464230D01*
X46619725Y-62966492D01*
X46320413Y-62518539D01*
X45939461Y-62137587D01*
X45491508Y-61838275D01*
X44993770Y-61632105D01*
X44465374Y-61527000D01*
X43926626Y-61527000D01*
X43398230Y-61632105D01*
X42900492Y-61838275D01*
X42452539Y-62137587D01*
X42071587Y-62518539D01*
X41772275Y-62966492D01*
X41566105Y-63464230D01*
X41461000Y-63992626D01*
X40843200Y-63992626D01*
X40843200Y-61433064D01*
X40832909Y-61328580D01*
X40792242Y-61194519D01*
X40792000Y-61194066D01*
X40792000Y-60979934D01*
X40792242Y-60979481D01*
X40832909Y-60845420D01*
X40843200Y-60740936D01*
X40843200Y-50280000D01*
X98041928Y-50280000D01*
X98054188Y-50404482D01*
X98090498Y-50524180D01*
X98149463Y-50634494D01*
X98228815Y-50731185D01*
X98325506Y-50810537D01*
X98435820Y-50869502D01*
X98555518Y-50905812D01*
X98680000Y-50918072D01*
X99244250Y-50915000D01*
X99403000Y-50756250D01*
X99403000Y-49557000D01*
X98203750Y-49557000D01*
X98045000Y-49715750D01*
X98041928Y-50280000D01*
X40843200Y-50280000D01*
X40843200Y-48580000D01*
X98041928Y-48580000D01*
X98045000Y-49144250D01*
X98203750Y-49303000D01*
X99403000Y-49303000D01*
X99403000Y-48103750D01*
X99657000Y-48103750D01*
X99657000Y-49303000D01*
X99677000Y-49303000D01*
X99677000Y-49557000D01*
X99657000Y-49557000D01*
X99657000Y-50756250D01*
X99815750Y-50915000D01*
X100380000Y-50918072D01*
X100504482Y-50905812D01*
X100624180Y-50869502D01*
X100734494Y-50810537D01*
X100831185Y-50731185D01*
X100910537Y-50634494D01*
X100969502Y-50524180D01*
X100991513Y-50451620D01*
X101123368Y-50583475D01*
X101366589Y-50745990D01*
X101636842Y-50857932D01*
X101923740Y-50915000D01*
X102216260Y-50915000D01*
X102503158Y-50857932D01*
X102773411Y-50745990D01*
X103016632Y-50583475D01*
X103223475Y-50376632D01*
X103385990Y-50133411D01*
X103497932Y-49863158D01*
X103555000Y-49576260D01*
X103555000Y-49283740D01*
X103497932Y-48996842D01*
X103385990Y-48726589D01*
X103223475Y-48483368D01*
X103016632Y-48276525D01*
X102773411Y-48114010D01*
X102503158Y-48002068D01*
X102216260Y-47945000D01*
X101923740Y-47945000D01*
X101636842Y-48002068D01*
X101366589Y-48114010D01*
X101123368Y-48276525D01*
X100991513Y-48408380D01*
X100969502Y-48335820D01*
X100910537Y-48225506D01*
X100831185Y-48128815D01*
X100734494Y-48049463D01*
X100624180Y-47990498D01*
X100504482Y-47954188D01*
X100380000Y-47941928D01*
X99815750Y-47945000D01*
X99657000Y-48103750D01*
X99403000Y-48103750D01*
X99244250Y-47945000D01*
X98680000Y-47941928D01*
X98555518Y-47954188D01*
X98435820Y-47990498D01*
X98325506Y-48049463D01*
X98228815Y-48128815D01*
X98149463Y-48225506D01*
X98090498Y-48335820D01*
X98054188Y-48455518D01*
X98041928Y-48580000D01*
X40843200Y-48580000D01*
X40843200Y-39015000D01*
X99566928Y-39015000D01*
X99579188Y-39139482D01*
X99615498Y-39259180D01*
X99674463Y-39369494D01*
X99753815Y-39466185D01*
X99850506Y-39545537D01*
X99960820Y-39604502D01*
X100080518Y-39640812D01*
X100205000Y-39653072D01*
X100934250Y-39650000D01*
X101093000Y-39491250D01*
X101093000Y-38277000D01*
X101347000Y-38277000D01*
X101347000Y-39491250D01*
X101505750Y-39650000D01*
X102235000Y-39653072D01*
X102359482Y-39640812D01*
X102479180Y-39604502D01*
X102589494Y-39545537D01*
X102686185Y-39466185D01*
X102765537Y-39369494D01*
X102824502Y-39259180D01*
X102860812Y-39139482D01*
X102873072Y-39015000D01*
X102870000Y-38435750D01*
X102711250Y-38277000D01*
X101347000Y-38277000D01*
X101093000Y-38277000D01*
X99728750Y-38277000D01*
X99570000Y-38435750D01*
X99566928Y-39015000D01*
X40843200Y-39015000D01*
X40843200Y-32953288D01*
X97875000Y-32953288D01*
X97875000Y-33186712D01*
X97920539Y-33415652D01*
X98009866Y-33631308D01*
X98139550Y-33825394D01*
X98304606Y-33990450D01*
X98498692Y-34120134D01*
X98714348Y-34209461D01*
X98943288Y-34255000D01*
X99176712Y-34255000D01*
X99405652Y-34209461D01*
X99621308Y-34120134D01*
X99815394Y-33990450D01*
X99853586Y-33952258D01*
X100004208Y-34135792D01*
X100232613Y-34323238D01*
X100263972Y-34340000D01*
X100232613Y-34356762D01*
X100004208Y-34544208D01*
X99816762Y-34772613D01*
X99677476Y-35033198D01*
X99591705Y-35315949D01*
X99562743Y-35610000D01*
X99591705Y-35904051D01*
X99677476Y-36186802D01*
X99816762Y-36447387D01*
X100004208Y-36675792D01*
X100010030Y-36680570D01*
X99960820Y-36695498D01*
X99850506Y-36754463D01*
X99753815Y-36833815D01*
X99674463Y-36930506D01*
X99615498Y-37040820D01*
X99579188Y-37160518D01*
X99566928Y-37285000D01*
X99570000Y-37864250D01*
X99728750Y-38023000D01*
X101093000Y-38023000D01*
X101093000Y-38003000D01*
X101347000Y-38003000D01*
X101347000Y-38023000D01*
X102711250Y-38023000D01*
X102870000Y-37864250D01*
X102873072Y-37285000D01*
X102860812Y-37160518D01*
X102824502Y-37040820D01*
X102765537Y-36930506D01*
X102686185Y-36833815D01*
X102589494Y-36754463D01*
X102479180Y-36695498D01*
X102429970Y-36680570D01*
X102435792Y-36675792D01*
X102623238Y-36447387D01*
X102762524Y-36186802D01*
X102848295Y-35904051D01*
X102877257Y-35610000D01*
X102848295Y-35315949D01*
X102762524Y-35033198D01*
X102623238Y-34772613D01*
X102435792Y-34544208D01*
X102207387Y-34356762D01*
X102176028Y-34340000D01*
X102207387Y-34323238D01*
X102435792Y-34135792D01*
X102623238Y-33907387D01*
X102643199Y-33870042D01*
X149445000Y-33870042D01*
X149445000Y-34201958D01*
X149509754Y-34527496D01*
X149636772Y-34834147D01*
X149821175Y-35110125D01*
X150055875Y-35344825D01*
X150331853Y-35529228D01*
X150638504Y-35656246D01*
X150964042Y-35721000D01*
X151295958Y-35721000D01*
X151621496Y-35656246D01*
X151928147Y-35529228D01*
X152204125Y-35344825D01*
X152438825Y-35110125D01*
X152623228Y-34834147D01*
X152750246Y-34527496D01*
X152815000Y-34201958D01*
X152815000Y-33870042D01*
X152750246Y-33544504D01*
X152623228Y-33237853D01*
X152438825Y-32961875D01*
X152204125Y-32727175D01*
X151928147Y-32542772D01*
X151621496Y-32415754D01*
X151295958Y-32351000D01*
X150964042Y-32351000D01*
X150638504Y-32415754D01*
X150331853Y-32542772D01*
X150055875Y-32727175D01*
X149821175Y-32961875D01*
X149636772Y-33237853D01*
X149509754Y-33544504D01*
X149445000Y-33870042D01*
X102643199Y-33870042D01*
X102762524Y-33646802D01*
X102848295Y-33364051D01*
X102877257Y-33070000D01*
X102848295Y-32775949D01*
X102762524Y-32493198D01*
X102623238Y-32232613D01*
X102435792Y-32004208D01*
X102207387Y-31816762D01*
X102176028Y-31800000D01*
X102207387Y-31783238D01*
X102435792Y-31595792D01*
X102623238Y-31367387D01*
X102762524Y-31106802D01*
X102848295Y-30824051D01*
X102877257Y-30530000D01*
X102848295Y-30235949D01*
X102762524Y-29953198D01*
X102623238Y-29692613D01*
X102435792Y-29464208D01*
X102207387Y-29276762D01*
X101946802Y-29137476D01*
X101664051Y-29051705D01*
X101443680Y-29030000D01*
X100996320Y-29030000D01*
X100775949Y-29051705D01*
X100493198Y-29137476D01*
X100232613Y-29276762D01*
X100004208Y-29464208D01*
X99816762Y-29692613D01*
X99677476Y-29953198D01*
X99591705Y-30235949D01*
X99562743Y-30530000D01*
X99591705Y-30824051D01*
X99677476Y-31106802D01*
X99816762Y-31367387D01*
X100004208Y-31595792D01*
X100232613Y-31783238D01*
X100263972Y-31800000D01*
X100232613Y-31816762D01*
X100004208Y-32004208D01*
X99853586Y-32187742D01*
X99815394Y-32149550D01*
X99621308Y-32019866D01*
X99405652Y-31930539D01*
X99176712Y-31885000D01*
X98943288Y-31885000D01*
X98714348Y-31930539D01*
X98498692Y-32019866D01*
X98304606Y-32149550D01*
X98139550Y-32314606D01*
X98009866Y-32508692D01*
X97920539Y-32724348D01*
X97875000Y-32953288D01*
X40843200Y-32953288D01*
X40843200Y-28110201D01*
X57159000Y-28110201D01*
X57159000Y-28658799D01*
X57266026Y-29196854D01*
X57475965Y-29703692D01*
X57780750Y-30159834D01*
X58168666Y-30547750D01*
X58624808Y-30852535D01*
X59131646Y-31062474D01*
X59669701Y-31169500D01*
X60218299Y-31169500D01*
X60756354Y-31062474D01*
X61263192Y-30852535D01*
X61719334Y-30547750D01*
X62107250Y-30159834D01*
X62412035Y-29703692D01*
X62621974Y-29196854D01*
X62729000Y-28658799D01*
X62729000Y-28300701D01*
X143011000Y-28300701D01*
X143011000Y-28849299D01*
X143118026Y-29387354D01*
X143327965Y-29894192D01*
X143632750Y-30350334D01*
X144020666Y-30738250D01*
X144476808Y-31043035D01*
X144983646Y-31252974D01*
X145521701Y-31360000D01*
X146070299Y-31360000D01*
X146608354Y-31252974D01*
X147115192Y-31043035D01*
X147571334Y-30738250D01*
X147959250Y-30350334D01*
X148264035Y-29894192D01*
X148473974Y-29387354D01*
X148581000Y-28849299D01*
X148581000Y-28300701D01*
X215020000Y-28300701D01*
X215020000Y-28849299D01*
X215127026Y-29387354D01*
X215336965Y-29894192D01*
X215641750Y-30350334D01*
X216029666Y-30738250D01*
X216485808Y-31043035D01*
X216992646Y-31252974D01*
X217530701Y-31360000D01*
X218079299Y-31360000D01*
X218617354Y-31252974D01*
X219124192Y-31043035D01*
X219580334Y-30738250D01*
X219968250Y-30350334D01*
X220273035Y-29894192D01*
X220482974Y-29387354D01*
X220590000Y-28849299D01*
X220590000Y-28300701D01*
X220482974Y-27762646D01*
X220273035Y-27255808D01*
X219968250Y-26799666D01*
X219580334Y-26411750D01*
X219124192Y-26106965D01*
X218617354Y-25897026D01*
X218079299Y-25790000D01*
X217530701Y-25790000D01*
X216992646Y-25897026D01*
X216485808Y-26106965D01*
X216029666Y-26411750D01*
X215641750Y-26799666D01*
X215336965Y-27255808D01*
X215127026Y-27762646D01*
X215020000Y-28300701D01*
X148581000Y-28300701D01*
X148473974Y-27762646D01*
X148264035Y-27255808D01*
X147959250Y-26799666D01*
X147571334Y-26411750D01*
X147115192Y-26106965D01*
X146608354Y-25897026D01*
X146070299Y-25790000D01*
X145521701Y-25790000D01*
X144983646Y-25897026D01*
X144476808Y-26106965D01*
X144020666Y-26411750D01*
X143632750Y-26799666D01*
X143327965Y-27255808D01*
X143118026Y-27762646D01*
X143011000Y-28300701D01*
X62729000Y-28300701D01*
X62729000Y-28110201D01*
X62621974Y-27572146D01*
X62412035Y-27065308D01*
X62107250Y-26609166D01*
X61719334Y-26221250D01*
X61263192Y-25916465D01*
X60756354Y-25706526D01*
X60218299Y-25599500D01*
X59669701Y-25599500D01*
X59131646Y-25706526D01*
X58624808Y-25916465D01*
X58168666Y-26221250D01*
X57780750Y-26609166D01*
X57475965Y-27065308D01*
X57266026Y-27572146D01*
X57159000Y-28110201D01*
X40843200Y-28110201D01*
X40843200Y-22745700D01*
X229412800Y-22745700D01*
X229412801Y-172771275D01*
%TA.AperFunction,Conductor*%
D28*
G36*
X229412801Y-172771275D02*
G01*
X40843200Y-172897325D01*
X40843200Y-169270701D01*
X45475000Y-169270701D01*
X45475000Y-169819299D01*
X45582026Y-170357354D01*
X45791965Y-170864192D01*
X46096750Y-171320334D01*
X46484666Y-171708250D01*
X46940808Y-172013035D01*
X47447646Y-172222974D01*
X47985701Y-172330000D01*
X48534299Y-172330000D01*
X49072354Y-172222974D01*
X49579192Y-172013035D01*
X50035334Y-171708250D01*
X50423250Y-171320334D01*
X50728035Y-170864192D01*
X50937974Y-170357354D01*
X51045000Y-169819299D01*
X51045000Y-169270701D01*
X51030082Y-169195701D01*
X128095000Y-169195701D01*
X128095000Y-169744299D01*
X128202026Y-170282354D01*
X128411965Y-170789192D01*
X128716750Y-171245334D01*
X129104666Y-171633250D01*
X129560808Y-171938035D01*
X130067646Y-172147974D01*
X130605701Y-172255000D01*
X131154299Y-172255000D01*
X131692354Y-172147974D01*
X132199192Y-171938035D01*
X132655334Y-171633250D01*
X133043250Y-171245334D01*
X133348035Y-170789192D01*
X133557974Y-170282354D01*
X133665000Y-169744299D01*
X133665000Y-169195701D01*
X133654657Y-169143701D01*
X203971000Y-169143701D01*
X203971000Y-169692299D01*
X204078026Y-170230354D01*
X204287965Y-170737192D01*
X204592750Y-171193334D01*
X204980666Y-171581250D01*
X205436808Y-171886035D01*
X205943646Y-172095974D01*
X206481701Y-172203000D01*
X207030299Y-172203000D01*
X207568354Y-172095974D01*
X208075192Y-171886035D01*
X208531334Y-171581250D01*
X208919250Y-171193334D01*
X209224035Y-170737192D01*
X209433974Y-170230354D01*
X209541000Y-169692299D01*
X209541000Y-169143701D01*
X209433974Y-168605646D01*
X209224035Y-168098808D01*
X208919250Y-167642666D01*
X208531334Y-167254750D01*
X208075192Y-166949965D01*
X207568354Y-166740026D01*
X207030299Y-166633000D01*
X206481701Y-166633000D01*
X205943646Y-166740026D01*
X205436808Y-166949965D01*
X204980666Y-167254750D01*
X204592750Y-167642666D01*
X204287965Y-168098808D01*
X204078026Y-168605646D01*
X203971000Y-169143701D01*
X133654657Y-169143701D01*
X133557974Y-168657646D01*
X133348035Y-168150808D01*
X133043250Y-167694666D01*
X132655334Y-167306750D01*
X132199192Y-167001965D01*
X131692354Y-166792026D01*
X131154299Y-166685000D01*
X130605701Y-166685000D01*
X130067646Y-166792026D01*
X129560808Y-167001965D01*
X129104666Y-167306750D01*
X128716750Y-167694666D01*
X128411965Y-168150808D01*
X128202026Y-168657646D01*
X128095000Y-169195701D01*
X51030082Y-169195701D01*
X50937974Y-168732646D01*
X50728035Y-168225808D01*
X50423250Y-167769666D01*
X50035334Y-167381750D01*
X49579192Y-167076965D01*
X49072354Y-166867026D01*
X48534299Y-166760000D01*
X47985701Y-166760000D01*
X47447646Y-166867026D01*
X46940808Y-167076965D01*
X46484666Y-167381750D01*
X46096750Y-167769666D01*
X45791965Y-168225808D01*
X45582026Y-168732646D01*
X45475000Y-169270701D01*
X40843200Y-169270701D01*
X40843200Y-165315042D01*
X211103500Y-165315042D01*
X211103500Y-165646958D01*
X211168254Y-165972496D01*
X211295272Y-166279147D01*
X211479675Y-166555125D01*
X211714375Y-166789825D01*
X211990353Y-166974228D01*
X212297004Y-167101246D01*
X212622542Y-167166000D01*
X212954458Y-167166000D01*
X213279996Y-167101246D01*
X213586647Y-166974228D01*
X213862625Y-166789825D01*
X214097325Y-166555125D01*
X214281728Y-166279147D01*
X214408746Y-165972496D01*
X214473500Y-165646958D01*
X214473500Y-165315042D01*
X214408746Y-164989504D01*
X214281728Y-164682853D01*
X214097325Y-164406875D01*
X213862625Y-164172175D01*
X213586647Y-163987772D01*
X213279996Y-163860754D01*
X212954458Y-163796000D01*
X212622542Y-163796000D01*
X212297004Y-163860754D01*
X211990353Y-163987772D01*
X211714375Y-164172175D01*
X211479675Y-164406875D01*
X211295272Y-164682853D01*
X211168254Y-164989504D01*
X211103500Y-165315042D01*
X40843200Y-165315042D01*
X40843200Y-163410042D01*
X42384000Y-163410042D01*
X42384000Y-163741958D01*
X42448754Y-164067496D01*
X42575772Y-164374147D01*
X42760175Y-164650125D01*
X42994875Y-164884825D01*
X43270853Y-165069228D01*
X43577504Y-165196246D01*
X43903042Y-165261000D01*
X44234958Y-165261000D01*
X44560496Y-165196246D01*
X44867147Y-165069228D01*
X45143125Y-164884825D01*
X45377825Y-164650125D01*
X45562228Y-164374147D01*
X45689246Y-164067496D01*
X45754000Y-163741958D01*
X45754000Y-163410042D01*
X45689246Y-163084504D01*
X45562228Y-162777853D01*
X45377825Y-162501875D01*
X45143125Y-162267175D01*
X44867147Y-162082772D01*
X44560496Y-161955754D01*
X44234958Y-161891000D01*
X43903042Y-161891000D01*
X43577504Y-161955754D01*
X43270853Y-162082772D01*
X42994875Y-162267175D01*
X42760175Y-162501875D01*
X42575772Y-162777853D01*
X42448754Y-163084504D01*
X42384000Y-163410042D01*
X40843200Y-163410042D01*
X40843200Y-157498665D01*
X66595000Y-157498665D01*
X66595000Y-157781335D01*
X66650147Y-158058574D01*
X66758320Y-158319727D01*
X66915363Y-158554759D01*
X67115241Y-158754637D01*
X67350273Y-158911680D01*
X67611426Y-159019853D01*
X67888665Y-159075000D01*
X68171335Y-159075000D01*
X68448574Y-159019853D01*
X68709727Y-158911680D01*
X68944759Y-158754637D01*
X69144637Y-158554759D01*
X69300000Y-158322241D01*
X69455363Y-158554759D01*
X69655241Y-158754637D01*
X69890273Y-158911680D01*
X70151426Y-159019853D01*
X70428665Y-159075000D01*
X70711335Y-159075000D01*
X70988574Y-159019853D01*
X71249727Y-158911680D01*
X71484759Y-158754637D01*
X71684637Y-158554759D01*
X71840000Y-158322241D01*
X71995363Y-158554759D01*
X72195241Y-158754637D01*
X72430273Y-158911680D01*
X72691426Y-159019853D01*
X72968665Y-159075000D01*
X73251335Y-159075000D01*
X73528574Y-159019853D01*
X73789727Y-158911680D01*
X74024759Y-158754637D01*
X74224637Y-158554759D01*
X74380000Y-158322241D01*
X74535363Y-158554759D01*
X74735241Y-158754637D01*
X74970273Y-158911680D01*
X75231426Y-159019853D01*
X75508665Y-159075000D01*
X75791335Y-159075000D01*
X76068574Y-159019853D01*
X76329727Y-158911680D01*
X76564759Y-158754637D01*
X76764637Y-158554759D01*
X76920000Y-158322241D01*
X77075363Y-158554759D01*
X77275241Y-158754637D01*
X77510273Y-158911680D01*
X77771426Y-159019853D01*
X78048665Y-159075000D01*
X78331335Y-159075000D01*
X78608574Y-159019853D01*
X78869727Y-158911680D01*
X79104759Y-158754637D01*
X79304637Y-158554759D01*
X79460000Y-158322241D01*
X79615363Y-158554759D01*
X79815241Y-158754637D01*
X80050273Y-158911680D01*
X80311426Y-159019853D01*
X80588665Y-159075000D01*
X80871335Y-159075000D01*
X81148574Y-159019853D01*
X81409727Y-158911680D01*
X81644759Y-158754637D01*
X81844637Y-158554759D01*
X82000000Y-158322241D01*
X82155363Y-158554759D01*
X82355241Y-158754637D01*
X82590273Y-158911680D01*
X82851426Y-159019853D01*
X83128665Y-159075000D01*
X83411335Y-159075000D01*
X83688574Y-159019853D01*
X83949727Y-158911680D01*
X84184759Y-158754637D01*
X84384637Y-158554759D01*
X84540000Y-158322241D01*
X84695363Y-158554759D01*
X84895241Y-158754637D01*
X85130273Y-158911680D01*
X85391426Y-159019853D01*
X85668665Y-159075000D01*
X85951335Y-159075000D01*
X86228574Y-159019853D01*
X86489727Y-158911680D01*
X86724759Y-158754637D01*
X86924637Y-158554759D01*
X87080000Y-158322241D01*
X87235363Y-158554759D01*
X87435241Y-158754637D01*
X87670273Y-158911680D01*
X87931426Y-159019853D01*
X88208665Y-159075000D01*
X88491335Y-159075000D01*
X88768574Y-159019853D01*
X89029727Y-158911680D01*
X89264759Y-158754637D01*
X89464637Y-158554759D01*
X89620000Y-158322241D01*
X89775363Y-158554759D01*
X89975241Y-158754637D01*
X90210273Y-158911680D01*
X90471426Y-159019853D01*
X90748665Y-159075000D01*
X91031335Y-159075000D01*
X91308574Y-159019853D01*
X91569727Y-158911680D01*
X91804759Y-158754637D01*
X91926694Y-158632702D01*
X92616903Y-158632702D01*
X92688486Y-158876671D01*
X92943996Y-158997571D01*
X93218184Y-159066300D01*
X93500512Y-159080217D01*
X93780130Y-159038787D01*
X94046292Y-158943603D01*
X94171514Y-158876671D01*
X94243097Y-158632702D01*
X93430000Y-157819605D01*
X92616903Y-158632702D01*
X91926694Y-158632702D01*
X92004637Y-158554759D01*
X92160915Y-158320872D01*
X92193329Y-158381514D01*
X92437298Y-158453097D01*
X93250395Y-157640000D01*
X92437298Y-156826903D01*
X92193329Y-156898486D01*
X92162806Y-156962992D01*
X92161680Y-156960273D01*
X92004637Y-156725241D01*
X91926694Y-156647298D01*
X92616903Y-156647298D01*
X93430000Y-157460395D01*
X94243097Y-156647298D01*
X94171514Y-156403329D01*
X93916004Y-156282429D01*
X93641816Y-156213700D01*
X93359488Y-156199783D01*
X93079870Y-156241213D01*
X92813708Y-156336397D01*
X92688486Y-156403329D01*
X92616903Y-156647298D01*
X91926694Y-156647298D01*
X91804759Y-156525363D01*
X91569727Y-156368320D01*
X91308574Y-156260147D01*
X91031335Y-156205000D01*
X90748665Y-156205000D01*
X90471426Y-156260147D01*
X90210273Y-156368320D01*
X89975241Y-156525363D01*
X89775363Y-156725241D01*
X89620000Y-156957759D01*
X89464637Y-156725241D01*
X89264759Y-156525363D01*
X89029727Y-156368320D01*
X88768574Y-156260147D01*
X88491335Y-156205000D01*
X88208665Y-156205000D01*
X87931426Y-156260147D01*
X87670273Y-156368320D01*
X87435241Y-156525363D01*
X87235363Y-156725241D01*
X87080000Y-156957759D01*
X86924637Y-156725241D01*
X86724759Y-156525363D01*
X86489727Y-156368320D01*
X86228574Y-156260147D01*
X85951335Y-156205000D01*
X85668665Y-156205000D01*
X85391426Y-156260147D01*
X85130273Y-156368320D01*
X84895241Y-156525363D01*
X84695363Y-156725241D01*
X84540000Y-156957759D01*
X84384637Y-156725241D01*
X84184759Y-156525363D01*
X83949727Y-156368320D01*
X83688574Y-156260147D01*
X83411335Y-156205000D01*
X83128665Y-156205000D01*
X82851426Y-156260147D01*
X82590273Y-156368320D01*
X82355241Y-156525363D01*
X82155363Y-156725241D01*
X82000000Y-156957759D01*
X81844637Y-156725241D01*
X81644759Y-156525363D01*
X81409727Y-156368320D01*
X81148574Y-156260147D01*
X80871335Y-156205000D01*
X80588665Y-156205000D01*
X80311426Y-156260147D01*
X80050273Y-156368320D01*
X79815241Y-156525363D01*
X79615363Y-156725241D01*
X79460000Y-156957759D01*
X79304637Y-156725241D01*
X79104759Y-156525363D01*
X78869727Y-156368320D01*
X78608574Y-156260147D01*
X78331335Y-156205000D01*
X78048665Y-156205000D01*
X77771426Y-156260147D01*
X77510273Y-156368320D01*
X77275241Y-156525363D01*
X77075363Y-156725241D01*
X76920000Y-156957759D01*
X76764637Y-156725241D01*
X76564759Y-156525363D01*
X76329727Y-156368320D01*
X76068574Y-156260147D01*
X75791335Y-156205000D01*
X75508665Y-156205000D01*
X75231426Y-156260147D01*
X74970273Y-156368320D01*
X74735241Y-156525363D01*
X74535363Y-156725241D01*
X74380000Y-156957759D01*
X74224637Y-156725241D01*
X74024759Y-156525363D01*
X73789727Y-156368320D01*
X73528574Y-156260147D01*
X73251335Y-156205000D01*
X72968665Y-156205000D01*
X72691426Y-156260147D01*
X72430273Y-156368320D01*
X72195241Y-156525363D01*
X71995363Y-156725241D01*
X71840000Y-156957759D01*
X71684637Y-156725241D01*
X71484759Y-156525363D01*
X71249727Y-156368320D01*
X70988574Y-156260147D01*
X70711335Y-156205000D01*
X70428665Y-156205000D01*
X70151426Y-156260147D01*
X69890273Y-156368320D01*
X69655241Y-156525363D01*
X69455363Y-156725241D01*
X69300000Y-156957759D01*
X69144637Y-156725241D01*
X68944759Y-156525363D01*
X68709727Y-156368320D01*
X68448574Y-156260147D01*
X68171335Y-156205000D01*
X67888665Y-156205000D01*
X67611426Y-156260147D01*
X67350273Y-156368320D01*
X67115241Y-156525363D01*
X66915363Y-156725241D01*
X66758320Y-156960273D01*
X66650147Y-157221426D01*
X66595000Y-157498665D01*
X40843200Y-157498665D01*
X40843200Y-132572626D01*
X41461000Y-132572626D01*
X41461000Y-133111374D01*
X41566105Y-133639770D01*
X41772275Y-134137508D01*
X42071587Y-134585461D01*
X42452539Y-134966413D01*
X42900492Y-135265725D01*
X43398230Y-135471895D01*
X43926626Y-135577000D01*
X44465374Y-135577000D01*
X44993770Y-135471895D01*
X45491508Y-135265725D01*
X45939461Y-134966413D01*
X46320413Y-134585461D01*
X46619725Y-134137508D01*
X46825895Y-133639770D01*
X46931000Y-133111374D01*
X46931000Y-132572626D01*
X46825895Y-132044230D01*
X46619725Y-131546492D01*
X46320413Y-131098539D01*
X45939461Y-130717587D01*
X45491508Y-130418275D01*
X44993770Y-130212105D01*
X44465374Y-130107000D01*
X43926626Y-130107000D01*
X43398230Y-130212105D01*
X42900492Y-130418275D01*
X42452539Y-130717587D01*
X42071587Y-131098539D01*
X41772275Y-131546492D01*
X41566105Y-132044230D01*
X41461000Y-132572626D01*
X40843200Y-132572626D01*
X40843200Y-102235439D01*
X45451000Y-102235439D01*
X45451000Y-102488561D01*
X45500381Y-102736821D01*
X45597247Y-102970676D01*
X45737875Y-103181140D01*
X45916860Y-103360125D01*
X46127324Y-103500753D01*
X46361179Y-103597619D01*
X46534027Y-103632000D01*
X46361179Y-103666381D01*
X46127324Y-103763247D01*
X45916860Y-103903875D01*
X45737875Y-104082860D01*
X45597247Y-104293324D01*
X45500381Y-104527179D01*
X45451000Y-104775439D01*
X45451000Y-105028561D01*
X45500381Y-105276821D01*
X45597247Y-105510676D01*
X45737875Y-105721140D01*
X45916860Y-105900125D01*
X46127324Y-106040753D01*
X46361179Y-106137619D01*
X46534027Y-106172000D01*
X46361179Y-106206381D01*
X46127324Y-106303247D01*
X45916860Y-106443875D01*
X45737875Y-106622860D01*
X45597247Y-106833324D01*
X45500381Y-107067179D01*
X45451000Y-107315439D01*
X45451000Y-107568561D01*
X45500381Y-107816821D01*
X45597247Y-108050676D01*
X45737875Y-108261140D01*
X45916860Y-108440125D01*
X46127324Y-108580753D01*
X46361179Y-108677619D01*
X46534027Y-108712000D01*
X46361179Y-108746381D01*
X46127324Y-108843247D01*
X45916860Y-108983875D01*
X45737875Y-109162860D01*
X45597247Y-109373324D01*
X45500381Y-109607179D01*
X45451000Y-109855439D01*
X45451000Y-110108561D01*
X45500381Y-110356821D01*
X45597247Y-110590676D01*
X45631100Y-110641341D01*
X45631101Y-111862659D01*
X45597247Y-111913324D01*
X45500381Y-112147179D01*
X45451000Y-112395439D01*
X45451000Y-112648561D01*
X45500381Y-112896821D01*
X45597247Y-113130676D01*
X45631101Y-113181342D01*
X45631100Y-114402659D01*
X45597247Y-114453324D01*
X45500381Y-114687179D01*
X45451000Y-114935439D01*
X45451000Y-115188561D01*
X45500381Y-115436821D01*
X45597247Y-115670676D01*
X45631101Y-115721342D01*
X45631100Y-116942659D01*
X45597247Y-116993324D01*
X45500381Y-117227179D01*
X45451000Y-117475439D01*
X45451000Y-117728561D01*
X45500381Y-117976821D01*
X45597247Y-118210676D01*
X45631101Y-118261342D01*
X45631100Y-119482659D01*
X45597247Y-119533324D01*
X45500381Y-119767179D01*
X45451000Y-120015439D01*
X45451000Y-120268561D01*
X45500381Y-120516821D01*
X45597247Y-120750676D01*
X45631101Y-120801342D01*
X45631100Y-122022659D01*
X45597247Y-122073324D01*
X45500381Y-122307179D01*
X45451000Y-122555439D01*
X45451000Y-122808561D01*
X45500381Y-123056821D01*
X45597247Y-123290676D01*
X45631101Y-123341342D01*
X45631100Y-124562659D01*
X45597247Y-124613324D01*
X45500381Y-124847179D01*
X45451000Y-125095439D01*
X45451000Y-125348561D01*
X45500381Y-125596821D01*
X45597247Y-125830676D01*
X45737875Y-126041140D01*
X45916860Y-126220125D01*
X45949048Y-126241633D01*
X45998730Y-126302170D01*
X46192112Y-126460875D01*
X46412741Y-126578803D01*
X46652137Y-126651423D01*
X46901100Y-126675944D01*
X47150062Y-126651423D01*
X47389458Y-126578803D01*
X47610087Y-126460875D01*
X47803470Y-126302170D01*
X47962175Y-126108788D01*
X48080103Y-125888159D01*
X48114326Y-125775340D01*
X48137247Y-125830676D01*
X48277875Y-126041140D01*
X48456860Y-126220125D01*
X48489048Y-126241633D01*
X48538730Y-126302170D01*
X48732112Y-126460875D01*
X48952741Y-126578803D01*
X49192137Y-126651423D01*
X49441100Y-126675944D01*
X49690062Y-126651423D01*
X49929458Y-126578803D01*
X50150087Y-126460875D01*
X50343470Y-126302170D01*
X50502175Y-126108788D01*
X50620103Y-125888159D01*
X50692723Y-125648763D01*
X50711100Y-125462180D01*
X50711100Y-124940000D01*
X64569025Y-124940000D01*
X64592870Y-125182102D01*
X64663489Y-125414899D01*
X64663490Y-125414901D01*
X64778168Y-125629449D01*
X64932499Y-125817502D01*
X64979621Y-125856174D01*
X80192750Y-141069304D01*
X80050273Y-141128320D01*
X79815241Y-141285363D01*
X79615363Y-141485241D01*
X79460000Y-141717759D01*
X79304637Y-141485241D01*
X79104759Y-141285363D01*
X78869727Y-141128320D01*
X78608574Y-141020147D01*
X78331335Y-140965000D01*
X78048665Y-140965000D01*
X77771426Y-141020147D01*
X77510273Y-141128320D01*
X77275241Y-141285363D01*
X77075363Y-141485241D01*
X76920000Y-141717759D01*
X76764637Y-141485241D01*
X76564759Y-141285363D01*
X76329727Y-141128320D01*
X76068574Y-141020147D01*
X75791335Y-140965000D01*
X75508665Y-140965000D01*
X75231426Y-141020147D01*
X74970273Y-141128320D01*
X74735241Y-141285363D01*
X74535363Y-141485241D01*
X74380000Y-141717759D01*
X74224637Y-141485241D01*
X74024759Y-141285363D01*
X73789727Y-141128320D01*
X73528574Y-141020147D01*
X73251335Y-140965000D01*
X72968665Y-140965000D01*
X72691426Y-141020147D01*
X72430273Y-141128320D01*
X72195241Y-141285363D01*
X71995363Y-141485241D01*
X71840000Y-141717759D01*
X71684637Y-141485241D01*
X71484759Y-141285363D01*
X71249727Y-141128320D01*
X70988574Y-141020147D01*
X70711335Y-140965000D01*
X70428665Y-140965000D01*
X70151426Y-141020147D01*
X69890273Y-141128320D01*
X69655241Y-141285363D01*
X69455363Y-141485241D01*
X69300000Y-141717759D01*
X69144637Y-141485241D01*
X68944759Y-141285363D01*
X68709727Y-141128320D01*
X68448574Y-141020147D01*
X68171335Y-140965000D01*
X67888665Y-140965000D01*
X67611426Y-141020147D01*
X67350273Y-141128320D01*
X67115241Y-141285363D01*
X66915363Y-141485241D01*
X66758320Y-141720273D01*
X66650147Y-141981426D01*
X66595000Y-142258665D01*
X66595000Y-142541335D01*
X66650147Y-142818574D01*
X66758320Y-143079727D01*
X66915363Y-143314759D01*
X67115241Y-143514637D01*
X67350273Y-143671680D01*
X67611426Y-143779853D01*
X67888665Y-143835000D01*
X68171335Y-143835000D01*
X68448574Y-143779853D01*
X68709727Y-143671680D01*
X68944759Y-143514637D01*
X69144637Y-143314759D01*
X69300000Y-143082241D01*
X69455363Y-143314759D01*
X69655241Y-143514637D01*
X69890273Y-143671680D01*
X70151426Y-143779853D01*
X70428665Y-143835000D01*
X70711335Y-143835000D01*
X70988574Y-143779853D01*
X71249727Y-143671680D01*
X71484759Y-143514637D01*
X71684637Y-143314759D01*
X71840000Y-143082241D01*
X71995363Y-143314759D01*
X72195241Y-143514637D01*
X72430273Y-143671680D01*
X72691426Y-143779853D01*
X72968665Y-143835000D01*
X73251335Y-143835000D01*
X73528574Y-143779853D01*
X73789727Y-143671680D01*
X74024759Y-143514637D01*
X74224637Y-143314759D01*
X74380000Y-143082241D01*
X74535363Y-143314759D01*
X74735241Y-143514637D01*
X74970273Y-143671680D01*
X75231426Y-143779853D01*
X75508665Y-143835000D01*
X75791335Y-143835000D01*
X76068574Y-143779853D01*
X76329727Y-143671680D01*
X76564759Y-143514637D01*
X76764637Y-143314759D01*
X76920000Y-143082241D01*
X77075363Y-143314759D01*
X77275241Y-143514637D01*
X77510273Y-143671680D01*
X77771426Y-143779853D01*
X78048665Y-143835000D01*
X78331335Y-143835000D01*
X78608574Y-143779853D01*
X78869727Y-143671680D01*
X79104759Y-143514637D01*
X79304637Y-143314759D01*
X79460000Y-143082241D01*
X79615363Y-143314759D01*
X79815241Y-143514637D01*
X80050273Y-143671680D01*
X80311426Y-143779853D01*
X80588665Y-143835000D01*
X80871335Y-143835000D01*
X81148574Y-143779853D01*
X81409727Y-143671680D01*
X81644759Y-143514637D01*
X81844637Y-143314759D01*
X82000000Y-143082241D01*
X82155363Y-143314759D01*
X82355241Y-143514637D01*
X82590273Y-143671680D01*
X82851426Y-143779853D01*
X83128665Y-143835000D01*
X83411335Y-143835000D01*
X83688574Y-143779853D01*
X83949727Y-143671680D01*
X84184759Y-143514637D01*
X84384637Y-143314759D01*
X84540000Y-143082241D01*
X84695363Y-143314759D01*
X84895241Y-143514637D01*
X85130273Y-143671680D01*
X85391426Y-143779853D01*
X85668665Y-143835000D01*
X85951335Y-143835000D01*
X86228574Y-143779853D01*
X86489727Y-143671680D01*
X86724759Y-143514637D01*
X86846694Y-143392702D01*
X87536903Y-143392702D01*
X87608486Y-143636671D01*
X87863996Y-143757571D01*
X88138184Y-143826300D01*
X88420512Y-143840217D01*
X88700130Y-143798787D01*
X88966292Y-143703603D01*
X89091514Y-143636671D01*
X89163097Y-143392702D01*
X90076903Y-143392702D01*
X90148486Y-143636671D01*
X90403996Y-143757571D01*
X90678184Y-143826300D01*
X90960512Y-143840217D01*
X91240130Y-143798787D01*
X91506292Y-143703603D01*
X91631514Y-143636671D01*
X91703097Y-143392702D01*
X90890000Y-142579605D01*
X90076903Y-143392702D01*
X89163097Y-143392702D01*
X88350000Y-142579605D01*
X87536903Y-143392702D01*
X86846694Y-143392702D01*
X86924637Y-143314759D01*
X87080915Y-143080872D01*
X87113329Y-143141514D01*
X87357298Y-143213097D01*
X88170395Y-142400000D01*
X88529605Y-142400000D01*
X89342702Y-143213097D01*
X89586671Y-143141514D01*
X89617971Y-143075364D01*
X89653329Y-143141514D01*
X89897298Y-143213097D01*
X90710395Y-142400000D01*
X91069605Y-142400000D01*
X91882702Y-143213097D01*
X92126671Y-143141514D01*
X92157194Y-143077008D01*
X92158320Y-143079727D01*
X92315363Y-143314759D01*
X92515241Y-143514637D01*
X92750273Y-143671680D01*
X93011426Y-143779853D01*
X93288665Y-143835000D01*
X93571335Y-143835000D01*
X93848574Y-143779853D01*
X94109727Y-143671680D01*
X94344759Y-143514637D01*
X94543357Y-143316039D01*
X94544188Y-143324482D01*
X94580498Y-143444180D01*
X94639463Y-143554494D01*
X94718815Y-143651185D01*
X94815506Y-143730537D01*
X94925820Y-143789502D01*
X95045518Y-143825812D01*
X95170000Y-143838072D01*
X96770000Y-143838072D01*
X96894482Y-143825812D01*
X97014180Y-143789502D01*
X97124494Y-143730537D01*
X97221185Y-143651185D01*
X97300537Y-143554494D01*
X97359502Y-143444180D01*
X97395812Y-143324482D01*
X97408072Y-143200000D01*
X97408072Y-141600000D01*
X97395812Y-141475518D01*
X97359502Y-141355820D01*
X97300537Y-141245506D01*
X97221185Y-141148815D01*
X97124494Y-141069463D01*
X97014180Y-141010498D01*
X96894482Y-140974188D01*
X96770000Y-140961928D01*
X95170000Y-140961928D01*
X95045518Y-140974188D01*
X94925820Y-141010498D01*
X94815506Y-141069463D01*
X94718815Y-141148815D01*
X94639463Y-141245506D01*
X94580498Y-141355820D01*
X94544188Y-141475518D01*
X94543357Y-141483961D01*
X94344759Y-141285363D01*
X94109727Y-141128320D01*
X93848574Y-141020147D01*
X93571335Y-140965000D01*
X93288665Y-140965000D01*
X93011426Y-141020147D01*
X92750273Y-141128320D01*
X92515241Y-141285363D01*
X92315363Y-141485241D01*
X92159085Y-141719128D01*
X92126671Y-141658486D01*
X91882702Y-141586903D01*
X91069605Y-142400000D01*
X90710395Y-142400000D01*
X89897298Y-141586903D01*
X89653329Y-141658486D01*
X89622029Y-141724636D01*
X89586671Y-141658486D01*
X89342702Y-141586903D01*
X88529605Y-142400000D01*
X88170395Y-142400000D01*
X87357298Y-141586903D01*
X87113329Y-141658486D01*
X87082806Y-141722992D01*
X87081680Y-141720273D01*
X86924637Y-141485241D01*
X86846694Y-141407298D01*
X87536903Y-141407298D01*
X88350000Y-142220395D01*
X89163097Y-141407298D01*
X90076903Y-141407298D01*
X90890000Y-142220395D01*
X91703097Y-141407298D01*
X91631514Y-141163329D01*
X91376004Y-141042429D01*
X91101816Y-140973700D01*
X90819488Y-140959783D01*
X90539870Y-141001213D01*
X90273708Y-141096397D01*
X90148486Y-141163329D01*
X90076903Y-141407298D01*
X89163097Y-141407298D01*
X89091514Y-141163329D01*
X88836004Y-141042429D01*
X88561816Y-140973700D01*
X88279488Y-140959783D01*
X87999870Y-141001213D01*
X87733708Y-141096397D01*
X87608486Y-141163329D01*
X87536903Y-141407298D01*
X86846694Y-141407298D01*
X86724759Y-141285363D01*
X86489727Y-141128320D01*
X86228574Y-141020147D01*
X85951335Y-140965000D01*
X85668665Y-140965000D01*
X85391426Y-141020147D01*
X85130273Y-141128320D01*
X84895241Y-141285363D01*
X84695363Y-141485241D01*
X84540000Y-141717759D01*
X84384637Y-141485241D01*
X84184759Y-141285363D01*
X83949727Y-141128320D01*
X83688574Y-141020147D01*
X83623821Y-141007267D01*
X67045000Y-124428447D01*
X67045000Y-123982252D01*
X67610653Y-123982252D01*
X67760648Y-124292693D01*
X68126919Y-124478511D01*
X68522403Y-124589301D01*
X68931901Y-124620809D01*
X69339677Y-124571821D01*
X69730062Y-124444221D01*
X70013552Y-124292693D01*
X70163547Y-123982252D01*
X68887100Y-122705805D01*
X67610653Y-123982252D01*
X67045000Y-123982252D01*
X67045000Y-123511201D01*
X67120607Y-123652652D01*
X67431048Y-123802647D01*
X68707495Y-122526200D01*
X67431048Y-121249753D01*
X67120607Y-121399748D01*
X67045000Y-121548779D01*
X67045000Y-121548363D01*
X67033105Y-121488562D01*
X67027130Y-121427898D01*
X67009436Y-121369567D01*
X66997540Y-121309764D01*
X66974205Y-121253429D01*
X66956511Y-121195099D01*
X66927777Y-121141342D01*
X66904443Y-121085008D01*
X66894514Y-121070148D01*
X67610653Y-121070148D01*
X68887100Y-122346595D01*
X70163547Y-121070148D01*
X70013552Y-120759707D01*
X69647281Y-120573889D01*
X69251797Y-120463099D01*
X68842299Y-120431591D01*
X68434523Y-120480579D01*
X68044138Y-120608179D01*
X67760648Y-120759707D01*
X67610653Y-121070148D01*
X66894514Y-121070148D01*
X66870568Y-121034311D01*
X66841833Y-120980551D01*
X66803161Y-120933429D01*
X66769287Y-120882733D01*
X66726174Y-120839620D01*
X66687502Y-120792498D01*
X66640381Y-120753827D01*
X66597267Y-120710713D01*
X66546567Y-120676836D01*
X66499448Y-120638167D01*
X66445693Y-120609435D01*
X66394992Y-120575557D01*
X66338654Y-120552221D01*
X66284900Y-120523489D01*
X66226574Y-120505796D01*
X66170236Y-120482460D01*
X66110430Y-120470564D01*
X66052101Y-120452870D01*
X65991439Y-120446895D01*
X65931637Y-120435000D01*
X65870665Y-120435000D01*
X65810000Y-120429025D01*
X65749335Y-120435000D01*
X65688363Y-120435000D01*
X65628562Y-120446895D01*
X65567898Y-120452870D01*
X65509567Y-120470564D01*
X65449764Y-120482460D01*
X65393429Y-120505795D01*
X65335099Y-120523489D01*
X65281342Y-120552223D01*
X65225008Y-120575557D01*
X65174311Y-120609432D01*
X65120551Y-120638167D01*
X65073429Y-120676839D01*
X65022733Y-120710713D01*
X64979620Y-120753826D01*
X64932498Y-120792498D01*
X64893827Y-120839619D01*
X64850713Y-120882733D01*
X64816836Y-120933433D01*
X64778167Y-120980552D01*
X64749435Y-121034307D01*
X64715557Y-121085008D01*
X64692221Y-121141346D01*
X64663489Y-121195100D01*
X64645796Y-121253426D01*
X64622460Y-121309764D01*
X64610564Y-121369570D01*
X64592870Y-121427899D01*
X64586895Y-121488561D01*
X64575000Y-121548363D01*
X64575000Y-121609336D01*
X64575001Y-124879325D01*
X64569025Y-124940000D01*
X50711100Y-124940000D01*
X50711100Y-111429800D01*
X67442065Y-111429800D01*
X67557990Y-111545725D01*
X67617100Y-111585221D01*
X67617101Y-112467178D01*
X67557990Y-112506675D01*
X67267575Y-112797090D01*
X67039397Y-113138582D01*
X66882226Y-113518028D01*
X66802100Y-113920845D01*
X66802100Y-114331555D01*
X66882226Y-114734372D01*
X67039397Y-115113818D01*
X67267575Y-115455310D01*
X67557990Y-115745725D01*
X67617101Y-115785222D01*
X67617100Y-116667179D01*
X67557990Y-116706675D01*
X67267575Y-116997090D01*
X67039397Y-117338582D01*
X66882226Y-117718028D01*
X66802100Y-118120845D01*
X66802100Y-118531555D01*
X66882226Y-118934372D01*
X67039397Y-119313818D01*
X67267575Y-119655310D01*
X67557990Y-119945725D01*
X67899482Y-120173903D01*
X68278928Y-120331074D01*
X68681745Y-120411200D01*
X69092455Y-120411200D01*
X69495272Y-120331074D01*
X69874718Y-120173903D01*
X70216210Y-119945725D01*
X70506625Y-119655310D01*
X70725001Y-119328488D01*
X70725001Y-121533343D01*
X70653593Y-121399748D01*
X70343152Y-121249753D01*
X69066705Y-122526200D01*
X70343152Y-123802647D01*
X70653593Y-123652652D01*
X70732636Y-123496848D01*
X70742870Y-123600756D01*
X70813170Y-123832500D01*
X70813490Y-123833555D01*
X70928168Y-124048103D01*
X71082499Y-124236156D01*
X71129621Y-124274828D01*
X86485172Y-139630380D01*
X86523844Y-139677502D01*
X86711897Y-139831833D01*
X86926445Y-139946511D01*
X87042844Y-139981820D01*
X87159243Y-140017130D01*
X87401346Y-140040975D01*
X87462011Y-140035000D01*
X98495001Y-140035000D01*
X98495000Y-156405000D01*
X96704623Y-156405000D01*
X96649727Y-156368320D01*
X96388574Y-156260147D01*
X96111335Y-156205000D01*
X95828665Y-156205000D01*
X95551426Y-156260147D01*
X95290273Y-156368320D01*
X95055241Y-156525363D01*
X94855363Y-156725241D01*
X94699085Y-156959128D01*
X94666671Y-156898486D01*
X94422702Y-156826903D01*
X93609605Y-157640000D01*
X94422702Y-158453097D01*
X94666671Y-158381514D01*
X94697194Y-158317008D01*
X94698320Y-158319727D01*
X94855363Y-158554759D01*
X95055241Y-158754637D01*
X95290273Y-158911680D01*
X95551426Y-159019853D01*
X95828665Y-159075000D01*
X96111335Y-159075000D01*
X96388574Y-159019853D01*
X96649727Y-158911680D01*
X96704623Y-158875000D01*
X99699344Y-158875000D01*
X99759999Y-158880974D01*
X99820654Y-158875000D01*
X99820665Y-158875000D01*
X100002102Y-158857130D01*
X100234901Y-158786511D01*
X100449449Y-158671833D01*
X100637502Y-158517502D01*
X100791833Y-158329449D01*
X100906511Y-158114901D01*
X100977130Y-157882102D01*
X101000975Y-157640000D01*
X100977130Y-157397898D01*
X100965000Y-157357911D01*
X100965000Y-139300665D01*
X100970975Y-139240000D01*
X100947130Y-138997897D01*
X100887098Y-138800000D01*
X100876511Y-138765099D01*
X100761833Y-138550551D01*
X100607502Y-138362498D01*
X100560374Y-138323821D01*
X100206179Y-137969626D01*
X100167502Y-137922498D01*
X99979449Y-137768167D01*
X99764901Y-137653489D01*
X99532102Y-137582870D01*
X99350665Y-137565000D01*
X99290000Y-137559025D01*
X99229335Y-137565000D01*
X87912900Y-137565000D01*
X74898269Y-124550369D01*
X74995272Y-124531074D01*
X75374718Y-124373903D01*
X75716210Y-124145725D01*
X76006625Y-123855310D01*
X76234803Y-123513818D01*
X76391974Y-123134372D01*
X76472100Y-122731555D01*
X76472100Y-122320845D01*
X76391974Y-121918028D01*
X76234803Y-121538582D01*
X76006625Y-121197090D01*
X75716210Y-120906675D01*
X75374718Y-120678497D01*
X74995272Y-120521326D01*
X74592455Y-120441200D01*
X74181745Y-120441200D01*
X73778928Y-120521326D01*
X73399482Y-120678497D01*
X73195000Y-120815128D01*
X73195000Y-120037272D01*
X73399482Y-120173903D01*
X73778928Y-120331074D01*
X74181745Y-120411200D01*
X74592455Y-120411200D01*
X74995272Y-120331074D01*
X75374718Y-120173903D01*
X75716210Y-119945725D01*
X76006625Y-119655310D01*
X76234803Y-119313818D01*
X76391974Y-118934372D01*
X76472100Y-118531555D01*
X76472100Y-118120845D01*
X76391974Y-117718028D01*
X76234803Y-117338582D01*
X76006625Y-116997090D01*
X75716210Y-116706675D01*
X75374718Y-116478497D01*
X74995272Y-116321326D01*
X74592455Y-116241200D01*
X74181745Y-116241200D01*
X73778928Y-116321326D01*
X73399482Y-116478497D01*
X73195000Y-116615128D01*
X73195000Y-115837272D01*
X73399482Y-115973903D01*
X73778928Y-116131074D01*
X74181745Y-116211200D01*
X74592455Y-116211200D01*
X74995272Y-116131074D01*
X75374718Y-115973903D01*
X75716210Y-115745725D01*
X76006625Y-115455310D01*
X76234803Y-115113818D01*
X76391974Y-114734372D01*
X76472100Y-114331555D01*
X76472100Y-113920845D01*
X76391974Y-113518028D01*
X76234803Y-113138582D01*
X76006625Y-112797090D01*
X75716210Y-112506675D01*
X75374718Y-112278497D01*
X74995272Y-112121326D01*
X74898269Y-112102031D01*
X75121518Y-111878781D01*
X75374718Y-111773903D01*
X75716210Y-111545725D01*
X76006625Y-111255310D01*
X76234803Y-110913818D01*
X76357217Y-110618284D01*
X76359379Y-110615649D01*
X76474057Y-110401101D01*
X76544676Y-110168302D01*
X76568521Y-109926200D01*
X76544676Y-109684098D01*
X76474057Y-109451299D01*
X76359379Y-109236751D01*
X76357217Y-109234116D01*
X76234803Y-108938582D01*
X76006625Y-108597090D01*
X75716210Y-108306675D01*
X75374718Y-108078497D01*
X74995272Y-107921326D01*
X74592455Y-107841200D01*
X74181745Y-107841200D01*
X73778928Y-107921326D01*
X73399482Y-108078497D01*
X73057990Y-108306675D01*
X72767575Y-108597090D01*
X72539397Y-108938582D01*
X72382226Y-109318028D01*
X72302100Y-109720845D01*
X72302100Y-110131555D01*
X72382226Y-110534372D01*
X72539397Y-110913818D01*
X72561017Y-110946175D01*
X71129625Y-112377568D01*
X71082498Y-112416244D01*
X70928167Y-112604298D01*
X70813489Y-112818846D01*
X70778180Y-112935245D01*
X70742870Y-113051644D01*
X70734371Y-113137935D01*
X70506625Y-112797090D01*
X70216210Y-112506675D01*
X70157100Y-112467179D01*
X70157100Y-111585221D01*
X70216210Y-111545725D01*
X70506625Y-111255310D01*
X70734803Y-110913818D01*
X70891974Y-110534372D01*
X70972100Y-110131555D01*
X70972100Y-109720845D01*
X70891974Y-109318028D01*
X70734803Y-108938582D01*
X70506625Y-108597090D01*
X70216210Y-108306675D01*
X69874718Y-108078497D01*
X69495272Y-107921326D01*
X69092455Y-107841200D01*
X68681745Y-107841200D01*
X68278928Y-107921326D01*
X67899482Y-108078497D01*
X67557990Y-108306675D01*
X67267575Y-108597090D01*
X67071992Y-108889800D01*
X49954347Y-108889800D01*
X49884676Y-108843247D01*
X49650821Y-108746381D01*
X49477973Y-108712000D01*
X49650821Y-108677619D01*
X49884676Y-108580753D01*
X50095140Y-108440125D01*
X50274125Y-108261140D01*
X50414753Y-108050676D01*
X50511619Y-107816821D01*
X50561000Y-107568561D01*
X50561000Y-107453439D01*
X62395000Y-107453439D01*
X62395000Y-107706561D01*
X62444381Y-107954821D01*
X62541247Y-108188676D01*
X62681875Y-108399140D01*
X62860860Y-108578125D01*
X63071324Y-108718753D01*
X63305179Y-108815619D01*
X63553439Y-108865000D01*
X63806561Y-108865000D01*
X64054821Y-108815619D01*
X64288676Y-108718753D01*
X64499140Y-108578125D01*
X64678125Y-108399140D01*
X64818753Y-108188676D01*
X64915619Y-107954821D01*
X64965000Y-107706561D01*
X64965000Y-107453439D01*
X64915619Y-107205179D01*
X64915000Y-107203685D01*
X64915000Y-105520845D01*
X66802100Y-105520845D01*
X66802100Y-105931555D01*
X66882226Y-106334372D01*
X67039397Y-106713818D01*
X67267575Y-107055310D01*
X67557990Y-107345725D01*
X67899482Y-107573903D01*
X68278928Y-107731074D01*
X68681745Y-107811200D01*
X69092455Y-107811200D01*
X69495272Y-107731074D01*
X69874718Y-107573903D01*
X70216210Y-107345725D01*
X70506625Y-107055310D01*
X70734803Y-106713818D01*
X70891974Y-106334372D01*
X70972100Y-105931555D01*
X70972100Y-105520845D01*
X72302100Y-105520845D01*
X72302100Y-105931555D01*
X72382226Y-106334372D01*
X72539397Y-106713818D01*
X72767575Y-107055310D01*
X73057990Y-107345725D01*
X73399482Y-107573903D01*
X73778928Y-107731074D01*
X74181745Y-107811200D01*
X74592455Y-107811200D01*
X74995272Y-107731074D01*
X75374718Y-107573903D01*
X75716210Y-107345725D01*
X76006625Y-107055310D01*
X76234803Y-106713818D01*
X76391974Y-106334372D01*
X76472100Y-105931555D01*
X76472100Y-105520845D01*
X76391974Y-105118028D01*
X76234803Y-104738582D01*
X76006625Y-104397090D01*
X75716210Y-104106675D01*
X75374718Y-103878497D01*
X74995272Y-103721326D01*
X74592455Y-103641200D01*
X74181745Y-103641200D01*
X73778928Y-103721326D01*
X73399482Y-103878497D01*
X73057990Y-104106675D01*
X72767575Y-104397090D01*
X72539397Y-104738582D01*
X72382226Y-105118028D01*
X72302100Y-105520845D01*
X70972100Y-105520845D01*
X70891974Y-105118028D01*
X70734803Y-104738582D01*
X70506625Y-104397090D01*
X70216210Y-104106675D01*
X69874718Y-103878497D01*
X69495272Y-103721326D01*
X69092455Y-103641200D01*
X68681745Y-103641200D01*
X68278928Y-103721326D01*
X67899482Y-103878497D01*
X67557990Y-104106675D01*
X67267575Y-104397090D01*
X67039397Y-104738582D01*
X66882226Y-105118028D01*
X66802100Y-105520845D01*
X64915000Y-105520845D01*
X64915000Y-102982252D01*
X67610653Y-102982252D01*
X67760648Y-103292693D01*
X68126919Y-103478511D01*
X68522403Y-103589301D01*
X68931901Y-103620809D01*
X69339677Y-103571821D01*
X69730062Y-103444221D01*
X70013552Y-103292693D01*
X70163547Y-102982252D01*
X73110653Y-102982252D01*
X73260648Y-103292693D01*
X73626919Y-103478511D01*
X74022403Y-103589301D01*
X74431901Y-103620809D01*
X74839677Y-103571821D01*
X75230062Y-103444221D01*
X75513552Y-103292693D01*
X75663547Y-102982252D01*
X74387100Y-101705805D01*
X73110653Y-102982252D01*
X70163547Y-102982252D01*
X68887100Y-101705805D01*
X67610653Y-102982252D01*
X64915000Y-102982252D01*
X64915000Y-101571001D01*
X66792491Y-101571001D01*
X66841479Y-101978777D01*
X66969079Y-102369162D01*
X67120607Y-102652652D01*
X67431048Y-102802647D01*
X68707495Y-101526200D01*
X69066705Y-101526200D01*
X70343152Y-102802647D01*
X70653593Y-102652652D01*
X70839411Y-102286381D01*
X70950201Y-101890897D01*
X70974814Y-101571001D01*
X72292491Y-101571001D01*
X72341479Y-101978777D01*
X72469079Y-102369162D01*
X72620607Y-102652652D01*
X72931048Y-102802647D01*
X74207495Y-101526200D01*
X74566705Y-101526200D01*
X75843152Y-102802647D01*
X76153593Y-102652652D01*
X76339411Y-102286381D01*
X76450201Y-101890897D01*
X76481709Y-101481399D01*
X76432721Y-101073623D01*
X76305121Y-100683238D01*
X76153593Y-100399748D01*
X75843152Y-100249753D01*
X74566705Y-101526200D01*
X74207495Y-101526200D01*
X72931048Y-100249753D01*
X72620607Y-100399748D01*
X72434789Y-100766019D01*
X72323999Y-101161503D01*
X72292491Y-101571001D01*
X70974814Y-101571001D01*
X70981709Y-101481399D01*
X70932721Y-101073623D01*
X70805121Y-100683238D01*
X70653593Y-100399748D01*
X70343152Y-100249753D01*
X69066705Y-101526200D01*
X68707495Y-101526200D01*
X67431048Y-100249753D01*
X67120607Y-100399748D01*
X66934789Y-100766019D01*
X66823999Y-101161503D01*
X66792491Y-101571001D01*
X64915000Y-101571001D01*
X64915000Y-100070148D01*
X67610653Y-100070148D01*
X68887100Y-101346595D01*
X70163547Y-100070148D01*
X73110653Y-100070148D01*
X74387100Y-101346595D01*
X75663547Y-100070148D01*
X75513552Y-99759707D01*
X75147281Y-99573889D01*
X74751797Y-99463099D01*
X74342299Y-99431591D01*
X73934523Y-99480579D01*
X73544138Y-99608179D01*
X73260648Y-99759707D01*
X73110653Y-100070148D01*
X70163547Y-100070148D01*
X70013552Y-99759707D01*
X69647281Y-99573889D01*
X69251797Y-99463099D01*
X68842299Y-99431591D01*
X68434523Y-99480579D01*
X68044138Y-99608179D01*
X67760648Y-99759707D01*
X67610653Y-100070148D01*
X64915000Y-100070148D01*
X64915000Y-98782252D01*
X67610653Y-98782252D01*
X67760648Y-99092693D01*
X68126919Y-99278511D01*
X68522403Y-99389301D01*
X68931901Y-99420809D01*
X69339677Y-99371821D01*
X69730062Y-99244221D01*
X70013552Y-99092693D01*
X70163547Y-98782252D01*
X68887100Y-97505805D01*
X67610653Y-98782252D01*
X64915000Y-98782252D01*
X64915000Y-97371001D01*
X66792491Y-97371001D01*
X66841479Y-97778777D01*
X66969079Y-98169162D01*
X67120607Y-98452652D01*
X67431048Y-98602647D01*
X68707495Y-97326200D01*
X69066705Y-97326200D01*
X70343152Y-98602647D01*
X70653593Y-98452652D01*
X70839411Y-98086381D01*
X70950201Y-97690897D01*
X70981709Y-97281399D01*
X70962421Y-97120845D01*
X72302100Y-97120845D01*
X72302100Y-97531555D01*
X72382226Y-97934372D01*
X72539397Y-98313818D01*
X72767575Y-98655310D01*
X73057990Y-98945725D01*
X73399482Y-99173903D01*
X73778928Y-99331074D01*
X74181745Y-99411200D01*
X74592455Y-99411200D01*
X74995272Y-99331074D01*
X75374718Y-99173903D01*
X75716210Y-98945725D01*
X76006625Y-98655310D01*
X76234803Y-98313818D01*
X76391974Y-97934372D01*
X76472100Y-97531555D01*
X76472100Y-97120845D01*
X76391974Y-96718028D01*
X76234803Y-96338582D01*
X76006625Y-95997090D01*
X75716210Y-95706675D01*
X75374718Y-95478497D01*
X74995272Y-95321326D01*
X74592455Y-95241200D01*
X74181745Y-95241200D01*
X73778928Y-95321326D01*
X73399482Y-95478497D01*
X73057990Y-95706675D01*
X72767575Y-95997090D01*
X72539397Y-96338582D01*
X72382226Y-96718028D01*
X72302100Y-97120845D01*
X70962421Y-97120845D01*
X70932721Y-96873623D01*
X70805121Y-96483238D01*
X70653593Y-96199748D01*
X70343152Y-96049753D01*
X69066705Y-97326200D01*
X68707495Y-97326200D01*
X67431048Y-96049753D01*
X67120607Y-96199748D01*
X66934789Y-96566019D01*
X66823999Y-96961503D01*
X66792491Y-97371001D01*
X64915000Y-97371001D01*
X64915000Y-95870148D01*
X67610653Y-95870148D01*
X68887100Y-97146595D01*
X70163547Y-95870148D01*
X70013552Y-95559707D01*
X69647281Y-95373889D01*
X69251797Y-95263099D01*
X68842299Y-95231591D01*
X68434523Y-95280579D01*
X68044138Y-95408179D01*
X67760648Y-95559707D01*
X67610653Y-95870148D01*
X64915000Y-95870148D01*
X64915000Y-94644853D01*
X64977601Y-94582252D01*
X67610653Y-94582252D01*
X67760648Y-94892693D01*
X68126919Y-95078511D01*
X68522403Y-95189301D01*
X68931901Y-95220809D01*
X69339677Y-95171821D01*
X69730062Y-95044221D01*
X70013552Y-94892693D01*
X70163547Y-94582252D01*
X73110653Y-94582252D01*
X73260648Y-94892693D01*
X73626919Y-95078511D01*
X74022403Y-95189301D01*
X74431901Y-95220809D01*
X74839677Y-95171821D01*
X75230062Y-95044221D01*
X75513552Y-94892693D01*
X75663547Y-94582252D01*
X74387100Y-93305805D01*
X73110653Y-94582252D01*
X70163547Y-94582252D01*
X68887100Y-93305805D01*
X67610653Y-94582252D01*
X64977601Y-94582252D01*
X66833980Y-92725873D01*
X66823999Y-92761503D01*
X66792491Y-93171001D01*
X66841479Y-93578777D01*
X66969079Y-93969162D01*
X67120607Y-94252652D01*
X67431048Y-94402647D01*
X68707495Y-93126200D01*
X69066705Y-93126200D01*
X70343152Y-94402647D01*
X70653593Y-94252652D01*
X70839411Y-93886381D01*
X70950201Y-93490897D01*
X70974814Y-93171001D01*
X72292491Y-93171001D01*
X72341479Y-93578777D01*
X72469079Y-93969162D01*
X72620607Y-94252652D01*
X72931048Y-94402647D01*
X74207495Y-93126200D01*
X74566705Y-93126200D01*
X75843152Y-94402647D01*
X76153593Y-94252652D01*
X76339411Y-93886381D01*
X76450201Y-93490897D01*
X76481709Y-93081399D01*
X76432721Y-92673623D01*
X76305121Y-92283238D01*
X76153593Y-91999748D01*
X75843152Y-91849753D01*
X74566705Y-93126200D01*
X74207495Y-93126200D01*
X72931048Y-91849753D01*
X72620607Y-91999748D01*
X72434789Y-92366019D01*
X72323999Y-92761503D01*
X72292491Y-93171001D01*
X70974814Y-93171001D01*
X70981709Y-93081399D01*
X70932721Y-92673623D01*
X70805121Y-92283238D01*
X70653593Y-91999748D01*
X70343152Y-91849753D01*
X69066705Y-93126200D01*
X68707495Y-93126200D01*
X68693353Y-93112058D01*
X68872958Y-92932453D01*
X68887100Y-92946595D01*
X70163547Y-91670148D01*
X73110653Y-91670148D01*
X74387100Y-92946595D01*
X75663547Y-91670148D01*
X75513552Y-91359707D01*
X75147281Y-91173889D01*
X74751797Y-91063099D01*
X74342299Y-91031591D01*
X73934523Y-91080579D01*
X73544138Y-91208179D01*
X73260648Y-91359707D01*
X73110653Y-91670148D01*
X70163547Y-91670148D01*
X70013552Y-91359707D01*
X69647281Y-91173889D01*
X69251797Y-91063099D01*
X68842299Y-91031591D01*
X68485385Y-91074469D01*
X68570735Y-90989119D01*
X68681745Y-91011200D01*
X69092455Y-91011200D01*
X69495272Y-90931074D01*
X69874718Y-90773903D01*
X70216210Y-90545725D01*
X70506625Y-90255310D01*
X70734803Y-89913818D01*
X70891974Y-89534372D01*
X70972100Y-89131555D01*
X70972100Y-88720845D01*
X72302100Y-88720845D01*
X72302100Y-89131555D01*
X72382226Y-89534372D01*
X72539397Y-89913818D01*
X72767575Y-90255310D01*
X73057990Y-90545725D01*
X73399482Y-90773903D01*
X73778928Y-90931074D01*
X74181745Y-91011200D01*
X74592455Y-91011200D01*
X74995272Y-90931074D01*
X75374718Y-90773903D01*
X75716210Y-90545725D01*
X76006625Y-90255310D01*
X76234803Y-89913818D01*
X76391974Y-89534372D01*
X76472100Y-89131555D01*
X76472100Y-88720845D01*
X76391974Y-88318028D01*
X76234803Y-87938582D01*
X76006625Y-87597090D01*
X75716210Y-87306675D01*
X75374718Y-87078497D01*
X74995272Y-86921326D01*
X74592455Y-86841200D01*
X74181745Y-86841200D01*
X73778928Y-86921326D01*
X73399482Y-87078497D01*
X73057990Y-87306675D01*
X72767575Y-87597090D01*
X72539397Y-87938582D01*
X72382226Y-88318028D01*
X72302100Y-88720845D01*
X70972100Y-88720845D01*
X70891974Y-88318028D01*
X70734803Y-87938582D01*
X70506625Y-87597090D01*
X70216210Y-87306675D01*
X69874718Y-87078497D01*
X69495272Y-86921326D01*
X69092455Y-86841200D01*
X68681745Y-86841200D01*
X68278928Y-86921326D01*
X67899482Y-87078497D01*
X67557990Y-87306675D01*
X67267575Y-87597090D01*
X67039397Y-87938582D01*
X66882226Y-88318028D01*
X66802100Y-88720845D01*
X66802100Y-89131555D01*
X66824181Y-89242565D01*
X62849625Y-93217122D01*
X62802498Y-93255798D01*
X62648167Y-93443852D01*
X62533489Y-93658400D01*
X62533489Y-93658401D01*
X62462870Y-93891198D01*
X62439025Y-94133300D01*
X62445000Y-94193965D01*
X62445001Y-107203682D01*
X62444381Y-107205179D01*
X62395000Y-107453439D01*
X50561000Y-107453439D01*
X50561000Y-107315439D01*
X50511619Y-107067179D01*
X50414753Y-106833324D01*
X50274125Y-106622860D01*
X50095140Y-106443875D01*
X49884676Y-106303247D01*
X49650821Y-106206381D01*
X49477973Y-106172000D01*
X49650821Y-106137619D01*
X49884676Y-106040753D01*
X50095140Y-105900125D01*
X50274125Y-105721140D01*
X50414753Y-105510676D01*
X50511619Y-105276821D01*
X50561000Y-105028561D01*
X50561000Y-104775439D01*
X50511619Y-104527179D01*
X50414753Y-104293324D01*
X50274125Y-104082860D01*
X50095140Y-103903875D01*
X49884676Y-103763247D01*
X49650821Y-103666381D01*
X49477973Y-103632000D01*
X49650821Y-103597619D01*
X49884676Y-103500753D01*
X50095140Y-103360125D01*
X50274125Y-103181140D01*
X50414753Y-102970676D01*
X50511619Y-102736821D01*
X50561000Y-102488561D01*
X50561000Y-102235439D01*
X50511619Y-101987179D01*
X50414753Y-101753324D01*
X50274125Y-101542860D01*
X50095140Y-101363875D01*
X49884676Y-101223247D01*
X49650821Y-101126381D01*
X49475256Y-101091460D01*
X49602449Y-101071270D01*
X49839896Y-100983578D01*
X49928534Y-100936201D01*
X49981922Y-100707527D01*
X49276000Y-100001605D01*
X48570078Y-100707527D01*
X48623466Y-100936201D01*
X48853374Y-101042095D01*
X49067211Y-101093356D01*
X48901179Y-101126381D01*
X48667324Y-101223247D01*
X48456860Y-101363875D01*
X48277875Y-101542860D01*
X48137247Y-101753324D01*
X48040381Y-101987179D01*
X48006000Y-102160027D01*
X47971619Y-101987179D01*
X47874753Y-101753324D01*
X47734125Y-101542860D01*
X47555140Y-101363875D01*
X47344676Y-101223247D01*
X47110821Y-101126381D01*
X46935256Y-101091460D01*
X47062449Y-101071270D01*
X47299896Y-100983578D01*
X47388534Y-100936201D01*
X47441922Y-100707527D01*
X46736000Y-100001605D01*
X46030078Y-100707527D01*
X46083466Y-100936201D01*
X46313374Y-101042095D01*
X46527211Y-101093356D01*
X46361179Y-101126381D01*
X46127324Y-101223247D01*
X45916860Y-101363875D01*
X45737875Y-101542860D01*
X45597247Y-101753324D01*
X45500381Y-101987179D01*
X45451000Y-102235439D01*
X40843200Y-102235439D01*
X40843200Y-99898455D01*
X45447048Y-99898455D01*
X45486730Y-100148449D01*
X45574422Y-100385896D01*
X45621799Y-100474534D01*
X45850473Y-100527922D01*
X46556395Y-99822000D01*
X46915605Y-99822000D01*
X47621527Y-100527922D01*
X47850201Y-100474534D01*
X47956095Y-100244626D01*
X48007776Y-100029038D01*
X48026730Y-100148449D01*
X48114422Y-100385896D01*
X48161799Y-100474534D01*
X48390473Y-100527922D01*
X49096395Y-99822000D01*
X49455605Y-99822000D01*
X50161527Y-100527922D01*
X50390201Y-100474534D01*
X50496095Y-100244626D01*
X50555102Y-99998476D01*
X50564952Y-99745545D01*
X50525270Y-99495551D01*
X50437578Y-99258104D01*
X50390201Y-99169466D01*
X50161527Y-99116078D01*
X49455605Y-99822000D01*
X49096395Y-99822000D01*
X48390473Y-99116078D01*
X48161799Y-99169466D01*
X48055905Y-99399374D01*
X48004224Y-99614962D01*
X47985270Y-99495551D01*
X47897578Y-99258104D01*
X47850201Y-99169466D01*
X47621527Y-99116078D01*
X46915605Y-99822000D01*
X46556395Y-99822000D01*
X45850473Y-99116078D01*
X45621799Y-99169466D01*
X45515905Y-99399374D01*
X45456898Y-99645524D01*
X45447048Y-99898455D01*
X40843200Y-99898455D01*
X40843200Y-98167527D01*
X46030078Y-98167527D01*
X46083466Y-98396201D01*
X46313374Y-98502095D01*
X46528962Y-98553776D01*
X46409551Y-98572730D01*
X46172104Y-98660422D01*
X46083466Y-98707799D01*
X46030078Y-98936473D01*
X46736000Y-99642395D01*
X47441922Y-98936473D01*
X47388534Y-98707799D01*
X47158626Y-98601905D01*
X46943038Y-98550224D01*
X47062449Y-98531270D01*
X47299896Y-98443578D01*
X47388534Y-98396201D01*
X47441922Y-98167527D01*
X48570078Y-98167527D01*
X48623466Y-98396201D01*
X48853374Y-98502095D01*
X49068962Y-98553776D01*
X48949551Y-98572730D01*
X48712104Y-98660422D01*
X48623466Y-98707799D01*
X48570078Y-98936473D01*
X49276000Y-99642395D01*
X49981922Y-98936473D01*
X49928534Y-98707799D01*
X49698626Y-98601905D01*
X49483038Y-98550224D01*
X49602449Y-98531270D01*
X49839896Y-98443578D01*
X49928534Y-98396201D01*
X49981922Y-98167527D01*
X49276000Y-97461605D01*
X48570078Y-98167527D01*
X47441922Y-98167527D01*
X46736000Y-97461605D01*
X46030078Y-98167527D01*
X40843200Y-98167527D01*
X40843200Y-97358455D01*
X45447048Y-97358455D01*
X45486730Y-97608449D01*
X45574422Y-97845896D01*
X45621799Y-97934534D01*
X45850473Y-97987922D01*
X46556395Y-97282000D01*
X46915605Y-97282000D01*
X47621527Y-97987922D01*
X47850201Y-97934534D01*
X47956095Y-97704626D01*
X48007776Y-97489038D01*
X48026730Y-97608449D01*
X48114422Y-97845896D01*
X48161799Y-97934534D01*
X48390473Y-97987922D01*
X49096395Y-97282000D01*
X49455605Y-97282000D01*
X50161527Y-97987922D01*
X50390201Y-97934534D01*
X50496095Y-97704626D01*
X50555102Y-97458476D01*
X50564952Y-97205545D01*
X50525270Y-96955551D01*
X50437578Y-96718104D01*
X50390201Y-96629466D01*
X50161527Y-96576078D01*
X49455605Y-97282000D01*
X49096395Y-97282000D01*
X48390473Y-96576078D01*
X48161799Y-96629466D01*
X48055905Y-96859374D01*
X48004224Y-97074962D01*
X47985270Y-96955551D01*
X47897578Y-96718104D01*
X47850201Y-96629466D01*
X47621527Y-96576078D01*
X46915605Y-97282000D01*
X46556395Y-97282000D01*
X45850473Y-96576078D01*
X45621799Y-96629466D01*
X45515905Y-96859374D01*
X45456898Y-97105524D01*
X45447048Y-97358455D01*
X40843200Y-97358455D01*
X40843200Y-95627527D01*
X46030078Y-95627527D01*
X46083466Y-95856201D01*
X46313374Y-95962095D01*
X46528962Y-96013776D01*
X46409551Y-96032730D01*
X46172104Y-96120422D01*
X46083466Y-96167799D01*
X46030078Y-96396473D01*
X46736000Y-97102395D01*
X47441922Y-96396473D01*
X47388534Y-96167799D01*
X47158626Y-96061905D01*
X46943038Y-96010224D01*
X47062449Y-95991270D01*
X47299896Y-95903578D01*
X47388534Y-95856201D01*
X47441922Y-95627527D01*
X48570078Y-95627527D01*
X48623466Y-95856201D01*
X48853374Y-95962095D01*
X49068962Y-96013776D01*
X48949551Y-96032730D01*
X48712104Y-96120422D01*
X48623466Y-96167799D01*
X48570078Y-96396473D01*
X49276000Y-97102395D01*
X49981922Y-96396473D01*
X49928534Y-96167799D01*
X49698626Y-96061905D01*
X49483038Y-96010224D01*
X49602449Y-95991270D01*
X49839896Y-95903578D01*
X49928534Y-95856201D01*
X49981922Y-95627527D01*
X49276000Y-94921605D01*
X48570078Y-95627527D01*
X47441922Y-95627527D01*
X46736000Y-94921605D01*
X46030078Y-95627527D01*
X40843200Y-95627527D01*
X40843200Y-94818455D01*
X45447048Y-94818455D01*
X45486730Y-95068449D01*
X45574422Y-95305896D01*
X45621799Y-95394534D01*
X45850473Y-95447922D01*
X46556395Y-94742000D01*
X46915605Y-94742000D01*
X47621527Y-95447922D01*
X47850201Y-95394534D01*
X47956095Y-95164626D01*
X48007776Y-94949038D01*
X48026730Y-95068449D01*
X48114422Y-95305896D01*
X48161799Y-95394534D01*
X48390473Y-95447922D01*
X49096395Y-94742000D01*
X49455605Y-94742000D01*
X50161527Y-95447922D01*
X50390201Y-95394534D01*
X50496095Y-95164626D01*
X50555102Y-94918476D01*
X50564952Y-94665545D01*
X50525270Y-94415551D01*
X50437578Y-94178104D01*
X50390201Y-94089466D01*
X50161527Y-94036078D01*
X49455605Y-94742000D01*
X49096395Y-94742000D01*
X48390473Y-94036078D01*
X48161799Y-94089466D01*
X48055905Y-94319374D01*
X48004224Y-94534962D01*
X47985270Y-94415551D01*
X47897578Y-94178104D01*
X47850201Y-94089466D01*
X47621527Y-94036078D01*
X46915605Y-94742000D01*
X46556395Y-94742000D01*
X45850473Y-94036078D01*
X45621799Y-94089466D01*
X45515905Y-94319374D01*
X45456898Y-94565524D01*
X45447048Y-94818455D01*
X40843200Y-94818455D01*
X40843200Y-93087527D01*
X46030078Y-93087527D01*
X46083466Y-93316201D01*
X46313374Y-93422095D01*
X46528962Y-93473776D01*
X46409551Y-93492730D01*
X46172104Y-93580422D01*
X46083466Y-93627799D01*
X46030078Y-93856473D01*
X46736000Y-94562395D01*
X47441922Y-93856473D01*
X47388534Y-93627799D01*
X47158626Y-93521905D01*
X46943038Y-93470224D01*
X47062449Y-93451270D01*
X47299896Y-93363578D01*
X47388534Y-93316201D01*
X47441922Y-93087527D01*
X48570078Y-93087527D01*
X48623466Y-93316201D01*
X48853374Y-93422095D01*
X49068962Y-93473776D01*
X48949551Y-93492730D01*
X48712104Y-93580422D01*
X48623466Y-93627799D01*
X48570078Y-93856473D01*
X49276000Y-94562395D01*
X49981922Y-93856473D01*
X49928534Y-93627799D01*
X49698626Y-93521905D01*
X49483038Y-93470224D01*
X49602449Y-93451270D01*
X49839896Y-93363578D01*
X49928534Y-93316201D01*
X49981922Y-93087527D01*
X49276000Y-92381605D01*
X48570078Y-93087527D01*
X47441922Y-93087527D01*
X46736000Y-92381605D01*
X46030078Y-93087527D01*
X40843200Y-93087527D01*
X40843200Y-92278455D01*
X45447048Y-92278455D01*
X45486730Y-92528449D01*
X45574422Y-92765896D01*
X45621799Y-92854534D01*
X45850473Y-92907922D01*
X46556395Y-92202000D01*
X46915605Y-92202000D01*
X47621527Y-92907922D01*
X47850201Y-92854534D01*
X47956095Y-92624626D01*
X48007776Y-92409038D01*
X48026730Y-92528449D01*
X48114422Y-92765896D01*
X48161799Y-92854534D01*
X48390473Y-92907922D01*
X49096395Y-92202000D01*
X49455605Y-92202000D01*
X50161527Y-92907922D01*
X50390201Y-92854534D01*
X50496095Y-92624626D01*
X50555102Y-92378476D01*
X50564952Y-92125545D01*
X50525270Y-91875551D01*
X50437578Y-91638104D01*
X50390201Y-91549466D01*
X50161527Y-91496078D01*
X49455605Y-92202000D01*
X49096395Y-92202000D01*
X48390473Y-91496078D01*
X48161799Y-91549466D01*
X48055905Y-91779374D01*
X48004224Y-91994962D01*
X47985270Y-91875551D01*
X47897578Y-91638104D01*
X47850201Y-91549466D01*
X47621527Y-91496078D01*
X46915605Y-92202000D01*
X46556395Y-92202000D01*
X45850473Y-91496078D01*
X45621799Y-91549466D01*
X45515905Y-91779374D01*
X45456898Y-92025524D01*
X45447048Y-92278455D01*
X40843200Y-92278455D01*
X40843200Y-90547527D01*
X46030078Y-90547527D01*
X46083466Y-90776201D01*
X46313374Y-90882095D01*
X46528962Y-90933776D01*
X46409551Y-90952730D01*
X46172104Y-91040422D01*
X46083466Y-91087799D01*
X46030078Y-91316473D01*
X46736000Y-92022395D01*
X47441922Y-91316473D01*
X47388534Y-91087799D01*
X47158626Y-90981905D01*
X46943038Y-90930224D01*
X47062449Y-90911270D01*
X47299896Y-90823578D01*
X47388534Y-90776201D01*
X47441922Y-90547527D01*
X48570078Y-90547527D01*
X48623466Y-90776201D01*
X48853374Y-90882095D01*
X49068962Y-90933776D01*
X48949551Y-90952730D01*
X48712104Y-91040422D01*
X48623466Y-91087799D01*
X48570078Y-91316473D01*
X49276000Y-92022395D01*
X49981922Y-91316473D01*
X49928534Y-91087799D01*
X49698626Y-90981905D01*
X49483038Y-90930224D01*
X49602449Y-90911270D01*
X49839896Y-90823578D01*
X49928534Y-90776201D01*
X49981922Y-90547527D01*
X49276000Y-89841605D01*
X48570078Y-90547527D01*
X47441922Y-90547527D01*
X46736000Y-89841605D01*
X46030078Y-90547527D01*
X40843200Y-90547527D01*
X40843200Y-89738455D01*
X45447048Y-89738455D01*
X45486730Y-89988449D01*
X45574422Y-90225896D01*
X45621799Y-90314534D01*
X45850473Y-90367922D01*
X46556395Y-89662000D01*
X46915605Y-89662000D01*
X47621527Y-90367922D01*
X47850201Y-90314534D01*
X47956095Y-90084626D01*
X48007776Y-89869038D01*
X48026730Y-89988449D01*
X48114422Y-90225896D01*
X48161799Y-90314534D01*
X48390473Y-90367922D01*
X49096395Y-89662000D01*
X49455605Y-89662000D01*
X50161527Y-90367922D01*
X50390201Y-90314534D01*
X50496095Y-90084626D01*
X50555102Y-89838476D01*
X50564952Y-89585545D01*
X50525270Y-89335551D01*
X50437578Y-89098104D01*
X50390201Y-89009466D01*
X50161527Y-88956078D01*
X49455605Y-89662000D01*
X49096395Y-89662000D01*
X48390473Y-88956078D01*
X48161799Y-89009466D01*
X48055905Y-89239374D01*
X48004224Y-89454962D01*
X47985270Y-89335551D01*
X47897578Y-89098104D01*
X47850201Y-89009466D01*
X47621527Y-88956078D01*
X46915605Y-89662000D01*
X46556395Y-89662000D01*
X45850473Y-88956078D01*
X45621799Y-89009466D01*
X45515905Y-89239374D01*
X45456898Y-89485524D01*
X45447048Y-89738455D01*
X40843200Y-89738455D01*
X40843200Y-88007527D01*
X46030078Y-88007527D01*
X46083466Y-88236201D01*
X46313374Y-88342095D01*
X46528962Y-88393776D01*
X46409551Y-88412730D01*
X46172104Y-88500422D01*
X46083466Y-88547799D01*
X46030078Y-88776473D01*
X46736000Y-89482395D01*
X47441922Y-88776473D01*
X47388534Y-88547799D01*
X47158626Y-88441905D01*
X46943038Y-88390224D01*
X47062449Y-88371270D01*
X47299896Y-88283578D01*
X47388534Y-88236201D01*
X47441922Y-88007527D01*
X48570078Y-88007527D01*
X48623466Y-88236201D01*
X48853374Y-88342095D01*
X49068962Y-88393776D01*
X48949551Y-88412730D01*
X48712104Y-88500422D01*
X48623466Y-88547799D01*
X48570078Y-88776473D01*
X49276000Y-89482395D01*
X49981922Y-88776473D01*
X49928534Y-88547799D01*
X49698626Y-88441905D01*
X49483038Y-88390224D01*
X49602449Y-88371270D01*
X49839896Y-88283578D01*
X49928534Y-88236201D01*
X49981922Y-88007527D01*
X49276000Y-87301605D01*
X48570078Y-88007527D01*
X47441922Y-88007527D01*
X46736000Y-87301605D01*
X46030078Y-88007527D01*
X40843200Y-88007527D01*
X40843200Y-87198455D01*
X45447048Y-87198455D01*
X45486730Y-87448449D01*
X45574422Y-87685896D01*
X45621799Y-87774534D01*
X45850473Y-87827922D01*
X46556395Y-87122000D01*
X46915605Y-87122000D01*
X47621527Y-87827922D01*
X47850201Y-87774534D01*
X47956095Y-87544626D01*
X48007776Y-87329038D01*
X48026730Y-87448449D01*
X48114422Y-87685896D01*
X48161799Y-87774534D01*
X48390473Y-87827922D01*
X49096395Y-87122000D01*
X49455605Y-87122000D01*
X50161527Y-87827922D01*
X50390201Y-87774534D01*
X50496095Y-87544626D01*
X50555102Y-87298476D01*
X50564952Y-87045545D01*
X50525270Y-86795551D01*
X50437578Y-86558104D01*
X50390201Y-86469466D01*
X50161527Y-86416078D01*
X49455605Y-87122000D01*
X49096395Y-87122000D01*
X48390473Y-86416078D01*
X48161799Y-86469466D01*
X48055905Y-86699374D01*
X48004224Y-86914962D01*
X47985270Y-86795551D01*
X47897578Y-86558104D01*
X47850201Y-86469466D01*
X47621527Y-86416078D01*
X46915605Y-87122000D01*
X46556395Y-87122000D01*
X45850473Y-86416078D01*
X45621799Y-86469466D01*
X45515905Y-86699374D01*
X45456898Y-86945524D01*
X45447048Y-87198455D01*
X40843200Y-87198455D01*
X40843200Y-85467527D01*
X46030078Y-85467527D01*
X46083466Y-85696201D01*
X46313374Y-85802095D01*
X46528962Y-85853776D01*
X46409551Y-85872730D01*
X46172104Y-85960422D01*
X46083466Y-86007799D01*
X46030078Y-86236473D01*
X46736000Y-86942395D01*
X47441922Y-86236473D01*
X47388534Y-86007799D01*
X47158626Y-85901905D01*
X46943038Y-85850224D01*
X47062449Y-85831270D01*
X47299896Y-85743578D01*
X47388534Y-85696201D01*
X47441922Y-85467527D01*
X48570078Y-85467527D01*
X48623466Y-85696201D01*
X48853374Y-85802095D01*
X49068962Y-85853776D01*
X48949551Y-85872730D01*
X48712104Y-85960422D01*
X48623466Y-86007799D01*
X48570078Y-86236473D01*
X49276000Y-86942395D01*
X49981922Y-86236473D01*
X49969264Y-86182252D01*
X67610653Y-86182252D01*
X67760648Y-86492693D01*
X68126919Y-86678511D01*
X68522403Y-86789301D01*
X68931901Y-86820809D01*
X69339677Y-86771821D01*
X69730062Y-86644221D01*
X70013552Y-86492693D01*
X70163547Y-86182252D01*
X73110653Y-86182252D01*
X73260648Y-86492693D01*
X73626919Y-86678511D01*
X74022403Y-86789301D01*
X74431901Y-86820809D01*
X74839677Y-86771821D01*
X75230062Y-86644221D01*
X75513552Y-86492693D01*
X75663547Y-86182252D01*
X74387100Y-84905805D01*
X73110653Y-86182252D01*
X70163547Y-86182252D01*
X68887100Y-84905805D01*
X67610653Y-86182252D01*
X49969264Y-86182252D01*
X49928534Y-86007799D01*
X49698626Y-85901905D01*
X49483038Y-85850224D01*
X49602449Y-85831270D01*
X49839896Y-85743578D01*
X49928534Y-85696201D01*
X49981922Y-85467527D01*
X49276000Y-84761605D01*
X48570078Y-85467527D01*
X47441922Y-85467527D01*
X46736000Y-84761605D01*
X46030078Y-85467527D01*
X40843200Y-85467527D01*
X40843200Y-84658455D01*
X45447048Y-84658455D01*
X45486730Y-84908449D01*
X45574422Y-85145896D01*
X45621799Y-85234534D01*
X45850473Y-85287922D01*
X46556395Y-84582000D01*
X46915605Y-84582000D01*
X47621527Y-85287922D01*
X47850201Y-85234534D01*
X47956095Y-85004626D01*
X48007776Y-84789038D01*
X48026730Y-84908449D01*
X48114422Y-85145896D01*
X48161799Y-85234534D01*
X48390473Y-85287922D01*
X49096395Y-84582000D01*
X49455605Y-84582000D01*
X50161527Y-85287922D01*
X50390201Y-85234534D01*
X50496095Y-85004626D01*
X50552099Y-84771001D01*
X66792491Y-84771001D01*
X66841479Y-85178777D01*
X66969079Y-85569162D01*
X67120607Y-85852652D01*
X67431048Y-86002647D01*
X68707495Y-84726200D01*
X69066705Y-84726200D01*
X70343152Y-86002647D01*
X70653593Y-85852652D01*
X70839411Y-85486381D01*
X70950201Y-85090897D01*
X70974814Y-84771001D01*
X72292491Y-84771001D01*
X72341479Y-85178777D01*
X72469079Y-85569162D01*
X72620607Y-85852652D01*
X72931048Y-86002647D01*
X74207495Y-84726200D01*
X74566705Y-84726200D01*
X75843152Y-86002647D01*
X76153593Y-85852652D01*
X76339411Y-85486381D01*
X76450201Y-85090897D01*
X76481709Y-84681399D01*
X76432721Y-84273623D01*
X76305121Y-83883238D01*
X76153593Y-83599748D01*
X75843152Y-83449753D01*
X74566705Y-84726200D01*
X74207495Y-84726200D01*
X72931048Y-83449753D01*
X72620607Y-83599748D01*
X72434789Y-83966019D01*
X72323999Y-84361503D01*
X72292491Y-84771001D01*
X70974814Y-84771001D01*
X70981709Y-84681399D01*
X70932721Y-84273623D01*
X70805121Y-83883238D01*
X70653593Y-83599748D01*
X70343152Y-83449753D01*
X69066705Y-84726200D01*
X68707495Y-84726200D01*
X67431048Y-83449753D01*
X67120607Y-83599748D01*
X66934789Y-83966019D01*
X66823999Y-84361503D01*
X66792491Y-84771001D01*
X50552099Y-84771001D01*
X50555102Y-84758476D01*
X50564952Y-84505545D01*
X50525270Y-84255551D01*
X50437578Y-84018104D01*
X50390201Y-83929466D01*
X50161527Y-83876078D01*
X49455605Y-84582000D01*
X49096395Y-84582000D01*
X48390473Y-83876078D01*
X48161799Y-83929466D01*
X48055905Y-84159374D01*
X48004224Y-84374962D01*
X47985270Y-84255551D01*
X47897578Y-84018104D01*
X47850201Y-83929466D01*
X47621527Y-83876078D01*
X46915605Y-84582000D01*
X46556395Y-84582000D01*
X45850473Y-83876078D01*
X45621799Y-83929466D01*
X45515905Y-84159374D01*
X45456898Y-84405524D01*
X45447048Y-84658455D01*
X40843200Y-84658455D01*
X40843200Y-82927527D01*
X46030078Y-82927527D01*
X46083466Y-83156201D01*
X46313374Y-83262095D01*
X46528962Y-83313776D01*
X46409551Y-83332730D01*
X46172104Y-83420422D01*
X46083466Y-83467799D01*
X46030078Y-83696473D01*
X46736000Y-84402395D01*
X47441922Y-83696473D01*
X47388534Y-83467799D01*
X47158626Y-83361905D01*
X46943038Y-83310224D01*
X47062449Y-83291270D01*
X47299896Y-83203578D01*
X47388534Y-83156201D01*
X47441922Y-82927527D01*
X48570078Y-82927527D01*
X48623466Y-83156201D01*
X48853374Y-83262095D01*
X49068962Y-83313776D01*
X48949551Y-83332730D01*
X48712104Y-83420422D01*
X48623466Y-83467799D01*
X48570078Y-83696473D01*
X49276000Y-84402395D01*
X49981922Y-83696473D01*
X49928534Y-83467799D01*
X49698626Y-83361905D01*
X49483038Y-83310224D01*
X49602449Y-83291270D01*
X49659641Y-83270148D01*
X67610653Y-83270148D01*
X68887100Y-84546595D01*
X70163547Y-83270148D01*
X73110653Y-83270148D01*
X74387100Y-84546595D01*
X75663547Y-83270148D01*
X75513552Y-82959707D01*
X75147281Y-82773889D01*
X74751797Y-82663099D01*
X74342299Y-82631591D01*
X73934523Y-82680579D01*
X73544138Y-82808179D01*
X73260648Y-82959707D01*
X73110653Y-83270148D01*
X70163547Y-83270148D01*
X70013552Y-82959707D01*
X69647281Y-82773889D01*
X69251797Y-82663099D01*
X68842299Y-82631591D01*
X68434523Y-82680579D01*
X68044138Y-82808179D01*
X67760648Y-82959707D01*
X67610653Y-83270148D01*
X49659641Y-83270148D01*
X49839896Y-83203578D01*
X49928534Y-83156201D01*
X49981922Y-82927527D01*
X49276000Y-82221605D01*
X48570078Y-82927527D01*
X47441922Y-82927527D01*
X46736000Y-82221605D01*
X46030078Y-82927527D01*
X40843200Y-82927527D01*
X40843200Y-82118455D01*
X45447048Y-82118455D01*
X45486730Y-82368449D01*
X45574422Y-82605896D01*
X45621799Y-82694534D01*
X45850473Y-82747922D01*
X46556395Y-82042000D01*
X46915605Y-82042000D01*
X47621527Y-82747922D01*
X47850201Y-82694534D01*
X47956095Y-82464626D01*
X48007776Y-82249038D01*
X48026730Y-82368449D01*
X48114422Y-82605896D01*
X48161799Y-82694534D01*
X48390473Y-82747922D01*
X49096395Y-82042000D01*
X49455605Y-82042000D01*
X50161527Y-82747922D01*
X50390201Y-82694534D01*
X50496095Y-82464626D01*
X50555102Y-82218476D01*
X50564952Y-81965545D01*
X50525270Y-81715551D01*
X50437578Y-81478104D01*
X50390201Y-81389466D01*
X50161527Y-81336078D01*
X49455605Y-82042000D01*
X49096395Y-82042000D01*
X48390473Y-81336078D01*
X48161799Y-81389466D01*
X48055905Y-81619374D01*
X48004224Y-81834962D01*
X47985270Y-81715551D01*
X47897578Y-81478104D01*
X47850201Y-81389466D01*
X47621527Y-81336078D01*
X46915605Y-82042000D01*
X46556395Y-82042000D01*
X45850473Y-81336078D01*
X45621799Y-81389466D01*
X45515905Y-81619374D01*
X45456898Y-81865524D01*
X45447048Y-82118455D01*
X40843200Y-82118455D01*
X40843200Y-80387527D01*
X46030078Y-80387527D01*
X46083466Y-80616201D01*
X46313374Y-80722095D01*
X46528962Y-80773776D01*
X46409551Y-80792730D01*
X46172104Y-80880422D01*
X46083466Y-80927799D01*
X46030078Y-81156473D01*
X46736000Y-81862395D01*
X47441922Y-81156473D01*
X47388534Y-80927799D01*
X47158626Y-80821905D01*
X46943038Y-80770224D01*
X47062449Y-80751270D01*
X47299896Y-80663578D01*
X47388534Y-80616201D01*
X47441922Y-80387527D01*
X48570078Y-80387527D01*
X48623466Y-80616201D01*
X48853374Y-80722095D01*
X49068962Y-80773776D01*
X48949551Y-80792730D01*
X48712104Y-80880422D01*
X48623466Y-80927799D01*
X48570078Y-81156473D01*
X49276000Y-81862395D01*
X49981922Y-81156473D01*
X49928534Y-80927799D01*
X49698626Y-80821905D01*
X49483038Y-80770224D01*
X49602449Y-80751270D01*
X49839896Y-80663578D01*
X49928534Y-80616201D01*
X49981922Y-80387527D01*
X49915240Y-80320845D01*
X66802100Y-80320845D01*
X66802100Y-80731555D01*
X66882226Y-81134372D01*
X67039397Y-81513818D01*
X67267575Y-81855310D01*
X67557990Y-82145725D01*
X67899482Y-82373903D01*
X68278928Y-82531074D01*
X68681745Y-82611200D01*
X69092455Y-82611200D01*
X69495272Y-82531074D01*
X69874718Y-82373903D01*
X70216210Y-82145725D01*
X70506625Y-81855310D01*
X70734803Y-81513818D01*
X70891974Y-81134372D01*
X70972100Y-80731555D01*
X70972100Y-80320845D01*
X72302100Y-80320845D01*
X72302100Y-80731555D01*
X72382226Y-81134372D01*
X72539397Y-81513818D01*
X72767575Y-81855310D01*
X73057990Y-82145725D01*
X73399482Y-82373903D01*
X73778928Y-82531074D01*
X74181745Y-82611200D01*
X74592455Y-82611200D01*
X74995272Y-82531074D01*
X75374718Y-82373903D01*
X75716210Y-82145725D01*
X76006625Y-81855310D01*
X76234803Y-81513818D01*
X76391974Y-81134372D01*
X76472100Y-80731555D01*
X76472100Y-80320845D01*
X76391974Y-79918028D01*
X76234803Y-79538582D01*
X76006625Y-79197090D01*
X75716210Y-78906675D01*
X75374718Y-78678497D01*
X74995272Y-78521326D01*
X74592455Y-78441200D01*
X74181745Y-78441200D01*
X73778928Y-78521326D01*
X73399482Y-78678497D01*
X73057990Y-78906675D01*
X72767575Y-79197090D01*
X72539397Y-79538582D01*
X72382226Y-79918028D01*
X72302100Y-80320845D01*
X70972100Y-80320845D01*
X70891974Y-79918028D01*
X70734803Y-79538582D01*
X70506625Y-79197090D01*
X70216210Y-78906675D01*
X69874718Y-78678497D01*
X69495272Y-78521326D01*
X69092455Y-78441200D01*
X68681745Y-78441200D01*
X68278928Y-78521326D01*
X67899482Y-78678497D01*
X67557990Y-78906675D01*
X67267575Y-79197090D01*
X67039397Y-79538582D01*
X66882226Y-79918028D01*
X66802100Y-80320845D01*
X49915240Y-80320845D01*
X49276000Y-79681605D01*
X48570078Y-80387527D01*
X47441922Y-80387527D01*
X46736000Y-79681605D01*
X46030078Y-80387527D01*
X40843200Y-80387527D01*
X40843200Y-79578455D01*
X45447048Y-79578455D01*
X45486730Y-79828449D01*
X45574422Y-80065896D01*
X45621799Y-80154534D01*
X45850473Y-80207922D01*
X46556395Y-79502000D01*
X46915605Y-79502000D01*
X47621527Y-80207922D01*
X47850201Y-80154534D01*
X47956095Y-79924626D01*
X48007776Y-79709038D01*
X48026730Y-79828449D01*
X48114422Y-80065896D01*
X48161799Y-80154534D01*
X48390473Y-80207922D01*
X49096395Y-79502000D01*
X49455605Y-79502000D01*
X50161527Y-80207922D01*
X50390201Y-80154534D01*
X50496095Y-79924626D01*
X50555102Y-79678476D01*
X50564952Y-79425545D01*
X50525270Y-79175551D01*
X50437578Y-78938104D01*
X50390201Y-78849466D01*
X50161527Y-78796078D01*
X49455605Y-79502000D01*
X49096395Y-79502000D01*
X48390473Y-78796078D01*
X48161799Y-78849466D01*
X48055905Y-79079374D01*
X48004224Y-79294962D01*
X47985270Y-79175551D01*
X47897578Y-78938104D01*
X47850201Y-78849466D01*
X47621527Y-78796078D01*
X46915605Y-79502000D01*
X46556395Y-79502000D01*
X45850473Y-78796078D01*
X45621799Y-78849466D01*
X45515905Y-79079374D01*
X45456898Y-79325524D01*
X45447048Y-79578455D01*
X40843200Y-79578455D01*
X40843200Y-77847527D01*
X46030078Y-77847527D01*
X46083466Y-78076201D01*
X46313374Y-78182095D01*
X46528962Y-78233776D01*
X46409551Y-78252730D01*
X46172104Y-78340422D01*
X46083466Y-78387799D01*
X46030078Y-78616473D01*
X46736000Y-79322395D01*
X47441922Y-78616473D01*
X47388534Y-78387799D01*
X47158626Y-78281905D01*
X46943038Y-78230224D01*
X47062449Y-78211270D01*
X47299896Y-78123578D01*
X47388534Y-78076201D01*
X47441922Y-77847527D01*
X48570078Y-77847527D01*
X48623466Y-78076201D01*
X48853374Y-78182095D01*
X49068962Y-78233776D01*
X48949551Y-78252730D01*
X48712104Y-78340422D01*
X48623466Y-78387799D01*
X48570078Y-78616473D01*
X49276000Y-79322395D01*
X49981922Y-78616473D01*
X49928534Y-78387799D01*
X49698626Y-78281905D01*
X49483038Y-78230224D01*
X49602449Y-78211270D01*
X49839896Y-78123578D01*
X49928534Y-78076201D01*
X49981922Y-77847527D01*
X49276000Y-77141605D01*
X48570078Y-77847527D01*
X47441922Y-77847527D01*
X46736000Y-77141605D01*
X46030078Y-77847527D01*
X40843200Y-77847527D01*
X40843200Y-77038455D01*
X45447048Y-77038455D01*
X45486730Y-77288449D01*
X45574422Y-77525896D01*
X45621799Y-77614534D01*
X45850473Y-77667922D01*
X46556395Y-76962000D01*
X46915605Y-76962000D01*
X47621527Y-77667922D01*
X47850201Y-77614534D01*
X47956095Y-77384626D01*
X48007776Y-77169038D01*
X48026730Y-77288449D01*
X48114422Y-77525896D01*
X48161799Y-77614534D01*
X48390473Y-77667922D01*
X49096395Y-76962000D01*
X49455605Y-76962000D01*
X50161527Y-77667922D01*
X50390201Y-77614534D01*
X50496095Y-77384626D01*
X50555102Y-77138476D01*
X50564952Y-76885545D01*
X50525270Y-76635551D01*
X50437578Y-76398104D01*
X50390201Y-76309466D01*
X50161527Y-76256078D01*
X49455605Y-76962000D01*
X49096395Y-76962000D01*
X48390473Y-76256078D01*
X48161799Y-76309466D01*
X48055905Y-76539374D01*
X48004224Y-76754962D01*
X47985270Y-76635551D01*
X47897578Y-76398104D01*
X47850201Y-76309466D01*
X47621527Y-76256078D01*
X46915605Y-76962000D01*
X46556395Y-76962000D01*
X45850473Y-76256078D01*
X45621799Y-76309466D01*
X45515905Y-76539374D01*
X45456898Y-76785524D01*
X45447048Y-77038455D01*
X40843200Y-77038455D01*
X40843200Y-75307527D01*
X46030078Y-75307527D01*
X46083466Y-75536201D01*
X46313374Y-75642095D01*
X46528962Y-75693776D01*
X46409551Y-75712730D01*
X46172104Y-75800422D01*
X46083466Y-75847799D01*
X46030078Y-76076473D01*
X46736000Y-76782395D01*
X47441922Y-76076473D01*
X47388534Y-75847799D01*
X47158626Y-75741905D01*
X46943038Y-75690224D01*
X47062449Y-75671270D01*
X47299896Y-75583578D01*
X47388534Y-75536201D01*
X47441922Y-75307527D01*
X48570078Y-75307527D01*
X48623466Y-75536201D01*
X48853374Y-75642095D01*
X49068962Y-75693776D01*
X48949551Y-75712730D01*
X48712104Y-75800422D01*
X48623466Y-75847799D01*
X48570078Y-76076473D01*
X49276000Y-76782395D01*
X49937550Y-76120845D01*
X66802100Y-76120845D01*
X66802100Y-76531555D01*
X66882226Y-76934372D01*
X67039397Y-77313818D01*
X67267575Y-77655310D01*
X67557990Y-77945725D01*
X67899482Y-78173903D01*
X68278928Y-78331074D01*
X68681745Y-78411200D01*
X69092455Y-78411200D01*
X69495272Y-78331074D01*
X69874718Y-78173903D01*
X70216210Y-77945725D01*
X70506625Y-77655310D01*
X70734803Y-77313818D01*
X70891974Y-76934372D01*
X70972100Y-76531555D01*
X70972100Y-76120845D01*
X72302100Y-76120845D01*
X72302100Y-76531555D01*
X72382226Y-76934372D01*
X72539397Y-77313818D01*
X72767575Y-77655310D01*
X73057990Y-77945725D01*
X73399482Y-78173903D01*
X73778928Y-78331074D01*
X74181745Y-78411200D01*
X74592455Y-78411200D01*
X74995272Y-78331074D01*
X75374718Y-78173903D01*
X75716210Y-77945725D01*
X76006625Y-77655310D01*
X76234803Y-77313818D01*
X76391974Y-76934372D01*
X76472100Y-76531555D01*
X76472100Y-76120845D01*
X76391974Y-75718028D01*
X76234803Y-75338582D01*
X76006625Y-74997090D01*
X75716210Y-74706675D01*
X75374718Y-74478497D01*
X74995272Y-74321326D01*
X74592455Y-74241200D01*
X74181745Y-74241200D01*
X73778928Y-74321326D01*
X73399482Y-74478497D01*
X73057990Y-74706675D01*
X72767575Y-74997090D01*
X72539397Y-75338582D01*
X72382226Y-75718028D01*
X72302100Y-76120845D01*
X70972100Y-76120845D01*
X70891974Y-75718028D01*
X70734803Y-75338582D01*
X70506625Y-74997090D01*
X70216210Y-74706675D01*
X69874718Y-74478497D01*
X69495272Y-74321326D01*
X69092455Y-74241200D01*
X68681745Y-74241200D01*
X68278928Y-74321326D01*
X67899482Y-74478497D01*
X67557990Y-74706675D01*
X67267575Y-74997090D01*
X67039397Y-75338582D01*
X66882226Y-75718028D01*
X66802100Y-76120845D01*
X49937550Y-76120845D01*
X49981922Y-76076473D01*
X49928534Y-75847799D01*
X49698626Y-75741905D01*
X49483038Y-75690224D01*
X49602449Y-75671270D01*
X49839896Y-75583578D01*
X49928534Y-75536201D01*
X49981922Y-75307527D01*
X49276000Y-74601605D01*
X48570078Y-75307527D01*
X47441922Y-75307527D01*
X46736000Y-74601605D01*
X46030078Y-75307527D01*
X40843200Y-75307527D01*
X40843200Y-74498455D01*
X45447048Y-74498455D01*
X45486730Y-74748449D01*
X45574422Y-74985896D01*
X45621799Y-75074534D01*
X45850473Y-75127922D01*
X46556395Y-74422000D01*
X46915605Y-74422000D01*
X47621527Y-75127922D01*
X47850201Y-75074534D01*
X47956095Y-74844626D01*
X48007776Y-74629038D01*
X48026730Y-74748449D01*
X48114422Y-74985896D01*
X48161799Y-75074534D01*
X48390473Y-75127922D01*
X49096395Y-74422000D01*
X49455605Y-74422000D01*
X50161527Y-75127922D01*
X50390201Y-75074534D01*
X50496095Y-74844626D01*
X50555102Y-74598476D01*
X50564952Y-74345545D01*
X50525270Y-74095551D01*
X50437578Y-73858104D01*
X50390201Y-73769466D01*
X50161527Y-73716078D01*
X49455605Y-74422000D01*
X49096395Y-74422000D01*
X48390473Y-73716078D01*
X48161799Y-73769466D01*
X48055905Y-73999374D01*
X48004224Y-74214962D01*
X47985270Y-74095551D01*
X47897578Y-73858104D01*
X47850201Y-73769466D01*
X47621527Y-73716078D01*
X46915605Y-74422000D01*
X46556395Y-74422000D01*
X45850473Y-73716078D01*
X45621799Y-73769466D01*
X45515905Y-73999374D01*
X45456898Y-74245524D01*
X45447048Y-74498455D01*
X40843200Y-74498455D01*
X40843200Y-71232000D01*
X45447928Y-71232000D01*
X45447928Y-72532000D01*
X45460188Y-72656482D01*
X45496498Y-72776180D01*
X45555463Y-72886494D01*
X45634815Y-72983185D01*
X45731506Y-73062537D01*
X45841820Y-73121502D01*
X45961518Y-73157812D01*
X46086000Y-73170072D01*
X46426296Y-73170072D01*
X46409551Y-73172730D01*
X46172104Y-73260422D01*
X46083466Y-73307799D01*
X46030078Y-73536473D01*
X46736000Y-74242395D01*
X47441922Y-73536473D01*
X47388534Y-73307799D01*
X47158626Y-73201905D01*
X47025833Y-73170072D01*
X47386000Y-73170072D01*
X47510482Y-73157812D01*
X47630180Y-73121502D01*
X47740494Y-73062537D01*
X47837185Y-72983185D01*
X47916537Y-72886494D01*
X47975502Y-72776180D01*
X48011812Y-72656482D01*
X48024072Y-72532000D01*
X48024072Y-72174828D01*
X48040381Y-72256821D01*
X48137247Y-72490676D01*
X48277875Y-72701140D01*
X48456860Y-72880125D01*
X48667324Y-73020753D01*
X48901179Y-73117619D01*
X49076744Y-73152540D01*
X48949551Y-73172730D01*
X48712104Y-73260422D01*
X48623466Y-73307799D01*
X48570078Y-73536473D01*
X49276000Y-74242395D01*
X49981922Y-73536473D01*
X49928534Y-73307799D01*
X49698626Y-73201905D01*
X49484789Y-73150644D01*
X49650821Y-73117619D01*
X49884676Y-73020753D01*
X49890293Y-73017000D01*
X77597869Y-73017000D01*
X81145000Y-76564133D01*
X81145001Y-127192919D01*
X81092460Y-127319764D01*
X81045000Y-127558363D01*
X81045000Y-127801637D01*
X81092460Y-128040236D01*
X81185557Y-128264992D01*
X81320713Y-128467267D01*
X81492733Y-128639287D01*
X81695008Y-128774443D01*
X81919764Y-128867540D01*
X82158363Y-128915000D01*
X82401637Y-128915000D01*
X82640236Y-128867540D01*
X82864992Y-128774443D01*
X83067267Y-128639287D01*
X83239287Y-128467267D01*
X83374443Y-128264992D01*
X83467540Y-128040236D01*
X83515000Y-127801637D01*
X83515000Y-127558363D01*
X83467540Y-127319764D01*
X83415000Y-127192921D01*
X83415000Y-76149752D01*
X83420491Y-76094000D01*
X83398577Y-75871501D01*
X83333676Y-75657553D01*
X83228284Y-75460377D01*
X83121989Y-75330856D01*
X83121987Y-75330854D01*
X83086449Y-75287551D01*
X83043146Y-75252013D01*
X78909996Y-71118865D01*
X78874449Y-71075551D01*
X78701623Y-70933716D01*
X78504447Y-70828324D01*
X78290499Y-70763423D01*
X78123752Y-70747000D01*
X78123751Y-70747000D01*
X78068000Y-70741509D01*
X78012249Y-70747000D01*
X49890293Y-70747000D01*
X49884676Y-70743247D01*
X49650821Y-70646381D01*
X49402561Y-70597000D01*
X49149439Y-70597000D01*
X48901179Y-70646381D01*
X48811678Y-70683453D01*
X49140132Y-70355000D01*
X79379869Y-70355000D01*
X85695000Y-76670133D01*
X85695001Y-132112919D01*
X85642460Y-132239764D01*
X85595000Y-132478363D01*
X85595000Y-132721637D01*
X85642460Y-132960236D01*
X85735557Y-133184992D01*
X85870713Y-133387267D01*
X86042733Y-133559287D01*
X86245008Y-133694443D01*
X86469764Y-133787540D01*
X86708363Y-133835000D01*
X86951637Y-133835000D01*
X87190236Y-133787540D01*
X87414992Y-133694443D01*
X87617267Y-133559287D01*
X87789287Y-133387267D01*
X87924443Y-133184992D01*
X88017540Y-132960236D01*
X88065000Y-132721637D01*
X88065000Y-132478363D01*
X88017540Y-132239764D01*
X87965000Y-132112921D01*
X87965000Y-119290238D01*
X128897500Y-119290238D01*
X128897500Y-120104762D01*
X129056406Y-120903635D01*
X129368111Y-121656157D01*
X129820636Y-122333409D01*
X130396591Y-122909364D01*
X131073843Y-123361889D01*
X131826365Y-123673594D01*
X132625238Y-123832500D01*
X133439762Y-123832500D01*
X134238635Y-123673594D01*
X134991157Y-123361889D01*
X135668409Y-122909364D01*
X136244364Y-122333409D01*
X136696889Y-121656157D01*
X137008594Y-120903635D01*
X137167500Y-120104762D01*
X137167500Y-119290238D01*
X137154870Y-119226738D01*
X199255500Y-119226738D01*
X199255500Y-120041262D01*
X199414406Y-120840135D01*
X199726111Y-121592657D01*
X200178636Y-122269909D01*
X200754591Y-122845864D01*
X201431843Y-123298389D01*
X202184365Y-123610094D01*
X202983238Y-123769000D01*
X203797762Y-123769000D01*
X204596635Y-123610094D01*
X205349157Y-123298389D01*
X206026409Y-122845864D01*
X206602364Y-122269909D01*
X207054889Y-121592657D01*
X207366594Y-120840135D01*
X207525500Y-120041262D01*
X207525500Y-119226738D01*
X207366594Y-118427865D01*
X207054889Y-117675343D01*
X206602364Y-116998091D01*
X206026409Y-116422136D01*
X205349157Y-115969611D01*
X204596635Y-115657906D01*
X203797762Y-115499000D01*
X202983238Y-115499000D01*
X202184365Y-115657906D01*
X201431843Y-115969611D01*
X200754591Y-116422136D01*
X200178636Y-116998091D01*
X199726111Y-117675343D01*
X199414406Y-118427865D01*
X199255500Y-119226738D01*
X137154870Y-119226738D01*
X137008594Y-118491365D01*
X136696889Y-117738843D01*
X136244364Y-117061591D01*
X135668409Y-116485636D01*
X134991157Y-116033111D01*
X134238635Y-115721406D01*
X133439762Y-115562500D01*
X132625238Y-115562500D01*
X131826365Y-115721406D01*
X131073843Y-116033111D01*
X130396591Y-116485636D01*
X129820636Y-117061591D01*
X129368111Y-117738843D01*
X129056406Y-118491365D01*
X128897500Y-119290238D01*
X87965000Y-119290238D01*
X87965000Y-76255752D01*
X87970491Y-76200000D01*
X87948577Y-75977501D01*
X87883676Y-75763553D01*
X87778284Y-75566377D01*
X87671989Y-75436856D01*
X87671987Y-75436854D01*
X87636449Y-75393551D01*
X87593146Y-75358013D01*
X86821371Y-74586238D01*
X129342000Y-74586238D01*
X129342000Y-75400762D01*
X129500906Y-76199635D01*
X129812611Y-76952157D01*
X130265136Y-77629409D01*
X130841091Y-78205364D01*
X131518343Y-78657889D01*
X132270865Y-78969594D01*
X133069738Y-79128500D01*
X133884262Y-79128500D01*
X134683135Y-78969594D01*
X135435657Y-78657889D01*
X136112909Y-78205364D01*
X136688864Y-77629409D01*
X137141389Y-76952157D01*
X137453094Y-76199635D01*
X137612000Y-75400762D01*
X137612000Y-74776738D01*
X199001500Y-74776738D01*
X199001500Y-75591262D01*
X199160406Y-76390135D01*
X199472111Y-77142657D01*
X199924636Y-77819909D01*
X200500591Y-78395864D01*
X201177843Y-78848389D01*
X201930365Y-79160094D01*
X202729238Y-79319000D01*
X203543762Y-79319000D01*
X204342635Y-79160094D01*
X205095157Y-78848389D01*
X205772409Y-78395864D01*
X206348364Y-77819909D01*
X206800889Y-77142657D01*
X207112594Y-76390135D01*
X207271500Y-75591262D01*
X207271500Y-74776738D01*
X207112594Y-73977865D01*
X206800889Y-73225343D01*
X206348364Y-72548091D01*
X205772409Y-71972136D01*
X205095157Y-71519611D01*
X204342635Y-71207906D01*
X203543762Y-71049000D01*
X202729238Y-71049000D01*
X201930365Y-71207906D01*
X201177843Y-71519611D01*
X200500591Y-71972136D01*
X199924636Y-72548091D01*
X199472111Y-73225343D01*
X199160406Y-73977865D01*
X199001500Y-74776738D01*
X137612000Y-74776738D01*
X137612000Y-74586238D01*
X137453094Y-73787365D01*
X137141389Y-73034843D01*
X136688864Y-72357591D01*
X136112909Y-71781636D01*
X135435657Y-71329111D01*
X134683135Y-71017406D01*
X133884262Y-70858500D01*
X133069738Y-70858500D01*
X132270865Y-71017406D01*
X131518343Y-71329111D01*
X130841091Y-71781636D01*
X130265136Y-72357591D01*
X129812611Y-73034843D01*
X129500906Y-73787365D01*
X129342000Y-74586238D01*
X86821371Y-74586238D01*
X80691996Y-68456865D01*
X80656449Y-68413551D01*
X80483623Y-68271716D01*
X80286447Y-68166324D01*
X80072499Y-68101423D01*
X79905752Y-68085000D01*
X79905751Y-68085000D01*
X79850000Y-68079509D01*
X79794249Y-68085000D01*
X48725751Y-68085000D01*
X48669999Y-68079509D01*
X48614248Y-68085000D01*
X48447501Y-68101423D01*
X48233553Y-68166324D01*
X48036377Y-68271716D01*
X47863551Y-68413551D01*
X47828009Y-68456859D01*
X45972860Y-70312009D01*
X45929552Y-70347551D01*
X45787717Y-70520377D01*
X45682324Y-70717553D01*
X45672520Y-70749871D01*
X45634815Y-70780815D01*
X45555463Y-70877506D01*
X45496498Y-70987820D01*
X45460188Y-71107518D01*
X45447928Y-71232000D01*
X40843200Y-71232000D01*
X40843200Y-63992626D01*
X41461000Y-63992626D01*
X41461000Y-64531374D01*
X41566105Y-65059770D01*
X41772275Y-65557508D01*
X42071587Y-66005461D01*
X42452539Y-66386413D01*
X42900492Y-66685725D01*
X43398230Y-66891895D01*
X43926626Y-66997000D01*
X44465374Y-66997000D01*
X44993770Y-66891895D01*
X45491508Y-66685725D01*
X45939461Y-66386413D01*
X46320413Y-66005461D01*
X46619725Y-65557508D01*
X46825895Y-65059770D01*
X46931000Y-64531374D01*
X46931000Y-63992626D01*
X46825895Y-63464230D01*
X46619725Y-62966492D01*
X46320413Y-62518539D01*
X45939461Y-62137587D01*
X45491508Y-61838275D01*
X44993770Y-61632105D01*
X44465374Y-61527000D01*
X43926626Y-61527000D01*
X43398230Y-61632105D01*
X42900492Y-61838275D01*
X42452539Y-62137587D01*
X42071587Y-62518539D01*
X41772275Y-62966492D01*
X41566105Y-63464230D01*
X41461000Y-63992626D01*
X40843200Y-63992626D01*
X40843200Y-61433064D01*
X40832909Y-61328580D01*
X40792242Y-61194519D01*
X40792000Y-61194066D01*
X40792000Y-60979934D01*
X40792242Y-60979481D01*
X40832909Y-60845420D01*
X40843200Y-60740936D01*
X40843200Y-50280000D01*
X98041928Y-50280000D01*
X98054188Y-50404482D01*
X98090498Y-50524180D01*
X98149463Y-50634494D01*
X98228815Y-50731185D01*
X98325506Y-50810537D01*
X98435820Y-50869502D01*
X98555518Y-50905812D01*
X98680000Y-50918072D01*
X99244250Y-50915000D01*
X99403000Y-50756250D01*
X99403000Y-49557000D01*
X98203750Y-49557000D01*
X98045000Y-49715750D01*
X98041928Y-50280000D01*
X40843200Y-50280000D01*
X40843200Y-48580000D01*
X98041928Y-48580000D01*
X98045000Y-49144250D01*
X98203750Y-49303000D01*
X99403000Y-49303000D01*
X99403000Y-48103750D01*
X99657000Y-48103750D01*
X99657000Y-49303000D01*
X99677000Y-49303000D01*
X99677000Y-49557000D01*
X99657000Y-49557000D01*
X99657000Y-50756250D01*
X99815750Y-50915000D01*
X100380000Y-50918072D01*
X100504482Y-50905812D01*
X100624180Y-50869502D01*
X100734494Y-50810537D01*
X100831185Y-50731185D01*
X100910537Y-50634494D01*
X100969502Y-50524180D01*
X100991513Y-50451620D01*
X101123368Y-50583475D01*
X101366589Y-50745990D01*
X101636842Y-50857932D01*
X101923740Y-50915000D01*
X102216260Y-50915000D01*
X102503158Y-50857932D01*
X102773411Y-50745990D01*
X103016632Y-50583475D01*
X103223475Y-50376632D01*
X103385990Y-50133411D01*
X103497932Y-49863158D01*
X103555000Y-49576260D01*
X103555000Y-49283740D01*
X103497932Y-48996842D01*
X103385990Y-48726589D01*
X103223475Y-48483368D01*
X103016632Y-48276525D01*
X102773411Y-48114010D01*
X102503158Y-48002068D01*
X102216260Y-47945000D01*
X101923740Y-47945000D01*
X101636842Y-48002068D01*
X101366589Y-48114010D01*
X101123368Y-48276525D01*
X100991513Y-48408380D01*
X100969502Y-48335820D01*
X100910537Y-48225506D01*
X100831185Y-48128815D01*
X100734494Y-48049463D01*
X100624180Y-47990498D01*
X100504482Y-47954188D01*
X100380000Y-47941928D01*
X99815750Y-47945000D01*
X99657000Y-48103750D01*
X99403000Y-48103750D01*
X99244250Y-47945000D01*
X98680000Y-47941928D01*
X98555518Y-47954188D01*
X98435820Y-47990498D01*
X98325506Y-48049463D01*
X98228815Y-48128815D01*
X98149463Y-48225506D01*
X98090498Y-48335820D01*
X98054188Y-48455518D01*
X98041928Y-48580000D01*
X40843200Y-48580000D01*
X40843200Y-39015000D01*
X99566928Y-39015000D01*
X99579188Y-39139482D01*
X99615498Y-39259180D01*
X99674463Y-39369494D01*
X99753815Y-39466185D01*
X99850506Y-39545537D01*
X99960820Y-39604502D01*
X100080518Y-39640812D01*
X100205000Y-39653072D01*
X100934250Y-39650000D01*
X101093000Y-39491250D01*
X101093000Y-38277000D01*
X101347000Y-38277000D01*
X101347000Y-39491250D01*
X101505750Y-39650000D01*
X102235000Y-39653072D01*
X102359482Y-39640812D01*
X102479180Y-39604502D01*
X102589494Y-39545537D01*
X102686185Y-39466185D01*
X102765537Y-39369494D01*
X102824502Y-39259180D01*
X102860812Y-39139482D01*
X102873072Y-39015000D01*
X102870000Y-38435750D01*
X102711250Y-38277000D01*
X101347000Y-38277000D01*
X101093000Y-38277000D01*
X99728750Y-38277000D01*
X99570000Y-38435750D01*
X99566928Y-39015000D01*
X40843200Y-39015000D01*
X40843200Y-32953288D01*
X97875000Y-32953288D01*
X97875000Y-33186712D01*
X97920539Y-33415652D01*
X98009866Y-33631308D01*
X98139550Y-33825394D01*
X98304606Y-33990450D01*
X98498692Y-34120134D01*
X98714348Y-34209461D01*
X98943288Y-34255000D01*
X99176712Y-34255000D01*
X99405652Y-34209461D01*
X99621308Y-34120134D01*
X99815394Y-33990450D01*
X99853586Y-33952258D01*
X100004208Y-34135792D01*
X100232613Y-34323238D01*
X100263972Y-34340000D01*
X100232613Y-34356762D01*
X100004208Y-34544208D01*
X99816762Y-34772613D01*
X99677476Y-35033198D01*
X99591705Y-35315949D01*
X99562743Y-35610000D01*
X99591705Y-35904051D01*
X99677476Y-36186802D01*
X99816762Y-36447387D01*
X100004208Y-36675792D01*
X100010030Y-36680570D01*
X99960820Y-36695498D01*
X99850506Y-36754463D01*
X99753815Y-36833815D01*
X99674463Y-36930506D01*
X99615498Y-37040820D01*
X99579188Y-37160518D01*
X99566928Y-37285000D01*
X99570000Y-37864250D01*
X99728750Y-38023000D01*
X101093000Y-38023000D01*
X101093000Y-38003000D01*
X101347000Y-38003000D01*
X101347000Y-38023000D01*
X102711250Y-38023000D01*
X102870000Y-37864250D01*
X102873072Y-37285000D01*
X102860812Y-37160518D01*
X102824502Y-37040820D01*
X102765537Y-36930506D01*
X102686185Y-36833815D01*
X102589494Y-36754463D01*
X102479180Y-36695498D01*
X102429970Y-36680570D01*
X102435792Y-36675792D01*
X102623238Y-36447387D01*
X102762524Y-36186802D01*
X102848295Y-35904051D01*
X102877257Y-35610000D01*
X102848295Y-35315949D01*
X102762524Y-35033198D01*
X102623238Y-34772613D01*
X102435792Y-34544208D01*
X102207387Y-34356762D01*
X102176028Y-34340000D01*
X102207387Y-34323238D01*
X102435792Y-34135792D01*
X102623238Y-33907387D01*
X102643199Y-33870042D01*
X149445000Y-33870042D01*
X149445000Y-34201958D01*
X149509754Y-34527496D01*
X149636772Y-34834147D01*
X149821175Y-35110125D01*
X150055875Y-35344825D01*
X150331853Y-35529228D01*
X150638504Y-35656246D01*
X150964042Y-35721000D01*
X151295958Y-35721000D01*
X151621496Y-35656246D01*
X151928147Y-35529228D01*
X152204125Y-35344825D01*
X152438825Y-35110125D01*
X152623228Y-34834147D01*
X152750246Y-34527496D01*
X152815000Y-34201958D01*
X152815000Y-33870042D01*
X152750246Y-33544504D01*
X152623228Y-33237853D01*
X152438825Y-32961875D01*
X152204125Y-32727175D01*
X151928147Y-32542772D01*
X151621496Y-32415754D01*
X151295958Y-32351000D01*
X150964042Y-32351000D01*
X150638504Y-32415754D01*
X150331853Y-32542772D01*
X150055875Y-32727175D01*
X149821175Y-32961875D01*
X149636772Y-33237853D01*
X149509754Y-33544504D01*
X149445000Y-33870042D01*
X102643199Y-33870042D01*
X102762524Y-33646802D01*
X102848295Y-33364051D01*
X102877257Y-33070000D01*
X102848295Y-32775949D01*
X102762524Y-32493198D01*
X102623238Y-32232613D01*
X102435792Y-32004208D01*
X102207387Y-31816762D01*
X102176028Y-31800000D01*
X102207387Y-31783238D01*
X102435792Y-31595792D01*
X102623238Y-31367387D01*
X102762524Y-31106802D01*
X102848295Y-30824051D01*
X102877257Y-30530000D01*
X102848295Y-30235949D01*
X102762524Y-29953198D01*
X102623238Y-29692613D01*
X102435792Y-29464208D01*
X102207387Y-29276762D01*
X101946802Y-29137476D01*
X101664051Y-29051705D01*
X101443680Y-29030000D01*
X100996320Y-29030000D01*
X100775949Y-29051705D01*
X100493198Y-29137476D01*
X100232613Y-29276762D01*
X100004208Y-29464208D01*
X99816762Y-29692613D01*
X99677476Y-29953198D01*
X99591705Y-30235949D01*
X99562743Y-30530000D01*
X99591705Y-30824051D01*
X99677476Y-31106802D01*
X99816762Y-31367387D01*
X100004208Y-31595792D01*
X100232613Y-31783238D01*
X100263972Y-31800000D01*
X100232613Y-31816762D01*
X100004208Y-32004208D01*
X99853586Y-32187742D01*
X99815394Y-32149550D01*
X99621308Y-32019866D01*
X99405652Y-31930539D01*
X99176712Y-31885000D01*
X98943288Y-31885000D01*
X98714348Y-31930539D01*
X98498692Y-32019866D01*
X98304606Y-32149550D01*
X98139550Y-32314606D01*
X98009866Y-32508692D01*
X97920539Y-32724348D01*
X97875000Y-32953288D01*
X40843200Y-32953288D01*
X40843200Y-28110201D01*
X57159000Y-28110201D01*
X57159000Y-28658799D01*
X57266026Y-29196854D01*
X57475965Y-29703692D01*
X57780750Y-30159834D01*
X58168666Y-30547750D01*
X58624808Y-30852535D01*
X59131646Y-31062474D01*
X59669701Y-31169500D01*
X60218299Y-31169500D01*
X60756354Y-31062474D01*
X61263192Y-30852535D01*
X61719334Y-30547750D01*
X62107250Y-30159834D01*
X62412035Y-29703692D01*
X62621974Y-29196854D01*
X62729000Y-28658799D01*
X62729000Y-28300701D01*
X143011000Y-28300701D01*
X143011000Y-28849299D01*
X143118026Y-29387354D01*
X143327965Y-29894192D01*
X143632750Y-30350334D01*
X144020666Y-30738250D01*
X144476808Y-31043035D01*
X144983646Y-31252974D01*
X145521701Y-31360000D01*
X146070299Y-31360000D01*
X146608354Y-31252974D01*
X147115192Y-31043035D01*
X147571334Y-30738250D01*
X147959250Y-30350334D01*
X148264035Y-29894192D01*
X148473974Y-29387354D01*
X148581000Y-28849299D01*
X148581000Y-28300701D01*
X215020000Y-28300701D01*
X215020000Y-28849299D01*
X215127026Y-29387354D01*
X215336965Y-29894192D01*
X215641750Y-30350334D01*
X216029666Y-30738250D01*
X216485808Y-31043035D01*
X216992646Y-31252974D01*
X217530701Y-31360000D01*
X218079299Y-31360000D01*
X218617354Y-31252974D01*
X219124192Y-31043035D01*
X219580334Y-30738250D01*
X219968250Y-30350334D01*
X220273035Y-29894192D01*
X220482974Y-29387354D01*
X220590000Y-28849299D01*
X220590000Y-28300701D01*
X220482974Y-27762646D01*
X220273035Y-27255808D01*
X219968250Y-26799666D01*
X219580334Y-26411750D01*
X219124192Y-26106965D01*
X218617354Y-25897026D01*
X218079299Y-25790000D01*
X217530701Y-25790000D01*
X216992646Y-25897026D01*
X216485808Y-26106965D01*
X216029666Y-26411750D01*
X215641750Y-26799666D01*
X215336965Y-27255808D01*
X215127026Y-27762646D01*
X215020000Y-28300701D01*
X148581000Y-28300701D01*
X148473974Y-27762646D01*
X148264035Y-27255808D01*
X147959250Y-26799666D01*
X147571334Y-26411750D01*
X147115192Y-26106965D01*
X146608354Y-25897026D01*
X146070299Y-25790000D01*
X145521701Y-25790000D01*
X144983646Y-25897026D01*
X144476808Y-26106965D01*
X144020666Y-26411750D01*
X143632750Y-26799666D01*
X143327965Y-27255808D01*
X143118026Y-27762646D01*
X143011000Y-28300701D01*
X62729000Y-28300701D01*
X62729000Y-28110201D01*
X62621974Y-27572146D01*
X62412035Y-27065308D01*
X62107250Y-26609166D01*
X61719334Y-26221250D01*
X61263192Y-25916465D01*
X60756354Y-25706526D01*
X60218299Y-25599500D01*
X59669701Y-25599500D01*
X59131646Y-25706526D01*
X58624808Y-25916465D01*
X58168666Y-26221250D01*
X57780750Y-26609166D01*
X57475965Y-27065308D01*
X57266026Y-27572146D01*
X57159000Y-28110201D01*
X40843200Y-28110201D01*
X40843200Y-22745700D01*
X229412800Y-22745700D01*
X229412801Y-172771275D01*
G37*
%TD.AperFunction*%
%TD*%
M02*
