%TF.GenerationSoftware,KiCad,Pcbnew,(5.1.9)-1*%
%TF.CreationDate,2021-04-02T12:34:59-05:00*%
%TF.ProjectId,FM Towns Pico Adapter,464d2054-6f77-46e7-9320-5069636f2041,rev?*%
%TF.SameCoordinates,Original*%
%TF.FileFunction,Soldermask,Bot*%
%TF.FilePolarity,Negative*%
%FSLAX46Y46*%
G04 Gerber Fmt 4.6, Leading zero omitted, Abs format (unit mm)*
G04 Created by KiCad (PCBNEW (5.1.9)-1) date 2021-04-02 12:34:59*
%MOMM*%
%LPD*%
G01*
G04 APERTURE LIST*
%ADD10C,1.200000*%
%ADD11O,2.130000X1.830000*%
%ADD12C,1.700000*%
%ADD13C,2.200000*%
%ADD14C,4.400000*%
%ADD15C,0.900000*%
%ADD16C,7.100000*%
%ADD17O,1.800000X1.800000*%
%ADD18C,3.103200*%
%ADD19C,4.300000*%
%ADD20C,1.400000*%
G04 APERTURE END LIST*
D10*
%TO.C,NOCTUA_FAN*%
X99060000Y-33070000D03*
D11*
X101220000Y-30530000D03*
X101220000Y-33070000D03*
X101220000Y-35610000D03*
G36*
G01*
X102285000Y-37285000D02*
X102285000Y-39015000D01*
G75*
G02*
X102235000Y-39065000I-50000J0D01*
G01*
X100205000Y-39065000D01*
G75*
G02*
X100155000Y-39015000I0J50000D01*
G01*
X100155000Y-37285000D01*
G75*
G02*
X100205000Y-37235000I50000J0D01*
G01*
X102235000Y-37235000D01*
G75*
G02*
X102285000Y-37285000I0J-50000D01*
G01*
G37*
%TD*%
D12*
%TO.C,U1*%
X95970000Y-157640000D03*
X93430000Y-157640000D03*
X90890000Y-157640000D03*
X88350000Y-157640000D03*
X85810000Y-157640000D03*
X83270000Y-157640000D03*
X80730000Y-157640000D03*
X78190000Y-157640000D03*
X75650000Y-157640000D03*
X73110000Y-157640000D03*
X70570000Y-157640000D03*
X68030000Y-157640000D03*
X68030000Y-142400000D03*
X70570000Y-142400000D03*
X73110000Y-142400000D03*
X75650000Y-142400000D03*
X78190000Y-142400000D03*
X80730000Y-142400000D03*
X83270000Y-142400000D03*
X85810000Y-142400000D03*
X88350000Y-142400000D03*
X90890000Y-142400000D03*
X93430000Y-142400000D03*
G36*
G01*
X96820000Y-141600000D02*
X96820000Y-143200000D01*
G75*
G02*
X96770000Y-143250000I-50000J0D01*
G01*
X95170000Y-143250000D01*
G75*
G02*
X95120000Y-143200000I0J50000D01*
G01*
X95120000Y-141600000D01*
G75*
G02*
X95170000Y-141550000I50000J0D01*
G01*
X96770000Y-141550000D01*
G75*
G02*
X96820000Y-141600000I0J-50000D01*
G01*
G37*
%TD*%
D13*
%TO.C,REF\u002A\u002A*%
X151130000Y-34036000D03*
%TD*%
D14*
%TO.C,REF\u002A\u002A*%
X145796000Y-28575000D03*
%TD*%
%TO.C,REF\u002A\u002A*%
X217805000Y-28575000D03*
%TD*%
%TO.C,REF\u002A\u002A*%
X59944000Y-28384500D03*
%TD*%
D13*
%TO.C,REF\u002A\u002A*%
X212788500Y-165481000D03*
%TD*%
D14*
%TO.C,REF\u002A\u002A*%
X206756000Y-169418000D03*
%TD*%
%TO.C,REF\u002A\u002A*%
X130880000Y-169470000D03*
%TD*%
%TO.C,REF\u002A\u002A*%
X48260000Y-169545000D03*
%TD*%
D13*
%TO.C,REF\u002A\u002A*%
X44069000Y-163576000D03*
%TD*%
D15*
%TO.C,PAD4*%
X205246655Y-117777845D03*
X203390500Y-117009000D03*
X201534345Y-117777845D03*
X200765500Y-119634000D03*
X201534345Y-121490155D03*
X203390500Y-122259000D03*
X205246655Y-121490155D03*
X206015500Y-119634000D03*
D16*
X203390500Y-119634000D03*
%TD*%
D15*
%TO.C,PAD3*%
X204992655Y-73327845D03*
X203136500Y-72559000D03*
X201280345Y-73327845D03*
X200511500Y-75184000D03*
X201280345Y-77040155D03*
X203136500Y-77809000D03*
X204992655Y-77040155D03*
X205761500Y-75184000D03*
D16*
X203136500Y-75184000D03*
%TD*%
D15*
%TO.C,PAD2*%
X135333155Y-73137345D03*
X133477000Y-72368500D03*
X131620845Y-73137345D03*
X130852000Y-74993500D03*
X131620845Y-76849655D03*
X133477000Y-77618500D03*
X135333155Y-76849655D03*
X136102000Y-74993500D03*
D16*
X133477000Y-74993500D03*
%TD*%
D15*
%TO.C,PAD1*%
X134888655Y-117841345D03*
X133032500Y-117072500D03*
X131176345Y-117841345D03*
X130407500Y-119697500D03*
X131176345Y-121553655D03*
X133032500Y-122322500D03*
X134888655Y-121553655D03*
X135657500Y-119697500D03*
D16*
X133032500Y-119697500D03*
%TD*%
D17*
%TO.C,STOCK_FAN*%
X102070000Y-49430000D03*
G36*
G01*
X100380000Y-50330000D02*
X98680000Y-50330000D01*
G75*
G02*
X98630000Y-50280000I0J50000D01*
G01*
X98630000Y-48580000D01*
G75*
G02*
X98680000Y-48530000I50000J0D01*
G01*
X100380000Y-48530000D01*
G75*
G02*
X100430000Y-48580000I0J-50000D01*
G01*
X100430000Y-50280000D01*
G75*
G02*
X100380000Y-50330000I-50000J0D01*
G01*
G37*
%TD*%
D18*
%TO.C,J1*%
X68887100Y-122526200D03*
X68887100Y-118326200D03*
X68887100Y-114126200D03*
X68887100Y-109926200D03*
X68887100Y-105726200D03*
X68887100Y-101526200D03*
X68887100Y-97326200D03*
X68887100Y-93126200D03*
X68887100Y-88926200D03*
X68887100Y-84726200D03*
X68887100Y-80526200D03*
X68887100Y-76326200D03*
X74387100Y-122526200D03*
X74387100Y-118326200D03*
X74387100Y-114126200D03*
X74387100Y-109926200D03*
X74387100Y-105726200D03*
X74387100Y-101526200D03*
X74387100Y-97326200D03*
X74387100Y-93126200D03*
X74387100Y-88926200D03*
X74387100Y-84726200D03*
X74387100Y-80526200D03*
X74387100Y-76326200D03*
%TD*%
D19*
%TO.C,J2*%
X44196000Y-132842000D03*
X44196000Y-64262000D03*
D20*
X49276000Y-125222000D03*
X49276000Y-122682000D03*
X49276000Y-120142000D03*
X49276000Y-117602000D03*
X49276000Y-115062000D03*
X49276000Y-112522000D03*
X49276000Y-109982000D03*
X49276000Y-107442000D03*
X49276000Y-104902000D03*
X49276000Y-102362000D03*
X49276000Y-99822000D03*
X49276000Y-97282000D03*
X49276000Y-94742000D03*
X49276000Y-92202000D03*
X49276000Y-89662000D03*
X49276000Y-87122000D03*
X49276000Y-84582000D03*
X49276000Y-82042000D03*
X49276000Y-79502000D03*
X49276000Y-76962000D03*
X49276000Y-74422000D03*
X49276000Y-71882000D03*
X46736000Y-125222000D03*
X46736000Y-122682000D03*
X46736000Y-120142000D03*
X46736000Y-117602000D03*
X46736000Y-115062000D03*
X46736000Y-112522000D03*
X46736000Y-109982000D03*
X46736000Y-107442000D03*
X46736000Y-104902000D03*
X46736000Y-102362000D03*
X46736000Y-99822000D03*
X46736000Y-97282000D03*
X46736000Y-94742000D03*
X46736000Y-92202000D03*
X46736000Y-89662000D03*
X46736000Y-87122000D03*
X46736000Y-84582000D03*
X46736000Y-82042000D03*
X46736000Y-79502000D03*
X46736000Y-76962000D03*
X46736000Y-74422000D03*
G36*
G01*
X46036000Y-72532000D02*
X46036000Y-71232000D01*
G75*
G02*
X46086000Y-71182000I50000J0D01*
G01*
X47386000Y-71182000D01*
G75*
G02*
X47436000Y-71232000I0J-50000D01*
G01*
X47436000Y-72532000D01*
G75*
G02*
X47386000Y-72582000I-50000J0D01*
G01*
X46086000Y-72582000D01*
G75*
G02*
X46036000Y-72532000I0J50000D01*
G01*
G37*
%TD*%
M02*
